<?xml version="1.0" encoding="UTF-8"?>
<svg id="Calque_1" data-name="Calque 1" xmlns="http://www.w3.org/2000/svg" viewBox="0 0 75 147.99">
  <defs>
    <style>
      .cls-1 {
        fill: #fd0a0a;
      }
    </style>
  </defs>
  <path class="cls-1" d="m25.5,147.03c5.05-9.29,14.02-14.07,17.31-24.39,5.14-16.08,1.56-28.92-9-40.61-7.41-8.2-15.63-15.66-23.01-23.9C-2.06,43.75-3.82,26.84,7.6,14.77,17.98,3.8,31.37-1.68,47.67.46c-1.74,5.22-5.39,8.57-8.38,12.19-14.18,17.14-10.69,39.26,4.88,54.57,7.16,7.04,14.14,14.28,20.87,21.74,17.05,18.89,12.85,46.33-17.51,55.56-6.75,2.05-13.73,5.01-22.03,2.51Z"/>
</svg>