<?xml version="1.0" encoding="UTF-8"?>
<svg id="Ebene_1" data-name="Ebene 1" xmlns="http://www.w3.org/2000/svg" xmlns:xlink="http://www.w3.org/1999/xlink" viewBox="0 0 75 64.2">
  <defs>
    <style>
      .cls-1 {
        stroke: #fff;
        stroke-miterlimit: 10;
        stroke-width: .05px;
      }

      .cls-1, .cls-2 {
        fill: none;
      }

      .cls-3 {
        fill: #ff1415;
      }

      .cls-3, .cls-4 {
        fill-rule: evenodd;
      }

      .cls-5 {
        clip-path: url(#clippath);
      }

      .cls-4 {
        fill: #fff;
        opacity: 0;
      }
    </style>
    <clipPath id="clippath">
      <polygon class="cls-2" points=".21 63.99 74.79 63.99 74.79 .21 .21 .21 .21 63.99 .21 63.99"/>
    </clipPath>
  </defs>
  <polygon class="cls-4" points="0 0 75 0 75 64.2 0 64.2 0 0 0 0"/>
  <g class="cls-5">
    <path class="cls-3" d="m.21,64.02l25.97-10.67L7.19,29.84l23.95,14.31L18.89,4.76l18.43,27.41L41.77.21l6.68,35.44L64.4,3.04l-9.26,40.75,19.64-16.69-16.2,26.9,12.2,10.01H.21Zm39.09-9.76l-12.15-7.13,7.19,8.85-9.26,3.34h32.66l-5.42-4.15,3.9-6.42-8.05,6.93,4.1-18.05-5.67,11.88-4.1-21.54-2.33,16.79-8.4-11.22,7.54,20.73h0Z"/>
    <path class="cls-1" d="m.21,64.02l25.97-10.67L7.19,29.84l23.95,14.31L18.89,4.76l18.43,27.41L41.77.21l6.68,35.44L64.4,3.04l-9.26,40.75,19.64-16.69-16.2,26.9,12.2,10.01H.21Zm39.09-9.76l-12.15-7.13,7.19,8.85-9.26,3.34h32.66l-5.42-4.15,3.9-6.42-8.05,6.93,4.1-18.05-5.67,11.88-4.1-21.54-2.33,16.79-8.4-11.22,7.54,20.73h0Z"/>
  </g>
</svg>