<?xml version="1.0" encoding="UTF-8"?><svg id="Ebene_1" xmlns="http://www.w3.org/2000/svg" viewBox="0 0 86.78 73.97"><defs><style>.cls-1{stroke:#f90;stroke-miterlimit:10;stroke-width:6.75px;}.cls-1,.cls-2{fill:#fff;}.cls-2,.cls-3{stroke-width:0px;}.cls-3{fill:#ff9415;}</style></defs><polygon class="cls-1" points="5.89 70.6 43.39 6.67 80.89 70.6 5.89 70.6 5.89 70.6"/><ellipse class="cls-3" cx="43.39" cy="49.77" rx="15.22" ry="15.27"/><polygon class="cls-2" points="31.3 49.25 55.48 49.25 55.48 48.79 55.48 48.33 55.48 47.94 55.41 47.48 55.35 47.09 55.28 46.69 55.22 46.3 55.15 45.91 55.02 45.58 54.96 45.19 54.83 44.79 54.7 44.47 54.5 44.07 54.37 43.74 54.18 43.42 54.05 43.09 53.85 42.76 53.59 42.43 53.39 42.11 53.2 41.84 52.94 41.52 52.68 41.25 52.42 40.93 52.16 40.66 51.83 40.4 51.57 40.14 51.24 39.88 50.92 39.62 50.59 39.35 50.26 39.16 49.87 38.89 49.48 38.7 37.36 59.8 37.49 59.87 37.69 60 37.88 60.06 38.01 60.13 38.21 60.26 38.4 60.33 38.53 60.39 38.73 60.46 38.92 60.52 39.12 60.59 39.25 60.72 39.45 60.72 39.64 60.78 39.84 60.85 40.03 60.92 40.16 60.98 40.36 61.05 40.55 61.05 40.75 61.11 40.94 61.18 41.14 61.18 41.34 61.24 41.53 61.24 41.73 61.24 41.92 61.31 42.12 61.31 42.31 61.31 42.51 61.37 42.7 61.37 42.9 61.37 43.1 61.37 43.29 61.37 43.49 61.37 43.68 61.37 43.94 61.37 44.14 61.37 44.33 61.31 44.53 61.31 44.73 61.31 44.92 61.24 45.12 61.24 45.38 61.18 45.57 61.18 45.77 61.11 45.96 61.05 46.16 61.05 46.35 60.98 46.55 60.92 46.75 60.85 46.94 60.78 47.14 60.72 47.33 60.65 47.53 60.59 47.72 60.52 47.85 60.46 48.05 60.33 48.24 60.26 48.44 60.19 48.64 60.06 48.83 60 48.96 59.87 49.16 59.8 49.35 59.67 49.55 59.54 37.36 38.63 36.97 38.89 36.58 39.09 36.25 39.35 35.86 39.62 35.54 39.88 35.21 40.07 34.95 40.4 34.62 40.66 34.36 40.93 34.1 41.19 33.84 41.52 33.58 41.78 33.32 42.11 33.12 42.43 32.93 42.76 32.73 43.02 32.54 43.42 32.34 43.74 32.21 44.07 32.08 44.47 31.95 44.79 31.82 45.19 31.69 45.51 31.62 45.91 31.56 46.3 31.43 46.69 31.43 47.09 31.36 47.48 31.3 47.94 31.3 48.33 31.3 48.79 31.3 49.25 31.3 49.25"/></svg>