<?xml version="1.0" encoding="UTF-8"?><svg id="Ebene_1" xmlns="http://www.w3.org/2000/svg" viewBox="0 0 86.78 73.97"><defs><style>.cls-1{fill:#fff;stroke:#f90;stroke-miterlimit:10;stroke-width:6.75px;}.cls-2{fill:#ff9415;fill-rule:evenodd;stroke-width:0px;}</style></defs><polygon class="cls-1" points="5.89 70.6 43.39 6.67 80.89 70.6 5.89 70.6 5.89 70.6"/><path class="cls-2" d="m49.39,42.12l-5.97,10.34-6.04-10.34h4.41v-17.32h3.05v17.32h4.54Zm13.21,14.59c-3.22-.13-4.05,2.3-4.02,5.04-.49,1.49-2.45,1.76-3.7,1.1-1.73-1.14-.32-3.97-2.14-5.23-1.45-1.17-3.66-1.1-5.32-.45-2.46,1.42-.91,3.97-2.4,5.56-.91.58-2.25.64-3.18.06-1.51-1.19-.27-3.74-1.88-5.04-1.44-1.27-3.96-1.38-5.58-.45-2.52,1.19-.46,5.05-2.99,5.75-1.62.54-3.51-.36-3.31-2.26.3-3.62-3.64-4.88-6.49-3.62-1.29.66-1.76,2.12-1.69,3.49.39-.1,1.92.29,1.75-.39-.06-1.75,2.33-2.38,3.51-1.29,1.32,1.1,1.13,3.08,2.14,4.39,1.45,1.79,4.61,1.83,6.23.26,1.32-1.29.23-3.66,1.62-4.72.95-.75,2.57-.58,3.51.13,1.02,1.14.31,2.81,1.1,4.07,1.34,2.09,4.94,2.18,6.69.52,1.22-1.21.49-3.15,1.3-4.46,1.1-1.06,3.33-1.03,4.15.32.42.74.26,1.68.39,2.52.34,1.78,2.03,2.8,3.76,2.71,1.73.16,3.85-.73,4.02-2.65.32-.85.02-1.84.45-2.65.85-1.32,3.1-1.29,4.15-.26.9,1.62-.11,1.56,2.21,1.49.16-2.52-1.87-4.1-4.28-3.94h0Z"/></svg>