<?xml version="1.0" encoding="UTF-8"?><svg id="Ebene_1" xmlns="http://www.w3.org/2000/svg" viewBox="0 0 77.75 125.71"><defs><style>.cls-1,.cls-2{fill:#fff;}.cls-3{font-family:Arial-BoldMT, Arial;font-size:23.15px;font-weight:700;}.cls-3,.cls-4{fill:blue;}.cls-4{fill-rule:evenodd;}.cls-5{fill:none;stroke-linejoin:round;}.cls-5,.cls-2{stroke:blue;stroke-width:5.5px;}.cls-2{stroke-miterlimit:10;}</style></defs><circle class="cls-1" cx="43.81" cy="32.5" r="30.12"/><path class="cls-4" d="m0,113.67c0-6.65,5.59-12.04,12.49-12.04h0c6.9,0,12.49,5.39,12.49,12.04h0c0,6.65-5.59,12.04-12.49,12.04h0c-6.9,0-12.49-5.39-12.49-12.04h0Z"/><path class="cls-5" d="m12.62,32.85c0-16.62,13.96-30.1,31.19-30.1h0c17.23,0,31.19,13.47,31.19,30.1h0c0,16.62-13.96,30.1-31.19,30.1h0c-17.22,0-31.19-13.47-31.19-30.1h0Z"/><text class="cls-3" transform="translate(19.32 41.34)"><tspan x="0" y="0">K</tspan></text><text class="cls-3" transform="translate(37.27 41.34)"><tspan x="0" y="0">FO</tspan></text><line class="cls-2" x1="12.62" y1="32.85" x2="12.62" y2="108.09"/></svg>