<?xml version="1.0" encoding="UTF-8"?><svg id="Ebene_1" xmlns="http://www.w3.org/2000/svg" viewBox="0 0 76.83 124.21"><defs><style>.cls-1{stroke:#000;stroke-width:.97px;}.cls-1,.cls-2{fill:#fff;stroke-miterlimit:10;}.cls-3{fill:none;stroke-linejoin:round;}.cls-3,.cls-2{stroke:blue;stroke-width:5.44px;}.cls-4{font-family:Arial-BoldMT, Arial;font-size:19.72px;font-weight:700;}.cls-4,.cls-5{fill:blue;}.cls-5{fill-rule:evenodd;}</style></defs><ellipse class="cls-1" cx="43.74" cy="32.46" rx="31.26" ry="29.73"/><path class="cls-5" d="m0,112.32c0-6.57,5.53-11.89,12.34-11.89h0c6.82,0,12.34,5.33,12.34,11.89h0c0,6.57-5.52,11.9-12.34,11.9h0c-6.81,0-12.34-5.33-12.34-11.9h0Z"/><path class="cls-3" d="m12.47,32.46c0-16.42,13.8-29.74,30.82-29.74h0c17.02,0,30.82,13.31,30.82,29.74h0c0,16.42-13.8,29.74-30.82,29.74h0c-17.02,0-30.82-13.31-30.82-29.74h0Z"/><text class="cls-4" transform="translate(17.79 39.49)"><tspan x="0" y="0">OCCt</tspan></text><line class="cls-2" x1="12.47" y1="32.46" x2="12.47" y2="106.8"/></svg>