<?xml version="1.0" encoding="UTF-8"?><svg id="Ebene_1" xmlns="http://www.w3.org/2000/svg" viewBox="0 0 78.15 126.18"><defs><style>.cls-1{stroke-miterlimit:10;}.cls-1,.cls-2{fill:#fff;}.cls-1,.cls-3{stroke-width:5.5px;}.cls-1,.cls-3,.cls-4{stroke:blue;}.cls-5{font-family:Arial-BoldMT, Arial;font-size:33.57px;font-weight:700;}.cls-5,.cls-6{fill:blue;}.cls-2,.cls-6{stroke-width:0px;}.cls-3,.cls-4{fill:none;stroke-linejoin:round;}.cls-6{fill-rule:evenodd;}.cls-4{stroke-width:.79px;}</style></defs><ellipse class="cls-2" cx="44.21" cy="32.92" rx="29.9" ry="30.79"/><path class="cls-6" d="m.4,113.74c0-6.65,5.59-12.04,12.49-12.04h0c6.9,0,12.49,5.39,12.49,12.04h0c0,6.65-5.59,12.04-12.49,12.04h0c-6.9,0-12.49-5.39-12.49-12.04H.4Z"/><path class="cls-4" d="m.4,113.74c0-6.65,5.59-12.04,12.49-12.04h0c6.9,0,12.49,5.39,12.49,12.04h0c0,6.65-5.59,12.04-12.49,12.04h0c-6.9,0-12.49-5.39-12.49-12.04H.4Z"/><path class="cls-3" d="m13.02,32.85c0-16.62,13.96-30.1,31.19-30.1h0c17.23,0,31.19,13.47,31.19,30.1h0c0,16.62-13.96,30.1-31.19,30.1h0c-17.22,0-31.19-13.47-31.19-30.1h0Z"/><text class="cls-5" transform="translate(17.22 41.11) scale(.91 1)"><tspan x="0" y="0">occ</tspan></text><line class="cls-1" x1="13.02" y1="32.92" x2="13.02" y2="108.16"/></svg>