<?xml version="1.0" encoding="UTF-8"?>
<svg id="Ebene_1" data-name="Ebene 1" xmlns="http://www.w3.org/2000/svg" viewBox="0 0 76.89 124.14">
  <defs>
    <style>
      .cls-1 {
        stroke-width: .78px;
      }

      .cls-1, .cls-2, .cls-3 {
        stroke: blue;
      }

      .cls-1, .cls-3 {
        fill: none;
        stroke-linejoin: round;
      }

      .cls-4 {
        font-family: Arial-BoldMT, Arial;
        font-size: 18.28px;
        font-weight: 700;
      }

      .cls-4, .cls-5 {
        fill: blue;
      }

      .cls-2, .cls-3 {
        stroke-width: 5.42px;
      }

      .cls-2, .cls-6 {
        fill: #fff;
        stroke-miterlimit: 10;
      }

      .cls-5 {
        fill-rule: evenodd;
      }

      .cls-6 {
        stroke: #fff;
        stroke-width: .86px;
      }
    </style>
  </defs>
  <ellipse class="cls-6" cx="43.5" cy="32.32" rx="31.9" ry="31"/>
  <g>
    <path class="cls-5" d="m.39,111.91c0-6.54,5.5-11.84,12.29-11.84h0c6.79,0,12.29,5.3,12.29,11.84h0c0,6.54-5.5,11.84-12.29,11.84h0c-6.79,0-12.29-5.3-12.29-11.84H.39Z"/>
    <path class="cls-1" d="m.39,111.91c0-6.54,5.5-11.84,12.29-11.84h0c6.79,0,12.29,5.3,12.29,11.84h0c0,6.54-5.5,11.84-12.29,11.84h0c-6.79,0-12.29-5.3-12.29-11.84H.39Z"/>
    <path class="cls-3" d="m12.81,32.32C12.81,15.96,26.55,2.71,43.5,2.71h0c16.95,0,30.69,13.26,30.69,29.61h0c0,16.35-13.74,29.61-30.69,29.61h0c-16.95,0-30.69-13.26-30.69-29.61h0Z"/>
    <text class="cls-4" transform="translate(17.43 38.72)"><tspan x="0" y="0">OCRg</tspan></text>
    <line class="cls-2" x1="12.81" y1="32.39" x2="12.81" y2="106.42"/>
  </g>
</svg>