<?xml version="1.0" encoding="UTF-8"?><svg id="Ebene_1" xmlns="http://www.w3.org/2000/svg" viewBox="0 0 78.15 126.11"><defs><style>.cls-1{font-family:Arial-BoldMT, Arial;font-size:19.27px;font-weight:700;}.cls-1,.cls-2{fill:blue;}.cls-3,.cls-4{stroke-width:5.5px;}.cls-3,.cls-4,.cls-5{stroke:blue;}.cls-3,.cls-5{fill:none;stroke-linejoin:round;}.cls-4,.cls-6{fill:#fff;stroke-miterlimit:10;}.cls-2{fill-rule:evenodd;}.cls-5{stroke-width:.79px;}.cls-6{stroke:#fff;stroke-width:.99px;}</style></defs><ellipse class="cls-6" cx="44.21" cy="32.85" rx="31.19" ry="30.1"/><path class="cls-2" d="m.4,113.67c0-6.65,5.59-12.04,12.49-12.04h0c6.9,0,12.49,5.39,12.49,12.04h0c0,6.65-5.59,12.04-12.49,12.04h0c-6.9,0-12.49-5.39-12.49-12.04H.4Z"/><path class="cls-5" d="m.4,113.67c0-6.65,5.59-12.04,12.49-12.04h0c6.9,0,12.49,5.39,12.49,12.04h0c0,6.65-5.59,12.04-12.49,12.04h0c-6.9,0-12.49-5.39-12.49-12.04H.4Z"/><path class="cls-3" d="m13.02,32.85c0-16.62,13.96-30.1,31.19-30.1h0c17.23,0,31.19,13.47,31.19,30.1h0c0,16.62-13.96,30.1-31.19,30.1h0c-17.22,0-31.19-13.47-31.19-30.1h0Z"/><text class="cls-1" transform="translate(16.34 39.97)"><tspan x="0" y="0">OCRg</tspan></text><line class="cls-4" x1="13.02" y1="32.85" x2="13.02" y2="108.09"/></svg>