<?xml version="1.0" encoding="UTF-8"?><svg id="Ebene_1" xmlns="http://www.w3.org/2000/svg" viewBox="0 0 77.75 125.78"><defs><style>.cls-1,.cls-2{fill:#fff;}.cls-2{stroke-miterlimit:10;}.cls-2,.cls-3{stroke:blue;stroke-width:5.5px;}.cls-4{font-family:Arial-BoldMT, Arial;font-size:25.46px;font-weight:700;}.cls-4,.cls-5{fill:blue;}.cls-3{fill:none;stroke-linejoin:round;}.cls-5{fill-rule:evenodd;}</style></defs><circle class="cls-1" cx="44.88" cy="32.82" r="30.12"/><path class="cls-5" d="m0,113.74c0-6.65,5.59-12.04,12.49-12.04h0c6.9,0,12.49,5.39,12.49,12.04h0c0,6.65-5.59,12.04-12.49,12.04h0c-6.9,0-12.49-5.39-12.49-12.04h0Z"/><path class="cls-3" d="m12.62,32.85c0-16.62,13.96-30.1,31.19-30.1h0c17.23,0,31.19,13.47,31.19,30.1h0c0,16.62-13.96,30.1-31.19,30.1h0c-17.22,0-31.19-13.47-31.19-30.1h0Z"/><text class="cls-4" transform="translate(17.37 41.75)"><tspan x="0" y="0">RFO</tspan></text><line class="cls-2" x1="12.62" y1="32.92" x2="12.62" y2="108.16"/></svg>