<?xml version="1.0" encoding="UTF-8"?><svg id="Ebene_1" xmlns="http://www.w3.org/2000/svg" viewBox="0 0 77.81 134.4"><defs><style>.cls-1{stroke-width:5.72px;}.cls-1,.cls-2{fill:#fff;stroke-miterlimit:10;}.cls-1,.cls-3{stroke:blue;}.cls-4{font-family:Arial-BoldMT, Arial;font-size:17.15px;font-weight:700;}.cls-4,.cls-5{fill:blue;}.cls-2{stroke:#fff;stroke-width:.98px;}.cls-5{fill-rule:evenodd;}.cls-3{fill:none;stroke-linejoin:round;stroke-width:5.61px;}</style></defs><circle class="cls-2" cx="43.75" cy="33.51" r="30.67"/><path class="cls-5" d="m0,121.9c0-6.9,5.6-12.5,12.5-12.5h0c6.9,0,12.5,5.6,12.5,12.5h0c0,6.9-5.6,12.5-12.5,12.5h0c-6.9,0-12.5-5.6-12.5-12.5h0Z"/><path class="cls-3" d="m12.5,34.06c0-17.26,13.99-31.25,31.25-31.25h0c17.26,0,31.25,13.99,31.25,31.25h0c0,17.26-13.99,31.25-31.25,31.25h0c-17.26,0-31.25-13.99-31.25-31.25h0Z"/><text class="cls-4" transform="translate(17.37 40.1)"><tspan x="0" y="0">OCCm</tspan></text><line class="cls-1" x1="12.5" y1="34.13" x2="12.5" y2="112.26"/></svg>