<?xml version="1.0" encoding="UTF-8"?><svg id="Ebene_1" xmlns="http://www.w3.org/2000/svg" viewBox="0 0 77.75 125.68"><defs><style>.cls-1,.cls-2{fill:#fff;}.cls-3{letter-spacing:0em;}.cls-4{font-family:Arial-BoldMT, Arial;font-size:25.41px;font-weight:700;}.cls-4,.cls-5{fill:blue;}.cls-2{stroke-miterlimit:10;}.cls-2,.cls-6{stroke:blue;stroke-width:5.5px;}.cls-5{fill-rule:evenodd;}.cls-6{fill:none;stroke-linejoin:round;}</style></defs><circle class="cls-1" cx="43.42" cy="32.82" r="30.07"/><path class="cls-5" d="m0,113.65c0-6.64,5.58-12.03,12.45-12.03h0c6.88,0,12.45,5.39,12.45,12.03h0c0,6.64-5.58,12.03-12.45,12.03h0c-6.88,0-12.45-5.39-12.45-12.03h0Z"/><path class="cls-6" d="m12.67,32.82c0-16.61,13.95-30.07,31.16-30.07h0c17.21,0,31.16,13.46,31.16,30.07h0c0,16.61-13.95,30.07-31.16,30.07h0c-17.21,0-31.16-13.46-31.16-30.07h0Z"/><text class="cls-4" transform="translate(28.63 41.35)"><tspan class="cls-3" x="0" y="0">E</tspan><tspan x="16.98" y="0">Z</tspan></text><line class="cls-2" x1="12.67" y1="32.63" x2="12.67" y2="107.74"/></svg>