<?xml version="1.0" encoding="UTF-8"?><svg id="Ebene_1" xmlns="http://www.w3.org/2000/svg" viewBox="0 0 78.09 126.21"><defs><style>.cls-1{font-family:Arial-BoldMT, Arial;font-size:23.13px;font-weight:700;}.cls-1,.cls-2{fill:blue;}.cls-3,.cls-4{fill:#fff;}.cls-3,.cls-4,.cls-2{stroke-miterlimit:10;}.cls-3,.cls-2,.cls-5{stroke:blue;}.cls-3,.cls-5{stroke-width:5.5px;}.cls-4{stroke:#fff;stroke-width:.82px;}.cls-2{fill-rule:evenodd;stroke-width:.69px;}.cls-5{fill:none;stroke-linejoin:round;}</style></defs><ellipse class="cls-4" cx="44.18" cy="32.82" rx="31.16" ry="30.07"/><path class="cls-2" d="m.34,113.84c0-6.64,5.58-12.03,12.45-12.03h0c6.88,0,12.45,5.39,12.45,12.03h0c0,6.64-5.58,12.03-12.45,12.03h0c-6.88,0-12.45-5.39-12.45-12.03H.34Z"/><path class="cls-5" d="m13.01,32.82c0-16.61,13.95-30.07,31.16-30.07h0c17.21,0,31.16,13.46,31.16,30.07h0c0,16.61-13.95,30.07-31.16,30.07h0c-17.21,0-31.16-13.46-31.16-30.07h0Z"/><text class="cls-1" transform="translate(31.72 41.54)"><tspan x="0" y="0">CI</tspan></text><line class="cls-3" x1="13.01" y1="32.82" x2="13.01" y2="107.93"/></svg>