<?xml version="1.0" encoding="UTF-8"?><svg id="Ebene_1" xmlns="http://www.w3.org/2000/svg" viewBox="0 0 76.53 123.89"><defs><style>.cls-1,.cls-2{fill:#fff;stroke-miterlimit:10;}.cls-1,.cls-3{stroke:blue;stroke-width:5.41px;}.cls-2{stroke:#fff;stroke-width:.86px;}.cls-4{font-family:Arial-BoldMT, Arial;font-size:22.77px;font-weight:700;}.cls-4,.cls-5{fill:blue;}.cls-3{fill:none;stroke-linejoin:round;}.cls-5{fill-rule:evenodd;stroke-width:0px;}</style></defs><ellipse class="cls-2" cx="43.15" cy="32.3" rx="31.85" ry="30.96"/><path class="cls-5" d="m0,112.05c0-6.54,5.49-11.84,12.26-11.84h0c6.77,0,12.26,5.3,12.26,11.84h0c0,6.54-5.49,11.84-12.26,11.84h0c-6.77,0-12.26-5.3-12.26-11.84h0Z"/><path class="cls-3" d="m12.47,32.3C12.47,15.96,26.21,2.7,43.15,2.7h0c16.94,0,30.68,13.25,30.68,29.6h0c0,16.35-13.73,29.6-30.68,29.6h0c-16.94,0-30.68-13.25-30.68-29.6h0Z"/><text class="cls-4" transform="translate(26.16 40.89)"><tspan x="0" y="0">CE</tspan></text><line class="cls-1" x1="12.47" y1="32.3" x2="12.47" y2="106.23"/></svg>