<?xml version="1.0" encoding="UTF-8"?><svg id="Ebene_1" xmlns="http://www.w3.org/2000/svg" viewBox="0 0 76.28 123.4"><defs><style>.cls-1{fill:none;stroke-linejoin:round;}.cls-1,.cls-2{stroke:blue;stroke-width:5.4px;}.cls-2,.cls-3{fill:#fff;stroke-miterlimit:10;}.cls-3{stroke:#fff;stroke-width:.86px;}.cls-4{fill-rule:evenodd;stroke-width:0px;}.cls-4,.cls-5{fill:blue;}.cls-5{font-family:Arial-BoldMT, Arial;font-size:22.71px;font-weight:700;}</style></defs><ellipse class="cls-3" cx="43.2" cy="32.43" rx="31.8" ry="30.91"/><path class="cls-4" d="m0,111.59c0-6.52,5.49-11.81,12.25-11.81h0c6.77,0,12.25,5.29,12.25,11.81h0c0,6.52-5.49,11.81-12.25,11.81h0c-6.77,0-12.25-5.29-12.25-11.81h0Z"/><path class="cls-1" d="m12.38,32.23C12.38,15.92,26.08,2.7,42.98,2.7h0c16.9,0,30.6,13.22,30.6,29.53h0c0,16.31-13.7,29.53-30.6,29.53h0c-16.9,0-30.6-13.22-30.6-29.53h0Z"/><text class="cls-5" transform="translate(18.27 40.63)"><tspan x="0" y="0">PCO</tspan></text><line class="cls-2" x1="12.38" y1="32.3" x2="12.38" y2="106.12"/></svg>