<?xml version="1.0" encoding="UTF-8"?><svg id="Ebene_1" xmlns="http://www.w3.org/2000/svg" viewBox="0 0 216.35 75"><defs><style>.cls-1{fill:#0c0cfe;stroke-width:0px;}</style></defs><path class="cls-1" d="m186.29,75c1.2-16.9-9.56-26.08-22.84-32.72-25.11-12.55-51.96-14.92-79.3-9.95-10.48,1.91-20.66,5.88-30.65,9.74-4.78,1.85-9.08,5.29-13.08,8.6-7.56,6.27-11.69,14.2-10.13,24.32H0c.25-2.44.5-4.88.84-8.11h17.47c2.38-5.76,4.43-10.73,6.74-16.32-5.22-3.38-10.63-6.88-16.66-10.78,1.29-2.2,2.46-4.2,3.84-6.55,6.42,3.93,12.34,7.56,18.26,11.19,5.64-4.08,11.05-8,16.59-12-3.89-5.44-7.66-10.72-11.77-16.47,1.96-1.54,3.79-2.98,6.27-4.93,4.54,6.09,8.81,11.82,13.44,18.03,5.89-1.85,11.76-3.7,18.21-5.72-1.44-6.11-2.8-11.86-4.34-18.38,2.2-.73,4.44-1.46,7.26-2.39,1.82,6.56,3.45,12.47,5.21,18.83,7.13-.66,14.05-1.3,21.73-2.01V.61c3.08-.22,5.46-.39,8.54-.61v19.21c7.77.78,14.92,1.49,22.6,2.26,1.66-6.15,3.26-12.09,5.03-18.69,2.53.44,4.83.84,7.61,1.32-1.58,6.62-3,12.58-4.52,18.96,6.19,2,12.09,3.9,18.67,6.03,4.03-5.55,8.09-11.13,12.31-16.93,2.22,1.57,4.02,2.83,6.31,4.45-3.74,5.38-7.27,10.45-10.94,15.74,5.22,3.61,10.33,7.15,15.71,10.88,5.95-3.74,12.09-7.6,18.71-11.76,1.47,2.02,2.84,3.9,4.52,6.21-6.01,3.89-11.64,7.54-17.4,11.26,2.49,5.75,4.92,11.36,7.62,17.6h18.5c-1.16,3.49-1.98,5.98-2.8,8.46h-27.26Z"/></svg>