<?xml version="1.0" encoding="UTF-8"?><svg id="Ebene_1" xmlns="http://www.w3.org/2000/svg" viewBox="0 0 75 75"><defs><style>.cls-1{fill:#ff0101;}.cls-1,.cls-2{stroke-width:0px;}.cls-2{fill:#fff;}</style></defs><rect class="cls-2" width="75" height="75"/><path class="cls-1" d="m0,75V0h75v75H0ZM72.22,2.86H2.9v69.36c23.13-.06,46.22-.13,69.32-.19V2.86Z"/><path class="cls-1" d="m20.69,16.83c5.99,4.64,13.33,2.65,20.05,1.09.07.21.14.39.22.63-3.87,1.69-7.73,3.38-11.63,5.08,6.16,5.45,15.01,6.14,22.75,4.27,0-.05.02-.11.02-.16-1.7-1.85-4.4-3.17-5.6-5.28.05-.03.09-.05.14-.08,3.91.87,8.28,4.3,12.2,2.02-1.1-1.27-2.2-2.55-3.3-3.82.01-.02.02-.04.03-.07,4.82,2.27,10.37,1.41,14.83-1.31.12.16.23.3.31.42-3.86,3.78-8.16,7.12-8.76,12.86-.61-1.49-1.2-2.92-1.79-4.35-4.71,2.02-1.57,8.8-4.05,11.52-.6-2.31-1.2-4.62-1.8-6.97-2.23,1.25-4.5,4.24-4.31,6.69,4.64,3.6,9.36,7.04,13.91,10.76-1.88-.21-3.77-.41-5.7-.63-.1,1.27-.19,2.5-.29,3.8-1.22-.86-2.39-1.68-3.55-2.5-.75.71-1.48,1.41-2.25,2.14-1.45-1.41-2.93-2.86-4.46-4.35-.52,2.08-1.02,4.08-1.53,6.11h-.65c.23-5.72,1.07-8.47-4.06-12.17-4.03,2.96-8.06,5.92-12.07,8.87-.49-.49-.96-.96-1.45-1.45.66-.9,1.34-1.81,2.07-2.8-1.8-.12-5.15,1.56-5.09-1.22,1.27-1.22,3.13-2.11,4.61-3.25-.75-.68-1.49-1.35-2.27-2.05,2.68-1.39,5.31-2.75,8-4.15-3.26-3.21-6.47-6.38-9.67-9.54-2.03,4.66-4.1,9.39-6.17,14.15-.18-.12-.32-.21-.56-.38,1.91-6.85,1.8-13.69-.63-20.48-1.48,2.87-2.98,5.75-4.48,8.66-.18-.12-.34-.21-.51-.32.87-4.52,3.86-10.18-.16-13.98-1.2,1.92-2.39,3.81-3.6,5.74-.23-.11-.43-.2-.61-.29,2.8-5.39-.59-10.33-3.93-14.52.09-.13.19-.27.25-.36,4.89,4.38,8.18,4.29,14.08,4.25,0,.05-.02.1-.02.14-1.5.89-3,1.77-4.48,2.65,3.15,3.41,9.09-.53,12.32.66-2.09,1.31-4.19,2.63-6.34,3.97Zm1.96,4.21s.05.05.07.07c0-.02,0-.04.01-.07-.03,0-.06,0-.1,0-.08-.05-.15-.14-.2-.21.07.05.12.15.2.2Zm35.28,6.3s-.05-.06-.08-.1c-9,4.56-18,9.12-27.04,13.7.66.7,1.29,1.36,1.94,2.05-1.04.67-2.04,1.33-3.04,1.98,3.5.25,5.9-2.8,8.74-4.4,6.48-4.42,12.99-8.81,19.47-13.24Zm-5.88,22.95c.74-.85,1.33-1.53,1.92-2.21.72.48,1.41.94,2.13,1.41.07-.72.14-1.37.21-2.05h.9c-2.69-2.04-5.3-4.01-7.9-5.98-1.93,4.52-.56,5.71,2.74,8.83Zm-29.2-29.17s-.05.04-.07.07c4.52,4.54,9.15,8.98,13.69,13.51.97,1.26,2.17-.26,3.32-.59-5.69-4.36-11.32-8.68-16.94-12.99Zm22.78,22.65v-4.56c-.89.71-1.73,1.38-2.59,2.07.87.83,1.69,1.63,2.59,2.49Zm12.38-16.56s-.01.04.01.06c0-.02.01-.04.02-.06-.01,0-.02,0-.03,0Z"/><path class="cls-1" d="m16.28,46.68c1.33.96,2.59,1.88,3.89,2.83.99-1.36,1.96-2.7,2.99-4.12.66,2.03,1.29,4,1.95,6.02.65-.36,1.27-.71,1.95-1.09.14,4.15,1.54,8.83.98,12.7-3.75,1.5-8.38,2.2-11.85-.33-.61-5.08.21-10.67.09-16Zm2.13,4.09c.59,5.07-3.32,13.4,5.02,11.44.47-4.26.9-8.39-1.08-12.35-.64.81-1.24,1.57-1.85,2.34-.69-.47-1.36-.93-2.1-1.43Z"/><path class="cls-1" d="m62.43,57.59c.78-.32,1.53-.63,2.33-.96.5,3.42.98,6.8,1.48,10.21-15.69,3.66-14.21.67-13.54-13.02,4.4,2.56,4.17,2.53,7.65-1.14.7,1.65,1.39,3.27,2.09,4.9Zm-7.84,8.15c1.89.58,5.44,1.83,6.71-.02,0-3.29.02-6.46-1.76-9.37-1.8,1.88-2.4,2.04-4.6.6-.11,2.94-.23,5.82-.34,8.79Z"/><path class="cls-2" d="m45.63,43.76c-.9-.86-1.72-1.66-2.59-2.49.86-.69,1.7-1.36,2.59-2.07v4.56Z"/></svg>