<?xml version="1.0" encoding="UTF-8"?><svg id="Ebene_1" xmlns="http://www.w3.org/2000/svg" viewBox="0 0 75 75"><defs><style>.cls-1{fill:#ff0101;}.cls-1,.cls-2{stroke-width:0px;}.cls-2{fill:#fff;}</style></defs><rect class="cls-2" width="74.65" height="75"/><path class="cls-1" d="m69.14,56.91c.12.18.2.31.36.56.23-1.96.44-3.81.66-5.75-14.66,11.83-19.64-7.49-33.39,2.72-12.17,5.59-16.46-10.63-30.01,1.3-.42-.66-.86-1.35-1.33-2.09,17.32-13.74,19.53,6.76,34.26-3.68,10.94-5.81,19.37,10.5,30.16-.9.18.14.38.31.64.52.2-1.88.4-3.7.6-5.61-14.25,10.36-19.68-8.03-34.02,2.51-11.51,4.06-15.82-10.47-28.86.92-.1-.16-.18-.3-.27-.44-.04.02-.09.03-.13.05.29,1.11.58,2.22.89,3.38-.98.22-1.94.43-2.95.66-1.87-7.02-3.73-14.01-5.61-21.06.97-.27,1.9-.53,2.86-.79,1.42,5.23,2.82,10.41,4.24,15.66,18.77-12.97,17.23,7.69,36.93-4.26,7.08-2.02,12.5,5.88,19.54,3.96,5.68-1.45,8.64-3.83,8.18-9.98,1.03.11,2.04.22,3.09.33-1.3,12.83-2.6,25.63-3.9,38.45-12.32-1.95-24.6-3.89-36.93-5.84.17-1.06.34-2.07.52-3.15,11.21,1.84,22.4,3.67,33.68,5.52.33-3.08.66-6.14.99-9.28-13.16,10.13-18.13-4.93-29.14.12-3.82,2.2-7.94,4.59-12.45,2.9-4.3-1.44-8.24-5.45-13.06-3.81-2.6.66-4.95,1.88-7.18,3.33-.36,1.44.77,3.17,1,4.68,5.81,1.92,12.35,2.55,18.38,4.12-.22,1-.44,1.98-.66,2.98-6.61-1.51-13.16-2.97-19.75-4.5-1.86-3.57-2.27-8.25-3.63-12.27,1.03-.27,2.03-.53,3.07-.81.27,1.07.53,2.11.8,3.16,13.88-10.04,18.65,6.63,31.13-1.36,10.8-7.8,21.07,10.13,31.27-2.25ZM7.74,46.63s.03,0,.05,0c0-.05,0-.1-.01-.15-.01,0-.03,0-.04,0v.15Zm.12.08c-.04.07-.07.11-.06.11.03.03.07.06.1.09-.01-.05-.02-.11-.04-.2Z"/><path class="cls-1" d="m73.03,25.9c-.96-.11-1.87-.21-2.86-.32.31-6.2.63-12.39.94-18.69-5.71,1.82-11.36,3.61-17.06,5.42-.48-.89-.96-1.77-1.47-2.69,7.32-2.32,14.6-4.63,21.95-6.96-.51,7.79-1.01,15.48-1.51,23.24Z"/><path class="cls-1" d="m5.76,25.44c-.96.05-1.89.1-2.88.15-.33-7.48-.65-14.94-.98-22.46C8.85,2.12,15.76,1.12,22.72.11c.17.94.34,1.83.52,2.78-6.09.91-12.15,1.82-18.28,2.74.27,6.59.53,13.16.8,19.8Z"/><path class="cls-1" d="m51.77,4.75v2.96h-29.83v-2.96h29.83Z"/></svg>