<?xml version="1.0" encoding="UTF-8"?><svg id="Ebene_1" xmlns="http://www.w3.org/2000/svg" viewBox="0 0 75.09 75"><defs><style>.cls-1{fill:#ff0101;}.cls-1,.cls-2,.cls-3{stroke-width:0px;}.cls-2{fill:red;}.cls-3{fill:#fff;}</style></defs><rect class="cls-3" y=".09" width="74.97" height="74.87"/><path class="cls-2" d="m.09,0c.21,0,.42.02.63.02,24.58,0,49.16,0,73.74,0,.21,0,.42,0,.63.01,0,.18,0,.35,0,.53,0,24.61,0,49.23,0,73.84,0,.19,0,.38,0,.58-.16,0-.32.02-.48.02-24.67,0-49.34,0-74.01,0-.16,0-.32-.01-.48-.02,0-.24-.01-.48-.01-.72,0-24.75,0-49.5,0-74.25v-.02Zm57.43,2.71c-.14,0-.29-.02-.43-.02-17.89,0-35.77,0-53.66,0-.15,0-.31,0-.45,0v69.26h69.35c0-.18,0-.34,0-.5,0-14.44,0-28.87-.01-43.31,0-.26-.1-.57-.26-.78-4.17-5.33-8.35-10.65-12.52-15.97-.69-.88-1.38-1.75-2.09-2.66-3.23,4.14-6.42,8.23-9.63,12.35-1-.58-1.97-1.14-2.96-1.72.09-.12.14-.19.18-.25,3.16-4.04,6.32-8.08,9.48-12.12,1.06-1.35,2.1-2.71,3.14-4.07.16.12.35.22.47.37,4.15,5.5,8.28,11.01,12.42,16.52.56.75,1.13,1.49,1.75,2.31V2.68c-.14,0-.25,0-.36,0-4.71,0-9.42,0-14.13,0-.1,0-.19.02-.29.02Z"/><path class="cls-2" d="m31.86,33.57c2.07.23,3.67,1.2,4.7,3.01.58,1.03.81,2.18.98,3.34.5,3.3.38,6.61.13,9.91-.13,1.7-.32,3.41-.55,5.1-.25,1.87-.87,3.63-1.79,5.28-1.1,1.98-2.52,3.7-4.35,5.06-1.91,1.41-4.05,2.28-6.43,2.43-3.73.25-7.47.52-11.21.63-2.19.06-4.4-.14-6.5-.9-2.05-.75-3.06-2.28-3.27-4.37-.2-2.03.16-4.02.72-5.96.37-1.28.81-2.56,1.36-3.77,1.13-2.46,2.81-4.57,4.88-6.29,2.98-2.46,6.09-4.76,9.13-7.15,1.74-1.37,3.45-2.77,5.15-4.18,1.73-1.44,3.71-2.16,5.97-2.13.29,0,.58,0,.87-.01.06,0,.13,0,.19.01Zm-16.78,25.02c1.7-.08,3.89-.52,6-1.27,2.98-1.06,4.68-3.29,5.34-6.29.55-2.54.94-5.13,1.43-7.68.15-.76.35-1.53.65-2.23.26-.61.75-1.12,1.05-1.71.26-.52.48-1.08.58-1.65.12-.66-.22-.87-.81-.51-.86.52-1.71,1.07-2.51,1.68-2.42,1.85-4.83,3.71-7.21,5.61-2.39,1.91-4.76,3.85-7.09,5.84-1.09.93-2.12,1.96-3.05,3.05-.94,1.09-1,2.09-.25,3.04.43.55.99,1.05,1.6,1.41,1.14.67,2.44.74,4.27.71Z"/><path class="cls-1" d="m58.11,39c-.85.67-1.68,1.32-2.54,2-5.53-7-11.04-13.97-16.58-20.99-3.24,4.13-6.45,8.23-9.68,12.35-.97-.59-1.93-1.16-2.93-1.76,4.3-5.49,8.56-10.95,12.89-16.49,6.29,8.31,12.54,16.58,18.84,24.9Z"/><path class="cls-2" d="m36.78,62.81c.13,0,.26-.02.38-.02,9.49,0,18.98,0,28.47,0,.13,0,.26.01.38.02l.08.09v3.8h-29.4v-3.8s.05-.06.08-.09Z"/></svg>