<?xml version="1.0" encoding="UTF-8"?><svg id="Ebene_1" xmlns="http://www.w3.org/2000/svg" viewBox="0 0 75 75"><defs><style>.cls-1{fill:red;}.cls-1,.cls-2{stroke-width:0px;}.cls-2{fill:#fff;}</style></defs><rect class="cls-2" width="74.89" height="74.91"/><path class="cls-1" d="m.07,75V.05h74.93v74.95H.07ZM2.78,2.79v69.21h69.17v-.41c0-14.58,0-29.15-.01-43.73,0-.25-.11-.54-.26-.73-4.08-5.24-8.17-10.46-12.26-15.69-.68-.87-1.36-1.74-2.07-2.65-3.24,4.14-6.45,8.25-9.66,12.36-.99-.58-1.96-1.14-2.95-1.72,4.32-5.54,8.6-11.02,12.91-16.54,4.77,6.35,9.5,12.64,14.29,19.01V2.79H2.78Z"/><path class="cls-1" d="m30.41,62.29c0,.84.05,1.74-.01,2.63-.06.77-.15,1.57-.39,2.3-.56,1.71-1.91,2.48-3.6,2.77-2.83.49-5.42-.29-7.94-1.46-.19-.09-.38-.17-.55-.25-.42.58-.78,1.19-1.24,1.71-1.85,2.09-4.52,2.52-6.94,1.08-1.67-1-2.99-2.36-3.65-4.24-.47-1.33-.32-2.66.19-3.94.41-1.04.93-2.03,1.37-2.98-.7-.74-1.46-1.45-2.11-2.25-.82-1.01-1.22-2.21-.96-3.5.26-1.31.65-2.6,1-3.89.03-.12.23-.24.36-.26,1.4-.23,2.81-.44,4.21-.65.36-.05.4-.32.42-.6.1-1.04.19-2.07.29-3.11.15-1.54.45-1.89,2.13-2.01,1.45-.11,2.93.1,4.4.2.56.04,1.11.16,1.66.26.23.04.32,0,.41-.26,1.3-3.77,3.56-6.74,7.23-8.49,1.7-.81,3.47-.97,5.27-.31,1.03.38,1.79,1.11,2.31,2.07.72,1.31.95,2.74,1.01,4.21.02.49.02.99,0,1.49-.01.29.08.45.35.6,1.13.61,2.19,1.32,2.99,2.37,1.57,2.06,1.06,4.17-.56,5.78-.74.73-1.69,1.25-2.53,1.88-.14.1-.25.27-.3.44-.35,1.21-.45,2.45-.42,3.7.02.67,0,1.35,0,2.02,0,1.62-.92,2.61-2.54,2.71-.59.03-1.18,0-1.84,0Zm0-17c.22-.32.43-.6.63-.89.92-1.37,1.37-2.83.75-4.45-.47-1.24-1.19-1.83-2.57-1.59-.5.08-.99.25-1.46.44-2.09.85-3.66,2.28-4.37,4.44-.48,1.47-.73,3.01-1.06,4.52-.15.68-.26,1.38-.4,2.12-.3-.14-.56-.25-.81-.38-1.23-.63-2.33-1.51-3.74-1.81-.96-.2-1.92-.3-2.89-.21.05,2.02-.42,3.93-.85,5.86-.21-.01-.37-.03-.53-.03-1.15-.06-2.3-.19-3.45-.15-1.34.05-2,1.31-1.28,2.44.39.61.93,1.14,1.47,1.63,1.09.99,1.68,2.11,1.13,3.58-.39,1.03-.85,2.03-1.26,3.05-.13.32-.32.68-.28,1,.17,1.37.87,2.65,2.53,2.89.99.14,1.89,0,2.49-.9.27-.41.48-.86.74-1.28.5-.8.99-1.59,1.52-2.37.22-.33.53-.41.89-.11.33.27.72.48,1.08.72,1.33.88,2.64,1.79,4,2.64.82.51,1.74.71,2.71.39.65-.21,1.1-.61,1.29-1.29.23-.8.17-1.57-.29-2.25-.8-1.19-1.66-2.35-2.5-3.52-.39-.55-.8-1.1-.95-1.81.27,0,.5-.02.72,0,2.45.26,4.89.24,7.33-.12.3-.04.45-.16.56-.42.25-.62.1-1.23-.07-1.83-.31-1.12-.68-2.24-.89-3.38-.21-1.11.09-1.4,1.2-1.61.91-.17,1.83-.33,2.72-.57.87-.23,1.39-.9,1.4-1.68.02-.86-.62-1.15-1.26-1.36-.62-.21-1.28-.29-1.91-.47-.86-.24-1.75-.43-2.36-1.24Z"/><path class="cls-1" d="m57.96,39.09c-.92.7-1.82,1.4-2.75,2.11-5.43-7.03-10.85-14.05-16.31-21.11-3.22,4.13-6.42,8.23-9.64,12.35-.97-.59-1.93-1.17-2.91-1.77,4.29-5.51,8.55-10.98,12.83-16.48,6.27,8.31,12.5,16.58,18.77,24.9Z"/><path class="cls-1" d="m65.91,66.77h-29.27v-3.89h29.27v3.89Z"/></svg>