<?xml version="1.0" encoding="UTF-8"?><svg id="Ebene_1" xmlns="http://www.w3.org/2000/svg" viewBox="0 0 192.52 188.84"><defs><style>.cls-1,.cls-2{stroke-width:7px;}.cls-1,.cls-2,.cls-3{stroke:red;stroke-miterlimit:10;}.cls-1,.cls-4{fill:#fff;}.cls-2{fill:none;}.cls-4{stroke-width:0px;}.cls-3{fill:red;stroke-width:.5px;}</style></defs><rect class="cls-4" width="192.52" height="188.84"/><line class="cls-1" x1="4.31" y1="74.63" x2="18.63" y2="129.3"/><line class="cls-1" x1="55.07" y1="15.38" x2="131.57" y2="15.1"/><polyline class="cls-2" points="133.58 27.81 188.31 7.36 182.26 63.34"/><polyline class="cls-2" points="185.7 87.99 177.61 181.45 85.79 166.55"/><polyline class="cls-2" points="67.18 184.77 18.73 174.88 10.4 146.57"/><polyline class="cls-2" points="10.6 63.93 7.97 11.98 57.52 3.67"/><line class="cls-1" x1="29.69" y1="68.58" x2="97.75" y2="33.71"/><line class="cls-1" x1="43.73" y1="157.15" x2="44.43" y2="60.97"/><line class="cls-1" x1="42.64" y1="153.89" x2="115.31" y2="153.89"/><line class="cls-1" x1="57.44" y1="103.07" x2="89.23" y2="103.07"/><line class="cls-1" x1="60.5" y1="101.4" x2="59.17" y2="156.05"/><line class="cls-1" x1="86.27" y1="103.84" x2="85.64" y2="151.59"/><path class="cls-3" d="m132.1,109.27c-.17,4.33-2.84,14.7-4.92,19.08.37,2.51,2.17,6.06-1.4,6.87-8.08-.24-8,10.39-15.45,9.92-1.67,5.45-2.64,3.69.7,6.1,2.3,3.3,4.81,7.38,9.13,7.63,4.36,1.57,1.15,6.18,6.32,6.87,7.37-1.01,14.89-1.01,20.37-4.58,16.97-1.6,5.58-20.86,7.03-32.05-6.24-1.5-6.44-6.12-9.13-10.68-3.22-1.6-10.74-8.91-12.64-9.16Z"/><line class="cls-1" x1="94.08" y1="33.42" x2="120.75" y2="53.27"/><path class="cls-2" d="m115.71,55.71c.23,2.03.39,4.08.7,6.1.16,1.03-3.75,4.98-3.64,6.02,1.48,13.7,3.76,2.75,6.45,11.52.57,1.86.75,3.1,2.11,4.58,2.01,2.19,1.93,1.05,4.21,2.29.76.41,1.41,1.02,2.11,1.53l-1.41,4.58c-.23.76-.52,1.51-.7,2.29l-.7,3.05c.23,2.54-.04,5.2.7,7.63.27.87,1.29,1.3,2.11,1.53,2.06.56,4.21.51,6.32.76.23.76.57,1.5.7,2.29,1.04,6.2.77,10.95,1.4,17.55.1,1.04.49,2.03.7,3.05.26,1.27.57,2.53.7,3.81.1,1.01,0,2.03,0,3.05"/></svg>