<?xml version="1.0" encoding="UTF-8"?><svg id="Ebene_1" xmlns="http://www.w3.org/2000/svg" viewBox="0 0 78.4 78.4"><defs><style>.cls-1{stroke-width:2.13px;}.cls-1,.cls-2{fill:#fff;}.cls-1,.cls-3{stroke:red;stroke-miterlimit:10;}.cls-4{fill:#fe0101;}.cls-3{fill:none;stroke-width:3.4px;}</style></defs><rect class="cls-2" x="1.73" y="2.65" width="74.95" height="73.11"/><polygon class="cls-3" points="1.7 1.7 76.7 1.7 76.7 76.7 1.7 76.7 1.7 1.7 1.7 1.7"/><path class="cls-4" d="m15.77,41.58c-1.05-.03-3.71-.1-6.15-1.79-1.24-.86-2.3-2.04-3.13-3.55-2.54-4.66-.51-10.33,4.42-12.57,1-.46,2.14-.63,3.18-1.02.31-.11.72-.55.71-.81-.28-5.71,6.35-11.65,14.28-8.86.99.35,1.49.34,2.21-.55,3.85-4.71,9.07-6.12,14.89-5.75,3.8.24,7.25,1.51,10.14,4.08,1.83,1.63,3.18,3.6,3.56,6.08.13.84.5,1.08,1.29,1.19,4.14.59,7.71,2.3,10.37,5.61,3.35,4.17,2.72,10.07-1.44,13.79-.96.86-1.98,1.58-3.04,2.16-3.85,2.12-7.63,2.12-8.97,2.13-25.96.37-31.42.19-42.33-.15Z"/><line class="cls-1" x1="16.97" y1="47.76" x2="12.56" y2="53.36"/><line class="cls-1" x1="25.89" y1="47.76" x2="21.48" y2="53.36"/><line class="cls-1" x1="16.97" y1="58.78" x2="12.56" y2="64.39"/><line class="cls-1" x1="25.89" y1="56.02" x2="21.48" y2="61.63"/><line class="cls-1" x1="35.33" y1="52.77" x2="30.92" y2="58.37"/><line class="cls-1" x1="32.76" y1="45.5" x2="28.34" y2="51.11"/><line class="cls-1" x1="45.46" y1="46.5" x2="41.05" y2="52.11"/><line class="cls-1" x1="49.92" y1="49.84" x2="45.51" y2="55.45"/><line class="cls-1" x1="39.71" y1="58.78" x2="35.3" y2="64.39"/><line class="cls-1" x1="49.92" y1="58.11" x2="45.51" y2="63.72"/><line class="cls-1" x1="59.36" y1="54.85" x2="54.95" y2="60.46"/><line class="cls-1" x1="59.36" y1="45.5" x2="54.95" y2="51.11"/><line class="cls-1" x1="28.29" y1="61.62" x2="23.88" y2="67.23"/><line class="cls-1" x1="32.76" y1="67.22" x2="28.34" y2="72.82"/><line class="cls-1" x1="43.05" y1="67.22" x2="38.64" y2="72.82"/><line class="cls-1" x1="54.3" y1="66.55" x2="49.88" y2="72.15"/><line class="cls-1" x1="67" y1="52.18" x2="62.58" y2="57.79"/><line class="cls-1" x1="64.85" y1="61.79" x2="60.44" y2="67.39"/></svg>