<?xml version="1.0" encoding="UTF-8"?><svg id="Ebene_1" xmlns="http://www.w3.org/2000/svg" viewBox="0 0 75 75.04"><defs><style>.cls-1{fill:red;}.cls-1,.cls-2{stroke-width:0px;}.cls-2{fill:#fff;}</style></defs><rect class="cls-2" x=".05" y=".24" width="74.8" height="74.8"/><path class="cls-1" d="m37.5,74.9c-12.31,0-24.61,0-36.92.01-.46,0-.58-.1-.58-.58C.01,49.76.01,25.18,0,.6,0,.11.12,0,.61,0c24.59.01,49.19.01,73.78,0,.48,0,.61.1.61.6-.01,24.58-.01,49.16,0,73.73,0,.47-.12.58-.58.58-12.31-.01-24.61-.01-36.92-.01Zm7.28-26.53v-.02s0,.03,0,.03c-.03,0-.07-.01-.1-.02,0,.03,0,.07,0,.1-.05,0-.11-.02-.16,0-3.43,1.2-6.94,2.08-10.5,2.79-.85.17-1.72.48-2.48.9-2.07,1.15-3.91,2.63-5.52,4.37-2.17,2.34-4.26,4.76-6.39,7.14-.07.08-.15.16-.23.24.02-.11.03-.22.07-.32.53-1.35,1.05-2.7,1.59-4.05.74-1.82,1.42-3.67,2.25-5.45.91-1.94,1.97-3.81,2.96-5.71,0-.04.01-.08.02-.12-.03.01-.07.03-.1.04-1.02.63-2.04,1.24-3.05,1.88-3.96,2.52-7.92,5.05-11.87,7.59-1,.65-1.91,1.46-2.95,2.02-1.07.57-1.89,1.37-2.69,2.23-.83.9-1.64,1.83-2.43,2.76-.15.17-.27.44-.27.66-.02,1.97,0,3.95-.02,5.92,0,.44.12.52.54.52,12.5-.01,25,0,37.5-.02.33,0,.69-.05.99-.18,2.48-1.05,4.68-2.51,6.55-4.47,2.31-2.42,3.97-5.23,5-8.41.59-1.82,1.15-3.66,1.62-5.52.3-1.18.45-2.4.63-3.61.03-.18-.14-.38-.22-.58-.2.1-.48.15-.6.32-.45.61-.92,1.22-1.24,1.89-.93,1.92-2.23,3.49-3.97,4.73-2.58,1.85-5.35,3.29-8.41,4.16-1.33.38-2.69.56-4.07.39-.7-.09-.7-.1-.33-.72,2.36-3.98,4.87-7.85,7.79-11.44.04-.02.08-.05.11-.07ZM37.5,2.7c-11.34,0-22.67,0-34.01-.01-.51,0-.59.15-.59.61.01,13.1.01,26.2.01,39.29,0,7.08,0,14.17,0,21.25,0,.13.01.26.02.38.07-.11.15-.22.2-.34,1.15-2.45,2.2-4.96,3.47-7.35,1.73-3.25,3.84-6.27,6.29-9.04,2.93-3.32,6.02-6.42,9.95-8.59,1.89-1.04,3.7-2.23,5.57-3.32,1.88-1.1,3.6-2.38,5.03-4.04,1.52-1.76,2.68-3.7,3.27-5.96.32-1.23.5-2.47.44-3.74,0-.1.04-.2.06-.3.07.08.17.15.22.24.27.48.56.95.77,1.45.85,1.96,1.13,4.03,1.13,6.14,0,2.33-.18,4.65-.64,6.93-.08.42.05.49.42.51,1.31.07,2.44-.41,3.5-1.09,1.87-1.18,3.06-2.94,3.98-4.89,1.37-2.9,2.09-5.99,2.46-9.16.13-1.08.2-2.19-.24-3.25-.1-.25.05-.32.24-.35.62-.09,1.14.13,1.6.52,1,.85,1.71,1.93,2.22,3.13.7,1.64,1.43,3.28,2,4.97.67,2.01,1.19,4.08,1.77,6.13.07.24.15.24.32.13.56-.38,1.16-.72,1.67-1.15,1.37-1.16,2.41-2.6,3.28-4.16,1.59-2.85,2.87-5.81,3.08-9.13.01-.17.05-.34.07-.51.15.11.32.2.46.33,2.15,2.08,3.45,4.7,4.5,7.43,1.09,2.8,1.59,5.73,1.79,8.73.17,2.64.06,5.27-.27,7.88-.4,3.1-1.01,6.16-2.06,9.13-.92,2.57-2.08,5-3.63,7.24-2.91,4.22-6.77,7.34-11.38,9.53-3.44,1.64-7.06,2.73-10.81,3.42-.15.03-.29.1-.44.16.15,0,.29.01.44.01,9.27,0,18.53,0,27.8,0,.71,0,.62.09.62-.62,0-22.65,0-45.31.01-67.96,0-.53-.16-.62-.64-.62-11.32.01-22.64.01-33.96.01Z"/></svg>