<?xml version="1.0" encoding="UTF-8"?><svg id="Calque_1" xmlns="http://www.w3.org/2000/svg" viewBox="0 0 75 75"><defs><style>.cls-1{fill:#fe0808;}.cls-1,.cls-2,.cls-3{stroke-width:0px;}.cls-2{fill:#fff;}.cls-3{fill:#fe0707;}</style></defs><rect class="cls-2" width="75" height="75"/><path class="cls-3" d="m23.11,66.71c-.16-2.26-.32-4.51-.49-6.9-1.07.31-2.04.59-3.17.92.24-2.65.46-5.17.7-7.88-3.78,1.4-7.4,2.73-11.09,4.1-.38-.56-.76-1.12-1.2-1.76,2.41-3.56,7.9-6.2,1.06-8.29,6.7-6.3-4.74-10.08-8.92-13.26,7.32-.6,14.36-1.17,21.4-1.74-1.51-1.56-3-3.09-4.74-4.89,3.97-.74,7.54-1.4,11.29-2.1-.19-3.34-.37-6.68-.56-10.11h-1.9v-2.4c.62-.03,1.2-.06,1.89-.09-.2-3.88-.39-7.71-.59-11.6.58-.23,1.12-.44,1.77-.7,7.84,13.02,3.82,12.9,19.82,12.34v2.33c-.27.06-.56.12-.97.21.87,2.99,1.74,5.97,2.64,9.07,2.19-.73,4.3-1.43,6.57-2.19-.32,2.18-.62,4.21-.95,6.45,2.32-1.15,5.69-1.1,7.17-2.95.26-3.69.49-7.37.74-11.21-4.49,1.57-8.88,3.1-13.35,4.67-.34-.71-.67-1.39-1.07-2.22,5.53-1.94,11.01-3.87,16.67-5.86-.2,4.88-.4,9.61-.6,14.56,2.94-.9,5.78-1.76,8.68-2.65.35.6.68,1.19,1.08,1.88-5.51,5.03-11.01,10.07-16.67,15.24,1.84.7,3.55,1.34,5.38,2.03.12-1.53.23-2.93.35-4.41.73.09,1.38.17,2.2.27-.13,1.64-.25,3.23-.38,4.91.72.28,1.41.55,2.2.86-.09.7-.17,1.4-.26,2.14-.71.09-1.36.16-2.13.26.11,1.98-1.06,4.39.12,6.09,1.35,2.33,7.01,4.83,4.78,7.62-1.96-.54-3.96-1.08-6.09-1.67-.36,3.93-.71,7.75-1.07,11.68-8.85-1.47-17.58-2.93-26.42-4.4-1.32,3.24-2.64,6.47-4.06,9.96-1.26-6.2-2.47-12.09-3.74-18.33-1.84,2.9-2.42,10.64-6.1,10.02l.02.02Zm46.54-40.59c-5.46,1.67-10.92,3.34-16.54,5.07.34-2.16.66-4.18,1.01-6.34-1.86.56-3.58,1.08-5.38,1.63-.9-2.89-1.79-5.72-2.74-8.76-1.44,3.35-2.78,6.46-4.18,9.74-4.28-7.58-8.42-14.94-12.57-22.29-.06.02-.13.04-.19.06.34,7.15.68,14.3,1.02,21.45-3.11.59-6.04,1.15-9.13,1.73,1.61,1.81,3.11,3.51,4.76,5.37-6.44.49-12.64.96-19.17,1.46,3.58,2.29,6.84,4.37,10.5,6.71-1.65,1.57-3.12,2.96-4.58,4.36,1.3.61,2.5,1.17,3.81,1.78-1.39,1.77-2.7,3.44-4.24,5.4,3.67-.95,6.65-2.82,10.4-3.29-.25,2.68-.48,5.11-.72,7.64.93-.26,1.68-.46,2.51-.69.21,1.59.41,3.08.65,4.94,1.68-4.24,3.23-8.16,4.9-12.4,1.29,6.22,2.51,12.12,3.79,18.34,2.23-5.4,4.32-10.46,6.46-15.66,1.25,1.38,2.39,2.63,3.72,4.09-.2-2.53-.38-4.76-.57-7.11,7.95,2.3,15.71,4.55,23.79,6.89-3.85-4.06-7.46-7.87-11.13-11.74,2.36-.25,4.65-.49,6.94-.74.02-.07.03-.14.05-.21-2.75-1.1-5.5-2.2-8.37-3.35,5.1-4.79,10.48-9.25,15.45-14.14-.08.02-.17.05-.25.07Zm-8.34,40.49c.31-3.27.61-6.4.91-9.52-5.68-1.59-11.2-3.15-16.82-4.73.3,3.37.59,6.59.91,10.1-2.02-2.22-3.84-4.21-5.72-6.28-.91,2.23-1.76,4.3-2.66,6.49,7.83,1.32,15.51,2.62,23.38,3.95ZM45.08,14.85h-8.06c1.51,2.7,2.96,5.28,4.49,8,1.21-2.72,2.37-5.3,3.57-8Zm17.93,34.3c.1-1.3.17-2.19.25-3.17-1.01.12-1.88.22-2.8.33.83.92,1.58,1.76,2.55,2.84Z"/><path class="cls-1" d="m12.97,29.62c-.84.08-1.54.14-2.42.22-.25-6.25-.5-12.43-.75-18.73,5.4-.86,10.71-1.7,16.1-2.55.15.81.28,1.51.44,2.36-4.72.75-9.36,1.49-14.1,2.24.25,5.5.49,10.92.74,16.45Z"/><path class="cls-1" d="m23.09,66.69c.34.17.67.41,1.04.5,1.64.41,3.28.78,5.05,1.19-.15.77-.28,1.47-.45,2.32-.47-.09-.92-.16-1.36-.27-4.48-1.05-8.96-2.12-13.45-3.14-.64-.15-.9-.42-1.05-1.06-.73-3.03-1.52-6.04-2.32-9.21.74-.23,1.46-.45,2.29-.71.62,2.65,1.24,5.19,1.81,7.75.16.71.45,1.08,1.19,1.23,2.04.42,4.06.95,6.1,1.4.38.08.79.03,1.18.03,0,0-.02-.02-.02-.02Z"/></svg>