<?xml version="1.0" encoding="UTF-8"?><svg id="Ebene_1" xmlns="http://www.w3.org/2000/svg" viewBox="0 0 75 75"><defs><style>.cls-1{fill:#ff0101;}.cls-1,.cls-2{stroke-width:0px;}.cls-2{fill:#fff;}</style></defs><rect class="cls-2" width="75" height="75"/><path class="cls-1" d="m24.46,21.48c2.18-.55,2.1,1.09,3.65,1.73,4.71,2.21-1.17,8.62,3.5,9.33,1.15,1.92-1,3.13-.74,5.11,1.07,1.63,1.53,4.27,3.8,4.9,3.94,4.35,10.64-2.08,9.83,1.5-2.15,1.92-13.61,18.8-12.28,11.1,3.47-3.73,5.36-4.65-.17-7.41-6.33-6.18-14.04-11.1-20.39-16.39-2.82.05,6.27-13.85,7.26-7.67-.23,2.95-1.73,2.16-.27,4.83.41,4.38,8.09,7.07,10.53,2.84-10.39,4.51-13.17-8.87-4.71-9.88Zm-3.79,5.27c-.99,2.32,2.48,4.28,4.82,4.62,4.08-.98,4.84-3.38,2.46-7.12-.95-.43-1.83-.71-2.42-1.73-2.3-.48-5.49,1.47-4.86,4.23Z"/><path class="cls-1" d="m16.57,51.61c.6-2.6-2.15-.7-2.3-2.5-.05-.78.35-1.89-.85-1.71-1.31-.86-3.46-.57-2.98-2.77-.25-1.04,2.62-.2.54-2.93-.83-.35-.74-1.23-1.07-1.85-.85.17-.7-.57-.58-.96,2-1.52.41-1.91,1.03-4.09-1.08-2.51,3.97,1.7,4.89,2.67,4.73,3.61,9.58,7.2,14.37,10.93.86,1.68,2.81,1.19,3.38,2.85-.43,1.26-1.19,2-1.69.4-.22.91-.84,1.94-2,1.38-1.75,4.67-1.41,2.73-5.47,1.29-.14-1.9-2.47-.15-3.06-1.64-1.28-.7-4.56,1.69-4.2-1.07Z"/><path class="cls-1" d="m33.21,64.81c3.34.55,6.55,1.07,9.75,1.6,4.36.72,8.72,1.44,13.08,2.16,3.76.62,7.52,1.24,11.29,1.84.12.02.37-.18.38-.29.43-4.87.83-9.74,1.25-14.61.53-6.23,1.08-12.47,1.61-18.7.03-.4.12-.8.09-1.19-.06-.7.22-.82.76-.72.51.1,1.03.11,1.55.2.08.01.2.22.19.33-.62,7.38-1.25,14.75-1.88,22.13-.45,5.22-.9,10.44-1.37,15.66-.01.13-.28.34-.4.32-7.56-1.22-15.11-2.47-22.66-3.71-4.59-.76-9.18-1.52-13.76-2.3-.13-.02-.32-.3-.31-.45.05-.65.15-1.29.25-1.94.02-.13.13-.25.17-.32Z"/><path class="cls-1" d="m48.38,61.69c-5.52,1.35-8.82-.27-12.51-4.25,2.68-3.64,7.79-12.02,10.91-13.08,1.19.48-1.73,3.99.42,4.57.77.05.69.87.96,1.32.63-.15.73.41,1.03.8,1.41.95,4.43.63,5.24-.75,2.1,1.97-2.03,1.06,2.26,3.98-1.86,2.98-5.09,7.35-8.33,7.42Zm-1.03-1.26c4.63-.4-2.16-4.8-3.5-5.99-2.44-5.69-12.3,8.22,3.5,5.99Z"/><path class="cls-1" d="m71.67,25.33c-.76-.09-1.38-.15-1.99-.26-.1-.02-.25-.24-.24-.35.48-4.61.97-9.21,1.47-13.81.2-1.87.4-3.73.58-5.6,0-.05-.24-.2-.33-.17-3.86,1.45-7.71,2.91-11.56,4.37-2.4.91-4.8,1.8-7.19,2.73-.37.14-.51.07-.58-.33-.05-.25-.15-.48-.22-.72-.42-1.36-.42-1.37.8-1.83,7.2-2.73,14.4-5.45,21.6-8.18.42-.16.42-.05.38.36-.69,6.44-1.37,12.88-2.05,19.32-.15,1.39-.29,2.79-.46,4.18-.02.14-.17.25-.21.31Z"/><path class="cls-1" d="m1.31,6.32c-.03-.73-.09-1.47-.08-2.2,0-.18.22-.49.37-.52,5.04-.88,10.08-1.74,15.12-2.59,1.54-.26,3.07-.53,4.62-.76.11-.02.33.16.35.29.13.67.23,1.35.3,2.03.01.11-.15.32-.26.34-4.68.81-9.37,1.61-14.05,2.4-1.2.2-2.39.39-3.58.62-.12.02-.3.27-.29.4.29,6.21.6,12.42.89,18.63,0,.12-.18.35-.29.37-.43.07-.87.02-1.29.12-.69.17-.87-.07-.91-.84-.27-6.1-.59-12.2-.89-18.29,0,0,0,0,0,0Z"/><path class="cls-1" d="m25.3,74.68c-2.96-.61-5.81-1.19-8.65-1.78-3.51-.73-7.02-1.45-10.53-2.2-.19-.04-.44-.29-.5-.5-1.1-3.7-2.17-7.41-3.23-11.13-.04-.15.15-.43.28-.59.08-.1.27-.09.4-.14,1.54-.52,1.54-.52,2.03,1.19.8,2.79,1.61,5.57,2.43,8.35.05.17.26.38.42.42,5.83,1.22,11.66,2.43,17.49,3.66.13.03.32.33.31.49-.06.65-.19,1.29-.3,1.93-.02.12-.11.23-.15.31Z"/><path class="cls-1" d="m35.4,4.83c4.46,0,8.92,0,13.37.02.14,0,.39.29.39.45.02.73.22,1.73-.13,2.11-.34.37-1.25.12-1.91.11-8.38-.13-16.76-.26-25.14-.41-.12,0-.34-.27-.34-.42-.01-.74-.22-1.73.13-2.16.29-.37,1.24-.09,1.9-.1,3.91,0,7.82,0,11.73,0,0,.13,0,.26,0,.39Z"/><path class="cls-1" d="m37.68,18.1c-.58,0-1.16.05-1.73,0-1.74-.18-2.99.62-3.84,2.26-.05.09-.13.25-.19.25-.96-.09-2.03.04-2.86-.39-.81-.42-1.49-.96-2.45-.85-.74.08-1.51-.08-2.25.04-1.78.28-2.84-1.03-3.72-2.27-.98-1.4-1.54-3.14-2.4-4.66-.65-1.13-1.48-2.13-2.21-3.21-.07-.1-.03-.45.06-.51.28-.19.8-.5.89-.4,1.32,1.53,2.47,3.17,3.17,5.21.59,1.73,1.66,3.2,3.11,4.22.13.09.32.14.48.14,1.04.01,2.08.08,3.12-.01,1.08-.1,1.95.23,2.75,1.02.57.57,1.5.29,2-.32.87-1.07,1.89-1.94,3.28-1.96,1.69-.02,3.38-.04,5.06,0,1.24.03,2.37-.31,3.16-1.33.5-.65.72-1.57,1.06-2.37.09-.21.12-.52.27-.64,1.17-.85,1.15-2.23,1.38-3.53.15-.82.72-.04,1.07-.19.01,0,.2.3.19.45-.04.57-.07,1.16-.23,1.7-.17.6-.46,1.17-.73,1.73-.48.98-1.03,1.92-1.46,2.92-.54,1.25-1.47,2.04-2.58,2.32-1.43.36-2.93.38-4.39.55v-.16Z"/><path class="cls-1" d="m2.19,29.33c.05.12.13.24.16.38,1.51,5.84,3.01,11.67,4.52,17.51.3,1.15.6,2.29.87,3.44.03.11-.1.35-.2.4-.3.14-.63.2-.95.3-1.14.35-1.12.34-1.45-.94C3.42,43.78,1.7,37.14,0,30.48c-.04-.15.11-.49.24-.54.61-.24,1.24-.4,1.94-.62Z"/><path class="cls-1" d="m54.68,49.66c-4.92,0-6.76-1.83-6.28-6.81.73-5.69,6.85-4.37,10.01-1.84,1.67,4.06,2.12,9.02-3.73,8.65Zm-.1-1.03c9.09-.08.18-13.57-4.33-7.3-2.77,3.13.27,7.88,4.33,7.3Z"/><path class="cls-1" d="m37.85,32.04c2.71-.44,4.38,1.66,6.03,3.41,3.02,9.08-7.74,9.64-10.85,3.5-.55-3.4,1.09-7.48,4.83-6.91Zm-3.89,4.71c-.55,3.49,5.95,7.72,8.37,3.73,2.4-.8.23-5.23-1.27-5.97-1.6-3.08-7.49-1.22-7.1,2.24Z"/><path class="cls-1" d="m56.82,57.89c-3.16.18.22-1.7.2-2.98,1.08,1.27.67,1.67-.2,2.98Z"/><path class="cls-1" d="m9.02,27.8c.37.16-.62,2.11-.98,2.63-.87-1.39-.66-1.92.98-2.63Z"/><path class="cls-1" d="m56.85,57.85c.49-.37,1.12-.61,1.49-1.09-.04.79.03.99.64,1.27-.52.78-2.6,1.33-2.13-.17Z"/><path class="cls-1" d="m6.63,41.19c.1-.35.19-.71.29-1.06-.04,1.91.9,1.85,1.37,3.72-.67-.14-1.64-1.69-1.66-2.66Z"/><path class="cls-1" d="m58.67,61.72c-.18-.04-.43-.09-.67-.15.18-.4.27-.83.85-.8.21,0,.52-.46.62-.77.16-.5.33-.9.88-.89.07,0,.13.02.2.03-.05.05-.09.12-.15.14-.41.14-.53.42-.55.91-.01.48-.18.98-.39,1.41-.07.14-.48.08-.8.12Z"/><path class="cls-1" d="m24.92,59.28c-.2-.09-.56-.25-.93-.42.35-.02.7-.06,1.05-.04.42.01.83.07.72-.65,0-.05.33-.26.43-.2.35.2.66.48.99.73,0,0-.03.11-.05.12-.66.14-1.33.28-2.21.45Z"/><path class="cls-1" d="m21.14,58.83c.85.03,1.57.38,2.16,1.05.03.04.04.18.01.19-.5.33-1.96-.26-2.15-.88-.04-.11-.01-.25-.01-.38h0Z"/><path class="cls-1" d="m23.07,58.95c-.12-.18-.31-.36-.34-.57-.02-.12.33-.42.35-.41.26.22.49.49.72.74-.18.06-.36.12-.73.24Z"/><path class="cls-1" d="m21.15,58.82c-.48-.08-.39-1.11-1.14-1,.57-.99,1.12.39,1.14,1Z"/><path class="cls-1" d="m57.43,61.61c.19.06.29.09.39.12-.17.11-.34.22-.51.31-.01,0-.12-.14-.11-.15.07-.11.16-.2.23-.29Z"/><path class="cls-1" d="m24.62,29.68c-2.79,1.1-3.31-5.31-.91-5.21,1.35-.42.65.38,1.49.8,2.51.05,2.96,5.2-.58,4.41Zm.17-1.01c1.93.48,1.59-1.68.38-2.36-1.01-.06-1.19.16-1.47-.8-.65,1.03-.51,3.56,1.09,3.16Z"/><path class="cls-1" d="m56.23,45.1c.08,4.53-6.44,2.48-4.99-1.31.75-2.94,5.17-1.33,4.99,1.31Zm-1.05.08c-.38-2.24-3.36-2.5-3.22.16,1.03.43,3.3,2.5,3.22-.16Z"/><path class="cls-1" d="m35.71,38c-.31-1.67.42-1.79,1.83-2.18.04-1.2.63-.74,1.22-.82.26.73.39,1.32,1.24,1.22.58.21,1.69,2.89.95,3.57-1.8,1.65-5.85.93-5.24-1.79Zm2.75,1.83c1.32-.28.81-1.02,1.84-1.17-.97-.01-.66-.75-.84-1.37-3.04-1.32-3.82,1.15-1,2.54Z"/></svg>