<?xml version="1.0" encoding="UTF-8"?><svg id="Ebene_1" xmlns="http://www.w3.org/2000/svg" viewBox="0 0 75 75"><defs><style>.cls-1{fill:#ff1415;}.cls-1,.cls-2{stroke-width:0px;}.cls-2{fill:#fff;}</style></defs><rect class="cls-2" width="75" height="75"/><path class="cls-1" d="m62.7,24.43c0,.81.03,1.63-.01,2.44-.02.39.12.58.44.75.66.35,1.32.7,1.94,1.12.19.13.38.44.38.67-.01,3.98-.02,7.97-.12,11.95-.03,1.32.27,2.53.68,3.75.27.79-.26,1.38-.58,1.97-.13.23-.74.2-1.14.29-.28.06-.51.13-.26.48.38.53.27,1.1.13,1.67-.58,2.32-.7,4.68-.78,7.05,0,.24-.17.59-.37.69-1.78.93-2.57,2.58-3.26,4.32-.05.14-.26.31-.39.31-.87-.01-1.48.39-2,1.07-.15.2-.51.34-.77.34-1.43.03-2.86,0-4.29.03-.45,0-.77-.11-1.03-.47-.2-.27-.45-.51-.68-.77-.08-.09-.14-.2-.21-.31.12-.02.25-.06.37-.06,2.32-.04,4.65-.07,6.97-.13.25,0,.57-.19.71-.4.46-.66.86-1.37,1.28-2.07.06-.1.12-.19.17-.3.28-.62.1-.9-.56-.84-2.52.23-5.05.45-7.57.7-.2.02-.43.15-.57.3-.46.48-.89.99-1.33,1.49-.06.07-.14.12-.21.18-.04-.09-.09-.17-.11-.26-.21-.88-.39-1.78-.64-2.65-.06-.22-.33-.47-.55-.53-.7-.2-1.43-.3-2.13-.48-.18-.05-.4-.22-.48-.39-.68-1.47-1.32-2.96-1.99-4.44-.08-.19-.26-.37-.44-.47-2.03-1.09-4.24-1.59-6.49-1.93-1.28-.2-2.58-.3-3.87-.43-.09,0-.29.17-.29.25.12,2.21.26,4.41.41,6.62.01.15.19.32.34.41,1.42.99,2.91,1.9,4.26,2.98.63.5,1.03,1.31,1.48,2.01.2.32.42.42.78.43,1.82.07,3.64.17,5.45.26.12,0,.24.06.35.09-.08.1-.16.19-.23.29-.56.72-1.26.98-2.2.86-1.03-.13-2.08-.07-3.12-.11-.17,0-.39-.03-.5-.13-.53-.52-1.18-.56-1.86-.5-.82.07-1.7-.24-2.45.36-.03.03-.22-.05-.24-.11-.16-.48-.43-.34-.74-.17-.27.14-.55.28-.84.34-.36.07-.74.07-.63-.5,0,0-.24-.11-.34-.08-.93.29-1.83.64-2.77.9-1.1.3-2.15.12-3.12-.51-.19-.12-.53-.16-.75-.09-1.37.43-2.74.74-4.2.66-1.09-.07-2.18.02-3.27-.03-.6-.03-1.2-.21-1.81-.28-.28-.03-.57,0-.85.06-.33.06-.64.22-.96.24-.92.06-1.85.03-2.78.1-.89.07-1.75-.03-2.55-.44-.19-.1-.42-.32-.45-.51-.2-1.25-.34-2.51-.53-3.76-.05-.36.05-.51.41-.61.78-.21,1.55-.46,2.32-.73.12-.04.28-.26.27-.39-.07-.97-.17-1.94-.29-2.91-.01-.09-.22-.23-.31-.21-1.08.24-2.15.5-3.22.75-.1.02-.21.01-.31.02.08-.08.15-.17.23-.23,1.08-.78,2.18-1.53,3.24-2.34.31-.24.59-.61.7-.98.42-1.43.85-2.87,1.13-4.33.18-.94.13-1.94.12-2.91,0-.45.12-.8.41-1.14,1.38-1.62,2.72-3.28,4.11-4.88.38-.44.37-.93.46-1.44.07-.35.16-.73.37-1.01,3.19-4.14,6.32-8.33,9.64-12.38,1.85-2.26,3.97-4.3,6.03-6.36.6-.6,1.45-.96,2.2-1.41.13-.08.31-.07.47-.07,6.37,0,12.75,0,19.12,0,.21,0,.47.11.63.26,2.05,1.95,4.09,3.9,6.12,5.88.16.16.26.44.27.66.03.83.01,1.66.01,2.49Zm-.5,6.75c.19-.58-.12-.66-.66-.65-9.36.05-18.72.08-28.08.13-.2,0-.44.09-.59.23-.91.78-1.81,1.59-2.69,2.4-.24.22-.34.21-.44-.11-.14-.45-.34-.88-.49-1.32-.1-.29-.17-.41-.46-.12-2.52,2.49-5.05,4.96-7.57,7.45-.12.12-.2.37-.18.54.13,1.72.3,3.43.43,5.15.03.47.12.5.5.25,3.71-2.42,7.42-4.84,11.14-7.24.17-.11.38-.21.57-.21,5.18-.13,10.36-.25,15.54-.38,4.11-.1,8.22-.19,12.33-.3.13,0,.36-.2.37-.32.11-1.82.2-3.63.29-5.49Zm-12.9,14.02c0-.1,0-.2,0-.3,2.78,0,5.55,0,8.33,0,.33,0,.41-.1.39-.41-.05-1.3-.09-2.6-.1-3.9,0-.34-.11-.44-.45-.44-6.04,0-12.09,0-18.13,0-.32,0-.42.1-.41.42.02,1.06,0,2.11,0,3.17,0,.11-.02.29.04.32.67.39,1.35,1.05,2.05,1.08,2.76.13,5.52.05,8.28.05Zm-14.09-3.65q.02-1-.98-1.2c-.22-.04-.45-.12-.67-.1-.35.03-.76.03-1.04.21-3.48,2.17-6.94,4.38-10.43,6.53-.66.4-1.03.77-.75,1.59.15.44.17.92.23,1.39.05.35.13.49.53.3,2.07-.96,4.15-1.9,6.24-2.83,1.16-.51,2.34-.96,3.04-2.13.33-.55.82-.8,1.47-.85.64-.04,1.28-.2,1.91-.34.13-.03.31-.22.32-.34.07-.74.09-1.49.13-2.24Zm4.26-18.3c-1.92,0-3.83,0-5.75,0-.33,0-.45.08-.46.43-.03,1.35-.07,2.7-.15,4.04-.02.43.14.43.47.39,3.82-.55,7.64-1.09,11.46-1.66.13-.02.31-.22.32-.35.08-.81.11-1.62.18-2.43.04-.36-.09-.43-.42-.42-1.88.01-3.77,0-5.65,0Zm14.63,0c-1.58,0-3.15,0-4.73.01-.13,0-.38.19-.37.28.06.81.15,1.62.27,2.42.02.13.22.31.35.32,3.05.36,6.1.7,9.14,1.05.31.04.43-.02.42-.36-.02-1.1-.02-2.21,0-3.32,0-.32-.09-.41-.41-.41-1.56.02-3.12,0-4.68,0Zm-34.73,21.02s.09,0,.14,0c0-.81,0-1.62,0-2.43,0-.09-.02-.19-.02-.28-.09.05-.19.09-.27.16-1.65,1.42-3.3,2.83-4.94,4.26-.15.13-.29.32-.33.51-.3,1.34-.58,2.69-.86,4.04-.02.1,0,.21,0,.32.09-.04.18-.07.26-.12,1.91-1.19,3.83-2.38,5.73-3.59.14-.09.28-.32.28-.49.03-.79.01-1.59.01-2.39Zm-6.16,9.82c0,.66,0,1.11.01,1.57,0,.05.21.14.22.12.79-1,2.01-1.34,3.06-1.93.23-.13.56-.18.82-.14,1.19.19,1.21.22,1.7-.91.21-.48.42-.99.44-1.5.03-.59-.18-1.18-.24-1.78-.03-.35-.12-.31-.37-.17-1.42.85-2.82,1.74-4.29,2.51-1.04.54-1.74,1.16-1.36,2.24ZM51.87,18.78c-.78,0-1.56.02-2.34,0-.44-.02-.68.03-.51.56.1.32.14.67.17,1.01.03.34.19.41.51.39,1.44-.09,2.88-.15,4.33-.23,1.25-.06,1.22-.06.9-1.26-.1-.38-.27-.48-.63-.46-.81.03-1.62,0-2.43,0Zm-11.32,1.77h1.61c1.48,0,1.47,0,1.45-1.5,0-.32-.09-.41-.41-.4-1.36.05-2.72.08-4.09.1-1.34.02-1.33.02-1.57,1.32-.08.41.05.49.43.48.86-.03,1.72,0,2.58,0Zm-9.55,10.03c-.04-.4-.07-.66-.1-.92-.17-1.79-.35-3.59-.53-5.38-.01-.1-.12-.19-.18-.29-.33.26-.81.33-.79.96.08,1.88.08,3.77.12,5.65,0,.35.05.7.07,1.05.29-.2.59-.38.87-.59.22-.16.4-.36.54-.49Zm16.2,22.27c-.02.73.76,1.56,1.32,1.5.43-.05.99-.13,1.25-.41.72-.77.64-1.22-.1-2q-.93-.97-2.16-.43c-.1.05-.21.19-.22.3-.06.4-.07.81-.09,1.05Zm15.21-10.87c0-.37-.05-.75.01-1.12.12-.69-.23-.74-.75-.63-.11.02-.24,0-.33.06-.1.06-.23.18-.22.27.03,1.04.08,2.07.15,3.11,0,.09.18.25.28.26.79.04.87-.03.87-.82,0-.37,0-.75,0-1.12Zm-35.73-9.99s-.03,0-.04,0c0-.31.06-.63-.02-.91-.04-.14-.42-.35-.51-.29-1.07.67-1.53,1.84-1.27,3.09.01.07.15.18.17.17.52-.3,1.1-.54,1.51-.95.21-.21.12-.73.16-1.1Zm-2.71,25.17c.02.34.03.75.08,1.15.01.09.16.23.24.23.37-.01.75-.05,1.11-.12.09-.02.23-.18.22-.28-.02-.68-.06-1.36-.11-2.04,0-.09-.15-.24-.24-.26-1.29-.19-1.36-.12-1.3,1.15,0,.03,0,.06,0,.16Zm-5.04-16.37c.54.15.61-.12.55-.58-.12-.88-.19-1.77-.29-2.66,0-.09-.04-.18-.07-.27-.08.04-.16.08-.23.13-.76.58-1.22,1.25-.76,2.25.09.19.13.4.14.61.02.43.2.63.66.51Zm8.18,16.33c0,.41-.04.82.02,1.21.02.14.32.26.52.31.07.02.28-.16.3-.26.11-.72.2-1.45.27-2.17.01-.12-.05-.33-.14-.37-.79-.34-.97-.22-.97.6,0,.23,0,.45,0,.68Zm29.13.14c.76-.07,1.42-.14,2.08-.17.55-.02.8-.19.49-.74-.09-.16-.22-.44-.29-.43-.59.1-1.19.18-1.73.41-.28.12-.44.53-.64.82-.01.02.09.11.1.12Zm-40.49-14.96c0-.13,0-.26,0-.39-.02-.28-.04-.56-.06-.84-.24.18-.5.35-.72.55-.1.09-.16.24-.18.37-.07.51-.12,1.03-.15,1.54,0,.07.15.22.23.22.6-.06,1.06-.26.89-1.01-.03-.14,0-.29,0-.44Zm13.77,12.05s-.07,0-.1,0c0,.45-.01.91,0,1.36,0,.14.11.27.16.41.14-.13.39-.24.41-.39.13-.96.18-1.94.3-2.9.05-.4-.09-.52-.43-.38-.15.06-.33.25-.34.39-.04.5-.02,1-.02,1.51Zm-13.04,6.5c.6-.02.76-.15.6-.61-.12-.35-.21-.72-.24-1.08-.04-.49-.37-.48-.68-.4-.09.02-.15.33-.15.5.02.35.06.71.15,1.05.05.19.21.36.32.54Z"/><path class="cls-1" d="m75,35.05c-.39,3.87-.77,7.57-1.14,11.27-.28,2.75-.54,5.5-.81,8.24-.31,3.07-.64,6.14-.95,9.21-.3,3.01-.6,6.01-.89,9.02-.03.36-.09.48-.51.41-6.31-1.01-12.63-2-18.95-3-4.81-.76-9.62-1.52-14.43-2.27-.95-.15-1.89-.3-2.84-.44-.3-.04-.41-.13-.35-.46.14-.75.23-1.51.38-2.26.03-.13.29-.32.41-.3,3.64.56,7.28,1.14,10.92,1.72,4.79.76,9.58,1.53,14.38,2.29,2.6.41,5.19.82,7.79,1.24.31.05.42,0,.45-.34.52-5.3,1.05-10.6,1.58-15.91.54-5.35,1.08-10.7,1.63-16.05.09-.89.17-1.78.29-2.66.01-.11.23-.28.34-.28.83.06,1.65.15,2.47.27.12.02.21.24.24.27Z"/><path class="cls-1" d="m70.27,23.66c.31-5.24.63-10.48.94-15.71,0-.1,0-.19.01-.29.06-1.06.07-1.05-.98-.72-5.3,1.69-10.59,3.37-15.89,5.07-.29.09-.46.06-.61-.24-.33-.67-.69-1.32-1.07-1.96-.2-.33-.08-.41.23-.51,3.61-1.13,7.21-2.26,10.81-3.4,3.43-1.08,6.86-2.16,10.29-3.25.38-.12.5-.1.47.35-.36,5.54-.7,11.09-1.04,16.63-.12,1.9-.22,3.8-.31,5.69-.02.37-.09.52-.5.46-.72-.12-1.45-.17-2.17-.28-.11-.02-.27-.2-.27-.31,0-.5.03-1.01.06-1.51,0,0,0,0,.01,0Z"/><path class="cls-1" d="m22.43,0c.05.06.18.14.21.25.16.76.31,1.53.43,2.29.01.08-.14.27-.23.29-3.56.53-7.13,1.05-10.7,1.57-2.31.34-4.62.69-6.94,1.01-.39.05-.45.2-.44.55.26,6.09.5,12.18.76,18.27.04,1.01.06,1.01-.93,1.11-.52.05-1.04.06-1.55.12-.32.04-.38-.09-.39-.37-.1-2.57-.21-5.13-.32-7.7-.19-4.61-.38-9.22-.59-13.83-.02-.43.05-.6.53-.67,5.27-.74,10.54-1.51,15.81-2.27,1.41-.2,2.83-.41,4.35-.63Z"/><path class="cls-1" d="m26.78,71.94c-.2.97-.38,1.79-.53,2.62-.08.46-.37.21-.55.17-4.08-.91-8.16-1.84-12.24-2.76-2.39-.54-4.78-1.07-7.16-1.64-.2-.05-.45-.3-.51-.51-1.02-3.79-2.01-7.59-3.02-11.38-.08-.31-.04-.42.28-.5.71-.17,1.41-.36,2.11-.58.3-.09.41-.05.49.28.83,3.2,1.68,6.4,2.5,9.6.12.48.32.69.84.79,5.79,1.21,11.58,2.45,17.37,3.69.16.03.3.14.41.2Z"/><path class="cls-1" d="m36.72,7.53c-4.81,0-9.62,0-14.43,0-.37,0-.51-.08-.49-.48.04-.63.04-1.27,0-1.9-.03-.46.08-.59.57-.59,7.93.02,15.86.01,23.79.01,1.69,0,3.38,0,5.07,0,.35,0,.49.06.47.45-.04.63-.04,1.27,0,1.9.03.47-.08.62-.6.62-4.79-.02-9.59-.01-14.38-.01Z"/><path class="cls-1" d="m2.74,29.1c.05.11.12.24.16.37,1.09,4.05,2.17,8.11,3.26,12.17.73,2.72,1.48,5.44,2.23,8.16.1.35.09.51-.33.6-.73.15-1.45.35-2.16.57-.29.09-.39.04-.46-.26C3.65,43.91,1.85,37.11.04,30.31c-.1-.36-.03-.47.32-.56.77-.18,1.53-.42,2.38-.65Z"/></svg>