<?xml version="1.0" encoding="UTF-8"?><svg id="Ebene_1" xmlns="http://www.w3.org/2000/svg" viewBox="0 0 75 75"><defs><style>.cls-1{fill-rule:evenodd;}.cls-1,.cls-2{fill:red;}.cls-1,.cls-2,.cls-3{stroke-width:0px;}.cls-3{fill:#fff;}</style></defs><rect class="cls-3" width="75" height="75"/><path class="cls-2" d="m36.07,37.25c-3.77,4.86-12.9,2.92-13.12-3.53.68-1.9.23-3.85,2.13-5.63,1.32-.12,6.42-5.42,6.72-1.73-1.85.6-7.49,5.05-6.46,4.18-.61,5.04-.71,5.22,2.9,7.3,4.29,2.43,5.84-4.23,7.83-.59Z"/><path class="cls-2" d="m.05.19h74.9v74.62H.05V.19H.05Zm2.9,73.18l-1.45-1.44h72.01l-1.45,1.44V1.63l1.45,1.44H1.5l1.45-1.44v71.74h0Z"/><path class="cls-2" d="m16.39,57.01c8.23,4.64.99,16.15-7.01,11.67-8.17-4.89-1.46-16.65,7.01-11.67Zm-1.31,1.56c-3.55-1.94-7.36.27-7.38,3.88v.28c.09,3.44,4.4,6.17,7.73,4.33,3.19-1.71,3.73-6.45-.35-8.5Z"/><polygon class="cls-2" points="59.63 6.56 59.91 6.4 60.21 6.25 60.52 6.12 60.83 6 61.15 5.91 61.46 5.82 61.78 5.76 62.1 5.72 62.43 5.69 62.75 5.68 63.07 5.7 63.38 5.73 63.7 5.77 64.01 5.83 64.32 5.92 64.63 6.01 64.93 6.13 65.22 6.26 65.52 6.4 65.8 6.57 66.07 6.75 66.34 6.95 66.61 7.15 66.86 7.37 67.11 7.62 67.34 7.87 67.57 8.13 67.79 8.42 67.99 8.71 68.19 9.02 68.38 9.34 68.54 9.65 68.53 9.63 68.69 9.91 68.84 10.21 68.97 10.51 69.09 10.82 69.19 11.14 69.27 11.45 69.33 11.77 69.38 12.08 69.4 12.4 69.41 12.72 69.41 13.04 69.39 13.35 69.35 13.66 69.31 13.97 69.24 14.27 69.15 14.58 69.06 14.88 68.95 15.17 68.82 15.45 68.68 15.73 68.53 16.01 68.36 16.27 68.18 16.54 67.99 16.79 67.79 17.04 67.56 17.28 67.34 17.5 67.1 17.73 66.85 17.94 66.58 18.14 66.31 18.33 66.04 18.5 64.97 16.81 65.22 16.65 65.18 16.68 65.42 16.51 65.38 16.54 65.61 16.37 65.57 16.4 65.79 16.21 65.76 16.24 65.97 16.05 65.94 16.08 66.13 15.88 66.1 15.92 66.28 15.72 66.26 15.75 66.43 15.54 66.4 15.57 66.57 15.35 66.54 15.39 66.69 15.17 66.67 15.21 66.81 14.98 66.79 15.02 66.92 14.78 66.89 14.83 67.01 14.59 66.99 14.63 67.1 14.39 67.08 14.43 67.18 14.18 67.16 14.23 67.24 13.98 67.23 14.03 67.3 13.77 67.29 13.82 67.34 13.57 67.33 13.62 67.37 13.36 67.37 13.41 67.4 13.14 67.4 13.19 67.41 12.93 67.41 12.99 67.41 12.72 67.41 12.77 67.41 12.5 67.41 12.56 67.38 12.29 67.39 12.35 67.35 12.09 67.36 12.14 67.3 11.87 67.32 11.92 67.25 11.65 67.26 11.71 67.18 11.45 67.2 11.5 67.1 11.24 67.12 11.28 67.01 11.02 67.03 11.07 66.91 10.81 66.93 10.86 66.78 10.6 66.62 10.29 66.63 10.32 66.47 10.04 66.49 10.08 66.32 9.8 66.34 9.84 66.16 9.58 66.19 9.62 66 9.38 66.03 9.41 65.83 9.18 65.86 9.21 65.66 8.99 65.69 9.02 65.48 8.82 65.52 8.86 65.3 8.67 65.33 8.69 65.11 8.51 65.15 8.55 64.92 8.38 64.97 8.41 64.73 8.26 64.77 8.29 64.53 8.14 64.58 8.17 64.34 8.05 64.39 8.07 64.14 7.97 64.18 7.98 63.93 7.88 63.99 7.91 63.73 7.82 63.79 7.84 63.54 7.77 63.58 7.78 63.32 7.73 63.38 7.74 63.12 7.71 63.18 7.71 62.92 7.69 62.97 7.69 62.7 7.68 62.76 7.68 62.5 7.69 62.55 7.68 62.29 7.71 62.35 7.7 62.08 7.73 62.13 7.73 61.87 7.78 61.92 7.77 61.66 7.83 61.72 7.81 61.45 7.9 61.51 7.88 61.24 7.98 61.29 7.95 61.04 8.07 61.08 8.05 60.82 8.18 60.87 8.15 60.62 8.29 59.63 6.56 59.63 6.56"/><polygon class="cls-2" points="6.32 59.78 15.44 41.73 21 40.44 23.12 43.3 22.32 42.9 25.58 42.9 28.42 47.19 19.25 65.86 17.46 64.98 26.37 46.83 26.43 47.81 24.2 44.44 25.04 44.89 21.81 44.89 19.78 42.15 20.81 42.53 16.36 43.57 17.02 43.05 8.11 60.68 6.32 59.78 6.32 59.78"/><polygon class="cls-2" points="61.18 7.98 31.9 26.38 32.27 25.13 32.44 25.49 31.67 24.91 33.52 25.18 33.29 25.17 46.09 24.09 37.33 29.77 37.71 28.54 38.76 30.98 38.77 31.32 38.78 31.48 38.79 31.62 38.8 31.74 38.8 31.86 38.81 32 38.81 31.98 38.81 32.13 38.83 32.37 38.81 32.59 38.77 32.77 38.69 33.06 38.6 33.35 38.5 33.62 38.5 33.61 38.41 33.86 38.42 33.84 38.34 34.08 38.35 34.02 38.29 34.25 38.31 34.17 38.29 34.27 38.3 34.21 38.28 34.43 38.2 34.64 38.14 34.77 38.03 34.95 37.9 35.14 37.76 35.33 37.61 35.52 37.46 35.71 37.3 35.9 37.14 36.09 36.98 36.28 36.98 36.27 36.83 36.46 36.84 36.45 36.69 36.63 36.69 36.62 36.56 36.79 36.58 36.77 36.46 36.93 36.49 36.89 36.39 37.03 36.42 36.99 36.35 37.11 36.4 37.01 36.38 37.06 36.4 37 36.38 37.05 34.91 35.86 65.25 16.64 66.32 18.32 33.47 39.13 34.53 36.27 34.6 36.13 34.71 35.94 34.84 35.76 34.98 35.57 35.13 35.39 35.28 35.2 35.44 35 35.6 34.81 35.76 34.62 35.76 34.63 35.91 34.44 35.91 34.44 36.05 34.26 36.04 34.28 36.18 34.11 36.16 34.13 36.28 33.97 36.25 34 36.35 33.86 36.31 33.92 36.38 33.8 36.35 33.86 36.38 33.81 36.34 33.9 36.36 33.85 36.3 34.09 36.31 33.95 36.35 33.77 36.43 33.48 36.52 33.19 36.62 32.93 36.71 32.67 36.7 32.71 36.78 32.47 36.77 32.52 36.83 32.29 36.81 32.38 36.83 32.27 36.82 32.34 36.83 32.23 36.83 32.4 36.81 32.23 36.8 32.08 36.8 31.95 36.79 31.82 36.79 31.7 36.78 31.57 36.79 31.58 36.78 31.44 36.77 31.27 36.85 31.61 35.53 28.55 41.65 24.59 42.28 26.42 33.35 27.17 30.84 26.81 30.09 25.16 60.12 6.29 61.18 7.98 61.18 7.98"/><path class="cls-1" d="m32.2,41.08c5.86,6.6-.29,14.66.46,21.7,2.52,8.7,15.33,8.09,22.41,6.05,16.94-.71,10.12-22.5-4.62-19.23-6.96,1.02-22.48-16.15-18.25-8.52Z"/></svg>