<?xml version="1.0" encoding="UTF-8"?><svg id="Ebene_1" xmlns="http://www.w3.org/2000/svg" viewBox="0 0 75 75"><defs><style>.cls-1{fill:red;}.cls-1,.cls-2{stroke-width:0px;}.cls-2{fill:#fff;}</style></defs><rect class="cls-2" width="75" height="74.95"/><path class="cls-1" d="m70.89,73.39c-1.5-.24-2.94-.46-4.38-.69-3.06-.48-6.12-.96-9.18-1.45-3.56-.56-7.12-1.14-10.67-1.7-4.02-.64-8.04-1.28-12.07-1.89-.43-.07-.56-.16-.45-.62.18-.72.28-1.45.39-2.19.03-.22.09-.29.33-.25,3.88.62,7.76,1.23,11.64,1.84,3.81.6,7.63,1.2,11.44,1.81,3.3.52,6.6,1.04,9.9,1.59.44.07.57-.02.61-.46.3-3.16.61-6.32.93-9.48.3-3.01.62-6.02.92-9.04.34-3.4.68-6.8,1.03-10.19.19-1.88.39-3.75.57-5.63.02-.23.09-.31.33-.28.85.1,1.71.19,2.56.3.08.01.21.18.21.26-.18,1.89-.37,3.78-.57,5.67-.21,2.08-.44,4.17-.65,6.25-.36,3.51-.72,7.02-1.07,10.53-.33,3.27-.65,6.54-.98,9.81-.18,1.8-.35,3.59-.54,5.39-.02.19.05.51-.29.41Z"/><path class="cls-1" d="m27.41,23.16c-.05,2.01-.22,4.03-.3,6.04,0,.2-.13.46-.28.59-3.01,2.51-6.03,5-9.04,7.5-.27.23-.55.35-.92.34-1.46-.02-2.92-.01-4.39,0-.26,0-.41-.01-.4-.35.12-4.66,1.19-9.08,3.5-13.16,2.16-3.83,5.23-6.82,8.93-9.19.41-.26.89-.74,1.23-.66.34.07.52.75.82,1.12.73.9.93,1.9.87,3.05-.09,1.57-.02,3.16-.02,4.73-.04,0,.04,0,0,0Z"/><path class="cls-1" d="m39.42,64.27c-2.27.05-4.51-.23-6.7-.78-2.19-.54-4.29-1.36-6.31-2.34-.25-.12-.5-.23-.76-.33-.29-.11-.31-.24-.14-.5,1-1.62,1.98-3.25,2.97-4.87,1.84-3.02,3.68-6.03,5.5-9.05.2-.34.35-.38.7-.21.52.25,1.07.45,1.63.61.28.08.38.2.43.48.49,2.76.99,5.51,1.5,8.26.04.22.15.46.29.64,1.88,2.46,3.77,4.92,5.66,7.38.07.1.12.21.18.32-.12.03-.25.09-.37.1-1.52.1-3.04.2-4.57.29Z"/><path class="cls-1" d="m52.38,13.96c.11.08.17.13.23.18,2.87,1.88,5.34,4.19,7.46,6.87.89,1.12,1.64,2.36,2.46,3.53.18.26.15.33-.19.39-2.98.47-5.96.95-8.93,1.45-.24.04-.51.21-.67.4-1.59,1.95-3.17,3.92-4.74,5.89-.2.25-.34.46-.54-.02-.17-.41-.44-.79-.65-1.18-.58-1.07-1.55-1.7-2.56-2.3-.26-.15-.31-.27-.15-.55,2.66-4.69,5.31-9.4,7.97-14.1.1-.18.2-.35.31-.54Z"/><path class="cls-1" d="m57.42,37.43c-2.63,0-5.27,0-7.9,0-.38,0-.56-.05-.6-.48-.05-.57-.23-1.13-.33-1.7-.03-.18,0-.42.1-.55,1.74-2.17,3.49-4.32,5.26-6.47.12-.14.34-.25.53-.28,2.48-.39,4.97-.75,7.46-1.13.47-.07.94-.11,1.39-.22.3-.07.39.04.49.28.97,2.35,1.64,4.77,1.92,7.3.1.91.13,1.83.22,2.74.04.4-.08.51-.5.51-2.68-.02-5.36-.01-8.04-.01Z"/><path class="cls-1" d="m44.42,45.68c.08.11.16.22.23.33.84,1.49,1.67,2.98,2.51,4.47,1.83,3.26,3.65,6.52,5.5,9.77.16.29.14.43-.13.61-1.8,1.21-3.8,1.99-5.9,2.52-.14.04-.39-.11-.49-.25-1.56-2.1-3.11-4.2-4.66-6.31-.13-.18-.25-.39-.41-.54-1.2-1.15-1.22-2.72-1.52-4.17-.32-1.49-.57-3-.86-4.5-.04-.22-.1-.4.26-.39,1.87.06,3.58-.45,5.18-1.4.08-.05.17-.09.3-.15Z"/><path class="cls-1" d="m71.1,10.66c.07-1.06.12-2.12.21-3.18.04-.43-.08-.43-.43-.31-4.52,1.45-9.04,2.9-13.56,4.34-1,.32-2.01.63-3,.97-.25.08-.37.05-.5-.19-.36-.69-.73-1.36-1.12-2.03-.17-.29-.13-.38.21-.49,3.45-1.07,6.89-2.16,10.34-3.25,3.65-1.15,7.29-2.29,10.94-3.45.34-.11.37-.02.35.28-.29,4.36-.58,8.71-.86,13.07-.18,2.8-.34,5.6-.52,8.4-.03.41.05.96-.18,1.19-.18.18-.76,0-1.16-.04-.44-.04-.87-.09-1.31-.13-.22-.02-.33-.08-.32-.36.21-3.26.4-6.53.6-9.8.1-1.67.2-3.35.3-5.02,0,0,0,0,0,0Z"/><path class="cls-1" d="m4.08,25.75c-.45,0-1.06.17-1.31-.05-.24-.21-.12-.84-.14-1.28-.2-4.35-.39-8.69-.59-13.04-.11-2.5-.23-4.99-.36-7.48-.02-.36.08-.5.44-.55,4.29-.61,8.58-1.22,12.87-1.83,2.41-.34,4.82-.68,7.23-1.04.32-.05.39.04.43.32.1.67.22,1.33.36,1.99.07.32.05.48-.35.53-1.87.25-3.73.53-5.59.8-3.4.5-6.81,1-10.21,1.5-.55.08-1.09.18-1.64.23-.37.04-.46.19-.45.55.13,2.91.25,5.83.37,8.74.14,3.38.28,6.76.42,10.14.01.29-.05.41-.36.4-.37-.02-.75,0-1.12,0,0,.03,0,.05,0,.08Z"/><path class="cls-1" d="m32.78,37.43c-.08-3.11,2.54-6.15,6.15-6.15,3.49,0,6.23,2.9,6.15,6.35-.07,3.14-2.83,6.08-6.38,5.98-3.12-.09-6.04-2.88-5.92-6.18Z"/><path class="cls-1" d="m26.77,72.11c-.22.97-.42,1.81-.6,2.66-.09.4-.35.15-.49.12-1.88-.41-3.76-.85-5.64-1.28-3.49-.79-6.99-1.58-10.48-2.37-1.09-.25-2.17-.52-3.27-.76-.29-.06-.43-.19-.51-.48-.99-3.78-1.99-7.56-3-11.34-.09-.34-.04-.48.31-.57.69-.16,1.38-.35,2.07-.55.34-.1.44,0,.52.32.82,3.21,1.68,6.41,2.49,9.62.11.43.3.58.72.67,4.55.96,9.1,1.93,13.65,2.9,1.3.28,2.6.57,3.89.87.13.03.24.13.34.19Z"/><path class="cls-1" d="m36.71,7.99c-4.81,0-9.62,0-14.43,0-.42,0-.56-.08-.53-.52.04-.67.04-1.35,0-2.03-.02-.41.13-.52.49-.46.03,0,.06,0,.1,0,9.6,0,19.21,0,28.81-.01.47,0,.61.11.58.58-.04.64-.05,1.29,0,1.93.03.45-.14.51-.54.51-4.83-.01-9.65,0-14.48,0Z"/><path class="cls-1" d="m24.72,37.6c-1.32,0-2.63,0-3.95,0-.11,0-.21-.03-.32-.04.07-.08.14-.17.23-.24,2.61-2.22,5.23-4.45,7.85-6.66.24-.2.35-.4.36-.73.09-3.17.2-6.35.3-9.52,0-.09.03-.18.04-.27.06.06.14.11.18.19,1.61,2.78,3.21,5.55,4.82,8.33.14.24.05.32-.13.45-1.07.73-2.05,1.56-2.85,2.6-1.2,1.56-1.81,3.32-1.98,5.25-.03.36-.12.51-.51.5-1.35-.02-2.7,0-4.05,0,0,.05,0,.1,0,.15Z"/><path class="cls-1" d="m8.48,50.43s-.11.11-.2.13c-.83.23-1.66.43-2.49.67-.34.09-.29-.17-.33-.32-.54-1.99-1.07-3.97-1.6-5.96-1.27-4.75-2.54-9.51-3.82-14.26-.1-.37-.1-.57.35-.65.65-.12,1.29-.31,1.92-.51.38-.13.52-.06.62.34.78,2.97,1.59,5.93,2.39,8.9,1.02,3.76,2.03,7.51,3.05,11.27.03.11.05.22.1.4Z"/></svg>