<?xml version="1.0" encoding="UTF-8"?><svg id="Ebene_1" xmlns="http://www.w3.org/2000/svg" viewBox="0 0 75 75"><defs><style>.cls-1{stroke-width:2.98px;}.cls-1,.cls-2{fill:none;stroke:red;stroke-miterlimit:8;}.cls-3{fill:red;fill-rule:evenodd;}.cls-3,.cls-4{stroke-width:0px;}.cls-4{fill:#fff;}.cls-2{stroke-width:2.99px;}</style></defs><rect class="cls-4" width="75" height="75"/><path class="cls-3" d="m41.12,14.04c7.31.84,12.69,6.09,12.02,11.73-.67,5.64-7.14,9.54-14.45,8.7h0c7.59-1.52,11.81-7.61,9.43-13.6-1.13-2.86-3.65-5.31-7-6.84h0Z"/><path class="cls-3" d="m42.23,41.48c3.59-6.52,10.58-9.65,15.61-6.98,5.03,2.67,6.19,10.12,2.6,16.64h0c1.75-7.5-1.96-13.8-8.3-14.08-3.38-.15-7.01,1.47-9.9,4.43h0Z"/><path class="cls-3" d="m46.28,31.42c1.44-1.76,5.2-2.11,8.77-.17,1.68.91,2.85,2.15,4.35,3.97,2.69,3,2.76,7,1.32,8.77.24-2.61-2.19-7.36-4.6-9.46-2.41-2.09-7.3-3.9-9.84-3.11h0Z"/><path class="cls-3" d="m48.33,36.66c2.3.12,5.06-2.17,5.95-5.72.42-1.68.25-3.21-.14-5.32-.5-3.63-3.68-8.49-5.98-8.61,2.15,1.44,4.31,7.93,4.33,11.21s-1.87,7.23-4.16,8.44h0Z"/><polygon class="cls-3" points="39.68 34.93 52.41 27.63 55.75 33.37 42.5 40.34 39.68 34.93 39.68 34.93 39.68 34.93"/><path class="cls-3" d="m40.69,40.61c.71-.39,1.41-1.32,1.36-2.18-.05-.76-.46-1.48-1.1-1.92-.72-.49-1.61-.55-2.32-.16.84.24,1.67.88,2.01,1.59s.28,1.83.05,2.66h0Z"/><path class="cls-3" d="m38.65,36.35c.04-.62.09-1.24.13-1.86l3.23-.62-.58,2.63-2.78-.14h0Z"/><path class="cls-3" d="m40.67,40.6c.48.25,1.1.6,1.58.85l2.14-2.42-2.25-.72-1.48,2.29h0Z"/><path class="cls-3" d="m13.62,47.92c-2.59-6.76-.29-13.86,5.13-15.86,5.42-2,11.91,1.86,14.5,8.62h0c-4.85-5.93-12.3-6.82-16.64-2.01-2.07,2.3-3.14,5.62-2.99,9.24h0Z"/><path class="cls-3" d="m37.99,34.4c-7.55-.15-13.58-4.82-13.46-10.43.12-5.61,6.33-10.03,13.88-9.88h0c-7.59,1.9-11.61,8.03-8.96,13.69,1.41,3.02,4.54,5.44,8.54,6.61h0Z"/><path class="cls-3" d="m27.01,35.46c-2.26-.45-4.29-3.57-4.17-7.57.06-1.89.64-3.47,1.61-5.61,1.49-3.72,5.08-5.61,7.34-5.16-2.47.99-5.67,5.28-6.47,8.34s-.19,8.15,1.69,10.01h0Z"/><path class="cls-3" d="m30.83,31.28c-.95-2.06-4.28-3.42-7.9-2.57-1.71.4-3.03,1.25-4.76,2.56-3.06,2.1-6.01,7.1-5.06,9.16.32-2.53,5.22-7.39,8.17-8.91s7.41-1.68,9.55-.23h0Z"/><polygon class="cls-3" points="33.21 39.62 20.78 31.85 24.44 26.31 36.83 34.68 33.21 39.62 33.21 39.62 33.21 39.62"/><path class="cls-3" d="m37.9,36.14c-.68-.44-1.84-.63-2.59-.19-.67.39-1.13,1.08-1.23,1.84-.11.85.24,1.66.92,2.1-.17-.84.04-1.86.52-2.48.48-.62,1.53-1.08,2.38-1.26h0Z"/><path class="cls-3" d="m34.97,39.87c-.58.25-1.16.49-1.75.74l-2.04-2.54,2.65-.69,1.14,2.49h0Z"/><path class="cls-3" d="m37.9,36.16c0-.53.04-1.23.05-1.77l-3.18-.76.38,2.29,2.75.24h0Z"/><path class="cls-3" d="m58.03,55.19c-4.62,5.62-12.02,7.28-16.53,3.71-4.5-3.57-4.41-11.02.22-16.63h0c-2.74,7.11.25,13.86,6.68,15.09,3.07.58,6.53-.19,9.63-2.16h0Z"/><path class="cls-3" d="m33.8,41.45c3.7,6.46,2.66,13.93-2.32,16.68-4.98,2.75-12.02-.26-15.72-6.73h0c5.52,5.46,12.94,5.74,16.57.63,1.94-2.73,2.48-6.6,1.47-10.58h0Z"/><path class="cls-3" d="m40.31,50.19c.75,2.14-.96,5.44-4.53,7.37-1.69.91-3.38,1.22-5.75,1.49-4.02.63-7.51-1.45-8.26-3.59,2.12,1.59,7.51,2.12,10.6,1.24s7.25-3.97,7.93-6.51h0Z"/><path class="cls-3" d="m34.69,49.08c-1.33,1.85-.84,5.36,1.75,7.99,1.22,1.24,2.63,1.93,4.66,2.72,3.39,1.52,9.28,1.48,10.61-.37-2.39,1.01-9.13-.67-11.97-2.39-2.84-1.72-5.23-5.41-5.05-7.96h0Z"/><polygon class="cls-3" points="40.81 42.83 40.3 57.29 33.57 57 34.63 42.28 40.81 42.83 40.81 42.83 40.81 42.83"/><path class="cls-3" d="m35.37,40.63c-.04.8.38,1.88,1.15,2.29.68.37,1.52.41,2.24.11.81-.34,1.33-1.04,1.37-1.84-.65.57-1.65.91-2.45.82-.79-.09-1.73-.75-2.32-1.37h0Z"/><path class="cls-3" d="m40.13,41.22c.51.37,1.02.73,1.54,1.1l-1.19,3.02-1.95-1.89,1.61-2.23h0Z"/><path class="cls-3" d="m35.39,40.63c-.47.27-1.1.59-1.58.86l.94,3.07,1.82-1.48-1.19-2.45h0Z"/><path class="cls-3" d="m42.61,52.33l-1.59-3.95c.43.28,4.09-2.4,5.21-4.1,1.12-1.69,1.96-6.17,1.49-6.07l4.55-.15c.37.24.14,5.1-1.48,7.68-.43.69-.89,1.38-1.36,2.04-1.76,2.5-6.34,5.13-6.81,4.55h0Z"/><path class="cls-3" d="m47.21,28.2l-2.7,3.33c.03-.5-4.16-2.28-6.22-2.39-2.05-.11-6.42,1.41-6.11,1.76l-2.4-3.8c.03-.44,4.44-2.66,7.53-2.56.82.02,1.66.07,2.48.14,3.08.26,7.69,2.84,7.41,3.53h0Z"/><path class="cls-3" d="m23.75,36.52l4.29.6c-.46.23.09,4.68,1.04,6.47.94,1.79,4.48,4.73,4.63,4.28l-2.13,3.95c-.4.2-4.58-2.42-6.06-5.08-.39-.71-.78-1.44-1.13-2.17-1.33-2.74-1.39-7.95-.64-8.06h0Z"/><line class="cls-1" x1="1.62" y1="29.53" x2="7.16" y2="50.96"/><line class="cls-1" x1="21.28" y1="6.33" x2="50.89" y2="6.22"/><polyline class="cls-1" points="51.66 11.2 72.85 3.19 70.51 25.11"/><polyline class="cls-2" points="71.94 34.67 68.61 71.3 33.09 65.66"/><polyline class="cls-2" points="26.7 73.14 7.13 68.38 3.25 57.44"/><polyline class="cls-2" points="4.18 25.23 2.95 4.88 22.11 1.84"/></svg>