<?xml version="1.0" encoding="UTF-8"?><svg id="Ebene_1" xmlns="http://www.w3.org/2000/svg" viewBox="0 0 75 75"><defs><style>.cls-1{fill:red;}.cls-1,.cls-2{stroke-width:0px;}.cls-2{fill:#fff;}</style></defs><rect class="cls-2" width="75" height="74.46"/><path class="cls-1" d="m44.16,44.71c1.29,0,2.54-.02,3.79,0,3.96.06,7.68,1.04,11.1,3.05,1.14.67,1.46,1.84.83,3.23-.27.59-.65,1.14-1.01,1.69-.65.99-.63,1.08.5,1.42,2.17.64,4.34,1.29,6.56,1.95.78-7.78,1.56-15.49,2.34-23.27.88.1,1.74.2,2.65.31-.78,7.96-1.55,15.88-2.33,23.83.72.36,1.45.64,2.09,1.05.98.64,1.98,1.29,2.84,2.08,1.62,1.48,1.78,3.34,1.08,5.32-.55,1.55-1.61,2.73-2.91,3.71-3.09,2.33-6.66,3.59-10.37,4.52-2.41.6-4.85.96-7.33,1.17-3.79.32-7.59.28-11.38-.03-3.99-.32-7.89-1.08-11.67-2.42-1.28-.45-2.55-.97-3.74-1.61-1.22-.66-2.53-.97-3.85-1.26-4.85-1.1-9.69-2.2-14.53-3.31-.18-.04-.43-.21-.47-.37-.99-3.65-1.95-7.3-2.92-10.98.87-.27,1.73-.54,2.65-.83.26,1,.51,1.97.76,2.95.56,2.21,1.12,4.43,1.67,6.64.06.25.17.36.44.42,4.1.88,8.19,1.78,12.29,2.68.25.06.5.11.73.16.82-1.98,1.64-3.96.97-6.14-.43-1.39-.96-2.76-1.44-4.14-.33-.97-.49-1.96-.33-2.99.2-1.26.97-2.09,2.09-2.59,1.32-.59,2.71-.74,4.16-.69,1.71.06,3.44,0,5.15-.16.71-.06,1.41-.44,2.09-.73.39-.17.59-1.2.41-1.76-.38-1.14-.86-2.26-1.12-3.43-.31-1.42-.53-2.88-.6-4.34-.12-2.72-.02-5.44.47-8.13.71-3.89,2.06-7.52,4.72-10.53.94-1.07,2.11-1.95,3.2-2.88.16-.14.47-.15.7-.13.38.05.75.21,1.13.26.85.11,1.33.67,1.73,1.33.77,1.29,1.19,2.7,1.38,4.18.41,3.27.21,6.52-.35,9.76-.56,3.26-1.6,6.35-3.15,9.28-.32.6-.7,1.18-1.03,1.72Zm-6.13,1.66c.8-.29,1.52-.64,2.29-.79,1.01-.2,1.68-.67,2.23-1.55,1.4-2.22,2.51-4.57,3.19-7.1.67-2.49,1.11-5.03,1.22-7.61.1-2.38.18-4.76-.42-7.1-.18-.69-.48-1.29-.99-1.79-.59-.58-1.65-.46-2.45.28-1.31,1.22-2.16,2.76-2.94,4.33-1.12,2.25-1.96,4.6-2.53,7.06-.76,3.25-1.38,6.52-1.14,9.88.11,1.61.5,3.14,1.55,4.39Z"/><path class="cls-1" d="m32.12,15.26c-1.35.98-2.43,2.15-3.36,3.46-1.02,1.42-1.9,2.93-2.49,4.56-.69,1.92-1.35,3.85-1.86,5.82-.64,2.5-.9,5.07-.85,7.65.05,2.61.34,5.2,1.41,7.63.08.19.17.37.3.65-.46-.1-.84-.19-1.23-.28-2.55-.6-5.1-1.21-7.66-1.79-.41-.09-.6-.31-.74-.66-.57-1.41-.93-2.87-1.16-4.37-.47-3.15-.39-6.3.01-9.43.51-3.98,1.65-7.76,4.08-11.06,1.18-1.6,2.58-2.97,4.25-4.06.13-.09.33-.15.48-.12,2.88.63,5.75,1.27,8.63,1.91.05.01.09.04.18.09Z"/><path class="cls-1" d="m8.09,48.17c-.4-1.49-.8-2.97-1.19-4.44-.24-.9-.44-1.81-.73-2.7-.13-.4-.47-.73-.63-1.13-.7-1.73-1.09-3.54-1.18-5.39-.09-1.92-.19-3.86-.09-5.78.2-3.91.94-7.73,2.77-11.25,1.32-2.55,3.16-4.66,5.52-6.32.32-.23.63-.3,1.04-.2,1.19.29,2.4.53,3.68.81-.29.22-.53.42-.78.6-1.72,1.25-3,2.87-4.06,4.68-1.75,2.99-2.89,6.21-3.56,9.58-.64,3.19-.83,6.41-.45,9.65.19,1.67.57,3.29,1.24,4.83.03.07.04.15.06.26-.23-.02-.43-.03-.68-.05.52,2.07,1.02,4.11,1.54,6.21-.84.21-1.66.42-2.51.64Z"/><path class="cls-1" d="m42.01,17.57c-1.79,1.27-3.19,2.79-4.28,4.56-.75,1.22-1.44,2.49-1.97,3.81-.68,1.71-1.3,3.47-1.72,5.25-.43,1.81-.65,3.67-.84,5.52-.23,2.17-.1,4.34.29,6.48.26,1.41.64,2.78,1.34,4.18-.72-.17-1.35-.31-1.98-.46-.38-.09-.75-.24-1.13-.27-.51-.05-.75-.34-.93-.77-.88-2.13-1.34-4.35-1.5-6.64-.19-2.7-.06-5.38.32-8.04.54-3.82,1.74-7.41,4.05-10.57,1.08-1.48,2.41-2.74,3.91-3.8.13-.09.33-.15.48-.12,1.3.27,2.59.57,3.97.87Z"/><path class="cls-1" d="m7.5,11.2c.57-.3,1.11-.58,1.64-.88.62-.35,1.22-.3,1.83.02-.51.39-1.02.78-1.52,1.18-1.61,1.3-2.78,2.95-3.74,4.75-1.58,2.96-2.54,6.14-3.17,9.42-.57,2.95-.68,5.91-.4,8.89.16,1.66.53,3.29,1.17,4.85.07.16.13.33.19.5-1.14.09-1.62-.67-2.03-1.49-.98-1.96-1.28-4.07-1.34-6.22-.07-2.4.11-4.8.52-7.16.46-2.64,1.28-5.18,2.5-7.57.53-1.03,1.13-2.02,1.68-3.04.08-.16.11-.36.1-.55-.13-3.2-.27-6.4-.4-9.61,0-.22,0-.45,0-.73,6.28-.93,12.55-1.86,18.86-2.79.16.9.31,1.77.47,2.66-5.55.85-11.05,1.69-16.56,2.53.06,1.77.12,3.49.18,5.23Z"/><path class="cls-1" d="m67.49,7.08c-5.25,1.68-10.42,3.33-15.64,5.01-.41-.84-.82-1.67-1.24-2.53,6.63-2.15,13.2-4.28,19.86-6.43-.41,7.19-.82,14.32-1.24,21.51-.88-.04-1.73-.09-2.65-.13.3-5.8.61-11.58.91-17.42Z"/><path class="cls-1" d="m22.8,7.85v-2.81h27v2.81h-27Z"/><path class="cls-1" d="m20.9,12.56c-1.9,1.35-3.34,2.99-4.49,4.88-1.44,2.38-2.47,4.93-3.21,7.62-.98,3.53-1.34,7.11-1.14,10.75.12,2.09.46,4.15,1.32,6.09.06.13.1.27.17.47-.45-.1-.86-.13-1.22-.29-.19-.08-.37-.36-.43-.58-.39-1.34-.88-2.67-1.08-4.04-.79-5.26-.43-10.46,1.25-15.53,1.25-3.75,3.46-6.85,6.68-9.21.47-.35.94-.61,1.54-.31.15.08.34.09.6.15Z"/><path class="cls-1" d="m28.53,45.9c-1.08.11-1.2-.88-1.49-1.63-.7-1.8-1.03-3.68-1.18-5.59-.29-3.75-.04-7.46.8-11.13.56-2.44,1.51-4.71,2.87-6.81,1.16-1.79,2.66-3.27,4.36-4.57.65-.5,1.18-.05,1.86,0-2.12,1.46-3.68,3.3-4.87,5.43-1.21,2.17-2.1,4.49-2.69,6.9-.36,1.48-.67,2.98-.92,4.48-.15.92-.19,1.86-.22,2.79-.07,2.08-.08,4.16.4,6.19.31,1.34.72,2.65,1.08,3.95Z"/></svg>