<?xml version="1.0" encoding="UTF-8"?><svg id="Ebene_1" xmlns="http://www.w3.org/2000/svg" viewBox="0 0 78.06 78.06"><defs><style>.cls-1{fill:red;fill-rule:evenodd;}.cls-1,.cls-2{stroke-width:0px;}.cls-3{fill:none;stroke:red;stroke-miterlimit:8;stroke-width:3.06px;}.cls-2{fill:#fff;}</style></defs><rect class="cls-2" x="1.82" y="2.18" width="74.13" height="73.65"/><path class="cls-1" d="m72.2,62.12c-.19-.18-.37-.36-.55-.55-9.76-10.16-16.17-27.64-16.17-42.37,0-2.37.17-4.67.52-6.84.07-.54.17-1.05.27-1.57l-4.62.12h-6.48c.01.61.02,1.23.02,1.85,0,8.22-1.24,18.06-3.3,26.95,0,.03-.01.06-.02.09-.12.39-.23.75-.36,1.09-.7,1.83-1.51,2.72-2.31,2.72-1.18,0-2.33-1.88-3.09-5.44v.14c-.47-2.31-.91-4.67-1.28-7.03-1.09-6.96-1.72-14-1.76-20.29-.01,0-.02,0-.03.01v-.02l-5.63.03-4.74-.08h-.03s.02.08.03.13c.55,2.39.8,5.05.8,7.86,0,12.6-5.21,28.4-13.33,38.73-1.2,1.52-2.42,2.88-3.67,4.06h-.03s-1.68,1.5-1.68,1.5c1.3,1.3,2.4,2.78,3.71,4.07l.16-.2.09-.12,2.46-3.08c3.29-3.52,7.77-6.38,13.04-8.27,4.78-1.73,9.85-2.54,14.84-2.54,9.01,0,17.77,2.67,24.16,7.45.01.01.02.01.02.01,2.5,1.88,4.63,4.08,6.27,6.57v-.09c1.34-1.17,2.41-2.62,3.75-3.83-.37-.35-.74-.7-1.08-1.05ZM53.73,12.19v.17h-.21c.07-.06.14-.12.21-.17Z"/><polygon class="cls-3" points="1.53 1.53 76.53 1.53 76.53 76.53 1.53 76.53 1.53 1.53 1.53 1.53"/></svg>