<?xml version="1.0" encoding="UTF-8"?><svg id="Calque_1" xmlns="http://www.w3.org/2000/svg" viewBox="0 0 75 75"><defs><style>.cls-1{fill:#fe0808;}.cls-1,.cls-2{stroke-width:0px;}.cls-2{fill:#fff;}</style></defs><rect class="cls-2" width="75" height="75"/><path class="cls-1" d="m69.72,53.04c-6.96,4.78-13.33,3.11-19.52-1.18-1.16-.27-2.33-.66-3.54-.81-5.37-.54-9.16,4.31-14.35,4.87-2.12.26-4.09-.09-6.05-.98-4.46-1.8-10.67-6.04-15.14-2.32-.95.82-2.12,1.39-3.28,2.13-1.71-.4-1.7-1.64-1.14-3.03-1.82-.94-1.66-2.8-2.15-4.23-1.88-5.98-3.06-11.7-4.54-17.9.72-.36,1.42-.71,2.09-1.04,2.91,4.8,2.68,10.26,4.79,15.28.72-.35,1.52-.59,2.13-1.07,3.06-2.38,6.52-3,10.26-2.52.37.05.7.35,1.07.48.48.17.98.28,1.46.41l.39-.44c-2.7-4.14-5.4-8.28-8.07-12.36.53-1.54,1.23-1.76,2.61-1.19,2.1.87,4.26,1.57,6.36,2.43,4.25,1.75,8.37,3.81,12.83,5,.09-.13.17-.25.26-.38-.13-.42-.26-.84-.4-1.32.84-2.01,1.68-4.1,2.61-6.15.19-.41.71-.74,1.15-.94,3.37-1.41,6.19,1.28,9.33,1.82.57.05,1.3-.26,1.75-.65,1.95-1.6,3.27-3.59,5.54-4.86.46.76.87,1.41,1.28,2.08-1.62,1.45-3.03,2.7-4.63,4.13.32.38.63.74,1.08,1.26,2.09-1.92,4.01-3.68,6.14-5.64.51.48,1.22.84,1.34,1.34.11.44-.32,1.14-.7,1.55-1.06,1.11-2.21,2.12-3.56,3.38,1.35,1.02,2.78,1.57,4.38,2.02,2.18.76,4.37,1.5,6.52,2.33.62.24,1.13.79,1.76,1.25-.92,2.64-1.79,5.14-2.66,7.65.14.07.27.14.41.21,1.59-.97,3.52-1.68,4.02-3.72.44-1.81.45-3.71.66-5.68h2.69c-.06,1.17.16,2.36-.23,3.3-.96,2.3-.63,4.69-.87,7.04-.86,9.47-1.99,18.8-3.09,28.26-.55.11-1.12.38-1.64.3-3.6-.54-7.18-1.17-10.77-1.74-8.15-.87-15.75-2.98-24.01-3.43.15-.92.26-1.65.42-2.64,11.22,1.64,22.17,3.24,33.38,4.87.67-2.83.7-5.61.88-8.32-2.01.69-3.8,1.35-5.62,1.91-2.12.65-4.26.78-6.37-.12-3.09-1.33-6.12-2.8-9.28-3.92-1.42-.5-3.04-.65-4.62.24-2.34,1.28-4.97,2.1-7.26,3.46-4.02,1.39-7.93,1.35-11.75-.81-1.69-.96-3.67-1.41-5.31-2.42-1.64-1.01-3.21-.76-5.48-.3-1.66.94-3.86,2.17-6.32,3.56.6,1.57,1.05,2.84,1.6,4.06.13.29.61.51.97.58,5.82,1.25,11.39,2.27,17.14,4.03-.07.83-.14,1.64-.21,2.48-.4.13-.79.27-1.11.37-2.49-1.45-5.29-1.51-7.96-2.1-3.39-.75-6.8-1.45-10.14-2.39-.72-.2-1.41-1.28-1.68-2.1-1.06-3.55-2.3-6.94-2.91-10.62.87-.2,1.65-.38,2.39-.55.54,1.19,1.01,2.23,1.5,3.31,4.7-2.81,8.96-5.42,14.28-2.55,4.35,2.1,9.15,5.3,14.05,2.82,2.9-1.41,5.84-2.74,8.86-3.86,1.07-.4,2.49-.4,3.6-.07,2.66.91,5.41,1.86,7.77,3.41,3.72,2.14,7.52,1.52,11.11-.1,2.67-1.16,4.45-4,3.56-7.15Zm.63-7.77c-9.73,3.73-10.51,2.51-19.6-1.42-1.1-.47-2.15-1.21-3.29-1.39-.96-.15-2.06.21-3.02.56-5.83,1.91-11.35,6.54-17.66,3.37-3.25-1.63-6.56-3.08-10.11-3.91-6.78,1.83-7.42,2.98-9.23,4.82.38,1.08.77,2.2,1.23,3.48.34-.14.75-.23,1.08-.45,3.5-2.31,7.16-2.27,10.89-.69,2.7,1.14,5.19,2.73,8.1,3.43,4.73,1.04,8.88-1.8,12.77-3.98,3.48-1.3,7.27-.95,10.45.96,1.74.97,3.48,2.05,5.36,2.65,4.08,1.3,7.88.43,11.3-2.13,1.63-1.22,2.37-3.54,1.74-5.28Zm-31.39-13c2,.98,3.76,1.6,5.77,2.35,4.17,1.63,8.24,3.56,12.48,4.99,2.07.81,4.13,1.67,6.22,2.44.43.16.98.02,1.54.02.53-1.78,1.03-3.47,1.48-5.02-.41-.34-.48-.44-.59-.48-3.55-1.38-7.09-2.79-10.66-4.12-3.04-1.14-6.11-2.18-9.16-3.27-1.75-.73-3.59-1.27-5.46-1.57-.61,1.74-1.09,3.1-1.63,4.66Zm3.87,8.39c-.74-.5-1.16-.89-1.66-1.1-3.86-1.56-7.79-2.93-11.66-4.45-2.83-1.15-5.63-2.37-8.46-3.52-.41-.16-.91-.08-1.77-.13,2.42,4.05,4.51,7.26,7.2,10.94.54.73,1.33,1.36,2.14,1.79.76.41,1.69.51,2.15.64,4.64-.06,7.91-2.82,12.06-4.18Z"/><path class="cls-1" d="m72.95,25.51c-2.3.17-2.61-.1-2.53-1.96.07-1.74.23-3.48.28-5.22.1-3.54.16-7.09.23-10.63,0-.19-.06-.38-.16-.94-5.64,1.74-11.17,3.44-16.89,5.21-.16-.82-.31-1.56-.52-2.58,6.95-2.62,14.01-4.53,21.07-6.88-.51,7.92-.99,15.47-1.48,23.02Z"/><path class="cls-1" d="m1.89,2.75C8.74,1.83,15.44.93,22.37,0c.16.88.3,1.6.44,2.38-1.69.31-3.13.62-4.58.84-3.32.51-6.65.97-9.98,1.45-.16.02-.31.06-.47.08-3.1.4-3.14.4-3.05,3.56.16,4.99.39,9.97.57,14.96.02.52-.11,1.05-.17,1.53-.75.12-1.32.22-2.16.35-.14-.43-.43-.89-.44-1.36-.19-5.94-.33-11.88-.5-17.82-.03-.94-.09-1.88-.16-3.22Z"/><path class="cls-1" d="m51.51,4.56v2.73h-29.74c-.04-.8-.08-1.72-.12-2.73h29.86Z"/></svg>