<?xml version="1.0" encoding="UTF-8"?><svg id="Ebene_1" xmlns="http://www.w3.org/2000/svg" viewBox="0 0 75 75"><defs><style>.cls-1{fill:#fff;}.cls-1,.cls-2{stroke-width:0px;}.cls-2{fill:#fe0101;}</style></defs><rect class="cls-1" width="75" height="75"/><path class="cls-2" d="m35.42,53.9c-8.36,0-16.72,0-25.08.01-1.44-1.28-.11-4.96-.57-7.02,11.12-1.35,24.14-.02,35.87-.44,6.85.9,7.56,4.49,14.86.17q.49-.2.49.31c-.39,2.07.81,5.63-.5,6.98-8.36-.01-16.72,0-25.08,0Z"/><path class="cls-2" d="m9.97,26.2c-.04-1.61.69-2.79,1.96-3.75.95-.72,2.04-.82,3.13-.98,3.44-.5,6.89-1,10.34-1.5,3.4-.49,6.8-.98,10.19-1.47,3.15-.46,6.29-.92,9.44-1.39,2-.29,3.99-.6,5.99-.87.29-.04.4-.17.5-.4.39-.89.81-1.76,1.22-2.64.04-.08.1-.15.15-.22.03.08.09.17.1.25.42,3.17.84,6.34,1.26,9.5.19,1.42.34,2.84.59,4.25.11.62.4,1.2.61,1.8.44,1.21.96,2.39,1.31,3.63.29,1.02.17,2.05-.52,2.93-.73.93-2.92,1.15-3.57-.48-.4-1-.53-2.01-.07-3.09.66-1.56,1.21-3.17,1.8-4.77.04-.12,0-.34-.09-.43-.49-.47-1-.93-1.53-1.36-.12-.1-.35-.12-.52-.1-2.33.32-4.66.65-6.99.98-2.66.37-5.32.74-7.98,1.11-3.24.46-6.48.93-9.72,1.39-2.63.37-5.26.73-7.89,1.1-1.76.24-3.52.53-5.29.72-1.18.13-2.96-.33-3.88-1.71-.61-.92-.58-1.96-.52-2.49Zm22.72-2.54c6.38.36,13.49,0,20.11.13.89-.31-.39-6.64-.73-6.52-13.11,2.46-27.11,2.9-39.87,6.31,6.81.22,13.67,0,20.49.08Z"/><path class="cls-2" d="m73.72,34.76c-.24,2.4-.47,4.78-.71,7.15-.23,2.33-.47,4.65-.71,6.98-.35,3.43-.7,6.87-1.04,10.3-.3,2.98-.59,5.95-.88,8.93-.12,1.19-.27,2.37-.36,3.56-.03.33-.15.36-.41.31-1.57-.26-3.14-.51-4.71-.76-3.59-.57-7.19-1.14-10.79-1.71-3.53-.56-7.06-1.11-10.6-1.67-3.11-.49-6.22-.99-9.33-1.47-.31-.05-.43-.1-.35-.47.16-.69.28-1.4.36-2.11.05-.39.2-.44.55-.39,2.01.33,4.02.65,6.03.97,3.7.59,7.41,1.18,11.11,1.78,4.94.79,9.89,1.58,14.83,2.39.44.07.58,0,.63-.48.41-4.29.86-8.58,1.29-12.87.39-3.93.79-7.85,1.18-11.78.29-2.94.59-5.89.86-8.83.04-.47.2-.61.67-.52.64.11,1.29.17,1.94.22.35.02.55.11.43.48Z"/><path class="cls-2" d="m73.26,3.64c-.19,2.83-.38,5.65-.56,8.48-.15,2.29-.28,4.57-.42,6.86-.13,2.05-.26,4.1-.37,6.15-.02.28-.09.4-.39.35-.74-.1-1.48-.2-2.22-.26-.26-.02-.26-.15-.25-.34.12-1.79.23-3.59.34-5.38.17-2.86.35-5.72.52-8.58.08-1.25.14-2.51.22-3.77.02-.32-.02-.41-.37-.3-3.52,1.15-7.04,2.28-10.56,3.42-1.89.61-3.78,1.21-5.66,1.83-.27.09-.35,0-.46-.22-.35-.68-.7-1.36-1.1-2.01-.21-.34-.03-.37.22-.45,2.27-.72,4.54-1.44,6.81-2.15,4.59-1.45,9.17-2.91,13.76-4.36.53-.17.53-.16.5.39,0,.11,0,.22,0,.33Z"/><path class="cls-2" d="m4.51,25.12c-.33.02-.67.03-1,.07-.29.04-.38-.06-.39-.36-.09-2.45-.2-4.9-.31-7.35-.21-4.63-.42-9.25-.64-13.88-.02-.32.07-.44.39-.49,4.8-.69,9.59-1.39,14.39-2.08,1.75-.25,3.49-.5,5.24-.76.27-.04.39,0,.43.31.1.71.24,1.41.39,2.11.05.25,0,.31-.25.35-2.06.29-4.12.61-6.18.91-3.66.54-7.32,1.09-10.99,1.62-.35.05-.4.16-.39.47.08,1.99.15,3.98.23,5.97.12,3.01.25,6.01.38,9.02.05,1.16.09,2.32.16,3.48.02.4-.03.63-.51.58-.31-.04-.64,0-.95,0,0,.01,0,.02,0,.03Z"/><path class="cls-2" d="m26.67,70.73c-.21.95-.39,1.77-.56,2.59-.07.34-.3.2-.48.16-1.78-.4-3.56-.8-5.34-1.21-4.52-1.03-9.04-2.07-13.56-3.1-.31-.07-.45-.19-.53-.49-.82-3.17-1.66-6.33-2.49-9.49-.15-.58-.3-1.17-.47-1.75-.08-.26,0-.37.25-.43.69-.18,1.38-.36,2.07-.57.32-.1.45-.05.54.31.61,2.43,1.25,4.86,1.88,7.29.19.75.41,1.5.57,2.26.07.36.25.49.58.56,3.84.81,7.67,1.64,11.51,2.46,1.91.41,3.82.82,5.73,1.24.12.03.23.12.31.17Z"/><path class="cls-2" d="m36.42,7.69c-4.71,0-9.42,0-14.13.01-.42,0-.55-.1-.53-.52.04-.7.02-1.4,0-2.1,0-.24.05-.36.32-.33.08.01.16,0,.24,0,9.39,0,18.78,0,28.17,0,.41,0,.55.08.52.51-.04.67-.03,1.34,0,2,.02.37-.11.44-.46.44-4.71-.01-9.42,0-14.13,0Z"/><path class="cls-2" d="m6.08,50.28c-.06-.11-.15-.23-.19-.36-.74-2.78-1.47-5.55-2.21-8.33-1.03-3.87-2.05-7.73-3.09-11.6-.1-.38-.04-.52.35-.6.67-.15,1.32-.35,1.97-.54.29-.09.41-.01.49.28.89,3.36,1.79,6.72,2.68,10.08.89,3.31,1.77,6.62,2.67,9.93.09.31.03.43-.29.51-.77.19-1.54.4-2.4.64Z"/><path class="cls-2" d="m54.82,47.66c-.97.08-1.75-.37-2.1-1.29-.41-1.09-.59-2.16-.05-3.31.68-1.48,1.21-3.04,1.8-4.56.04-.11.13-.2.2-.3.04.1.09.2.13.3.57,1.48,1.14,2.96,1.71,4.44.03.09.06.18.11.26.76,1.34.43,2.59-.35,3.78-.33.5-.86.68-1.44.68Z"/><path class="cls-2" d="m62.65,33.92c-1.3,1.32-2.33,4.23-3.85,4.71-1.41-.78,3.36-6.73,3.85-4.71Z"/><path class="cls-2" d="m50.87,37.97c-.88,1.77-3.78-1.51-5.01-2.17.85-1.74,3.61,1.64,5.01,2.17Z"/><path class="cls-2" d="m59.76,42.99c.92-.64,6.6-2.27,4.34-.21-1.34,0-4.09,2.23-4.34.21Z"/><path class="cls-2" d="m48.79,42.41c.36,1.8-4.08.81-4.35.02.24-1.48,3.28-.24,4.35-.02Z"/><path class="cls-2" d="m38.39,41.96c1.15.28,5.63.26,3.51,1.66-1.08-.47-4.74.14-3.51-1.66Z"/><path class="cls-2" d="m39.7,36.53c.14.05.2.06.26.08.87.29,1.73.6,2.61.86.34.1.36.23.23.53-.3.69-.29.69-1,.41-.72-.29-1.44-.57-2.15-.87-.1-.04-.22-.23-.2-.32.05-.24.17-.46.26-.69Z"/><path class="cls-2" d="m67.27,36.94c-.86.56-3.16,2.27-2.91.23,1.06-.46,2.39-2.02,2.91-.23Z"/><path class="cls-2" d="m69.49,40.95c-.91,1-3.62.23-1.56-.65.87-.43,1.31-.31,1.56.65Z"/><path class="cls-2" d="m43.77,32.83c.05.05.11.1.16.15.16.15.32.31.48.46.45.44.44.43,0,.9-.26.28-.46.31-.69,0-.08-.11-.2-.2-.3-.31-.15-.16-.44-.42-.41-.47.17-.26.42-.46.65-.69.02-.02.06-.02.1-.04Z"/></svg>