<?xml version="1.0" encoding="UTF-8"?><svg id="Ebene_1" xmlns="http://www.w3.org/2000/svg" viewBox="0 0 75 75"><defs><style>.cls-1{fill:red;}.cls-1,.cls-2{stroke-width:0px;}.cls-2{fill:#fff;}</style></defs><rect class="cls-2" width="74.95" height="75"/><path class="cls-1" d="m.09,74.93V.2h74.91v74.74c-.2,0-.37,0-.54,0-24.62,0-49.25,0-73.87,0-.17,0-.33-.01-.5-.02Zm3.03-2.92h68.96V3.16H3.12v68.86Z"/><path class="cls-1" d="m14.59,20.69c1.63-.51,2.24,1.08,3.22,1.98,2.58,1.45,2.74,4.55,5.18,6.13,1.23.72,2.15,1.81,3.19,2.76,1.38,1.08,3.16,1.75,4.09,3.3.62.74.89,1.9,1.7,2.42,1.16.17,1.59,1.2,2.45,1.76,1.48.83,2.88,1.63,4.59,1.89,3.93-2.08,2.24-3.59-.67-5.63-2.21-1.62-6.55-2.98-5.63-6.43,1.07-2.2,1.09-5.91,4.08-6.29,2.61-.45,5.18-.57,7.35,1.12,4.07,1,3.94,5.74,2.1,8.68-2.52,2.93.3,1.9.7,4.46.73.22,1.57-.07,1.77-.77,2.38-1.84,3.15-4.74,3.78-7.64.44-1.46-5.41-10.98-6.92-10.46.07-.31.13-.56.19-.8,2.67.22,3.27,3.6,4.87,5.32,3.38,3.6,3.02,7.18,1.15,11.42,0,0,.02,0,.02,0,0,0-.02-.01-.02-.02,2.12-1.28,2.95-5.35,2.44-7.57-3.2-4.67-5.88-9.01-10.14-12.55-1.45-2.43-5.18-1.44-7.55-1.33-6.78.38-13.48-2.08-19.96-3.71.43-1.16.86-2.31,1.28-3.45,5.35,1.19,10.71,2.94,16.2,3.51,4.08.01,9.34-1.59,12.49,1.79,4.86,4.58,9.23,10.03,11.94,16.18-.51,3.6-.89,7.98-4.3,10.14-.5.62-.61,1.49-1.41,1.93,5.24,4.74,3.04,15.27-4.57,15.55-5.57.84-10.1-3.69-9.48-9.19-.01-.29-.08-.43-.39-.5-2.54-.71-5.48-1.54-7.36-3.41-.74-.75-1.98-.9-2.46-1.95-1.12-2.36-2.99-3.83-5.25-5.06-1.66-2.06-4.28-3.25-5.77-5.42-.46-1.15-.65-2.49-1.93-3.08-2.2-.79-1.73-3.21-1.74-5.02m31.28,19.69c-.45,1.11-1.01,2.19-2.17,2.71-.28.13-.38.3-.43.57-.71,3.16.27,7.42,4.12,7.78,5.78.76,7.25-8.46,2.89-10.98-1.45.08-2.88.31-4.4-.08Zm-3.63-7.64c.3-1.66,1.96-2.51,2.19-4.25.18-1.87-4.13-2.78-5.57-2.38-1.02.56-.96,2.21-1.46,3.2,1.07,1.48,3.3,2.2,4.85,3.43Z"/><path class="cls-1" d="m21.95,51.29h3.48v6.55h6.86v-6.54h3.53v16.77h-3.5v-7.34h-6.88v7.34h-3.49v-16.78Z"/><path class="cls-1" d="m18.38,56.16h-3.44s0,.01,0,0c-.47-2.23-1.93-2.48-4-2.28-.45.04-.91.21-1.3.43-1.03.56-1.05,1.79,0,2.31.79.39,1.67.61,2.52.88,1.19.37,2.41.63,3.57,1.06,2.05.77,3.35,2.32,3.24,5-.08,1.84-1.5,3.71-3.42,4.34-2.14.7-4.34.73-6.48.12-2.16-.62-3.48-2.1-3.98-4.24-.08-.36-.15-.72-.23-1.12,1.15-.11,2.27-.22,3.42-.34.05.21.1.39.15.57.37,1.34,1.18,2.28,2.65,2.49,1.32.19,2.62.21,3.72-.74.86-.74.98-2.4-.34-2.88-.93-.34-1.9-.57-2.84-.88-1.21-.39-2.47-.68-3.6-1.23-1.78-.87-2.62-2.4-2.48-4.32.13-1.73,1.1-3.01,2.76-3.66,2.64-1.02,5.3-1,7.85.3,1.46.74,2.49,2.76,2.25,4.19Z"/><path class="cls-1" d="m61.81,61.72v6.36h-3.49v-16.79c.15,0,.31-.03.47-.02,2.4.01,4.8.01,7.2.06,1.03.02,2.07.05,3.01.53,1.38.7,2.27,1.76,2.54,3.27.27,1.48.21,2.91-.62,4.24-.8,1.29-2.03,1.97-3.52,2.2-.77.12-1.55.14-2.33.15-1.07.02-2.13,0-3.25,0Zm.02-2.86c1.32,0,2.6.05,3.88-.01,1.27-.06,2.23-.97,2.32-2.05.11-1.29-.54-2.34-1.79-2.51-1.45-.2-2.92-.18-4.41-.26v4.84Z"/></svg>