<?xml version="1.0" encoding="UTF-8"?><svg id="Ebene_1" xmlns="http://www.w3.org/2000/svg" viewBox="0 0 75 74.5"><defs><style>.cls-1{fill:red;}.cls-1,.cls-2{stroke-width:0px;}.cls-2{fill:#fff;}</style></defs><rect class="cls-2" y="0" width="75" height="74.5"/><path class="cls-1" d="m37.49,74.5c-12.3,0-24.6,0-36.9,0q-.58,0-.58-.6c0-24.43,0-48.86,0-73.29C0-.09-.1,0,.62,0c23.9,0,47.8,0,71.69,0,.77,0,1.54.02,2.31,0,.3,0,.41.09.37.38,0,24.49,0,48.99,0,73.48,0,.72.1.63-.65.63-12.29,0-24.57,0-36.86,0Zm-.11-71.19c-11.13,0-22.26,0-33.39-.01-.46,0-.58.11-.58.58.09,16.34-.12,32.72.08,49.05,2.39-2.21,5.45-2.76,8.29-1.03-.23-2-.57-3.98-.85-5.97-.02-.12-.15-.33-.17-.32-.3.1-.27-.14-.3-.29-1.34-5.4-2.67-10.81-4.02-16.2-.1-.4.04-.52.36-.64,1.91-.68,3.82-1.37,5.73-2.07.13-.05.3-.25.3-.38-.13-5.79-.32-11.58-.53-17.36-.02-.44.15-.46.49-.4.66.12,1.32.23,1.99.32,7.37,1.02,14.8,1.65,22.23,1.84,7.87-.01,15.71-.95,23.53-1.81,1.48-.16,2.96-.32,4.43-.53.41-.06.51,0,.52.42.18,7.32.38,14.64.58,21.96.05.92-1.02-.2-.92.95.26,6.32.52,12.64.78,18.95,0,.24.08.34.32.35,1.76.02,3.5.37,5.01,1.32.15-16.04,0-32.09.05-48.13,0-.68.09-.59-.58-.59-11.12,0-22.23,0-33.35,0Zm26.37,16.89s-.04,0-.06,0c.04-3.16-.07-6.32-.15-9.48,0-.2.02-.34-.3-.29-1.03.16-2.06.26-3.09.39-7.04.91-14.14,1.55-21.23,1.66-8.05-.08-16.08-.9-24.08-1.73-.33-.04-.4.05-.39.38.16,4.76.32,9.51.45,14.27,0,.25.07.33.3.21,6.04-2.08,12.09-4.16,18.13-6.24.3-.1.4-.05.5.25,1.2,3.87,2.45,7.72,3.68,11.58.07.23.16.33.43.31,8.55-.48,17.1-1.04,25.65-1.52.37-.02.43-.14.42-.48-.09-3.1-.17-6.19-.25-9.29Zm-.59,26.67c-.23-4.61-.51-9.22-.72-13.82-.04-.88-.05-.88-.9-.84-7.75.45-15.52.82-23.26,1.37.12.42.22.84.35,1.25.28.9.29.92-.6,1.13-.35.08-.38.19-.23.51,1.95,4.25,3.89,8.5,5.83,12.75.8,1.75,1.61,3.5,2.43,5.24.05.12.06.39.35.21,1.07-.67,2.25-.98,3.49-1.1.31-.03.33-.16.35-.42-.05-3.17,1.79-6.06,4.75-7.2,2.04-.81,4.01-.59,5.74.9,1.07.86,1.67,2.07,2.37,3.21M8.76,30.02c1.02,4,2,7.93,3.01,11.92.23.91.25.91,1.14.6,5.21-1.84,10.43-3.68,15.64-5.51,2.38-.84,4.76-1.68,7.15-2.5.41-.14.62-.28.39-.76-1.26-3.8-2.47-7.65-3.71-11.46-.1-.32-.22-.38-.54-.27-7.67,2.7-15.49,5.14-23.08,7.98Zm30.1,17.31c.48-.01.77.16.45-.45-.75-1.65-1.5-3.3-2.25-4.96-.7-1.54-1.39-3.07-2.07-4.62-.11-.24-.22-.32-.45-.21-6.85,2.45-13.69,4.9-20.54,7.35-.17.06-.37.07-.33.37.15.91.27,1.82.4,2.72.03.23.09.27.28.09,2.35-2.48,4.87-2.76,7.84-1.19,2.59,1.38,4.03,3.54,4.05,6.55,0,.3.06.41.37.33,1.65-.43,3.17.03,4.6.81.45.24.43.04.47-.27.34-3.66,3.58-6.41,7.18-6.5Zm-11.07,23.52c.77,0,1.54-.01,2.31,0,.27,0,.36-.03.27-.32-.37-1.12-.33-2.25-.01-3.37.36-1.28.92-2.46,1.77-3.5.16-.19.24-.48.26-.74.07-1.19-.13-2.35-.45-3.48-.64-3.12-4.68-4.71-7.05-2.08-1.34,1.47-1.85,3.15-1.34,5.12.08.3.46.61.04.94.35.69.78,1.47,1.02,2.23.45,1.54.52,3.14.5,4.74,0,.35.06.48.44.46.75-.03,1.51,0,2.26,0Zm22.75,0c.67,0,1.35-.02,2.02,0,.35.01.43-.1.4-.44-.04-.46-.03-.93-.02-1.4.04-1.42.28-2.83.95-4.05.54-.98.82-1.92.71-3.01.17-2.11-1.07-4.58-3.32-5.31-3.02-1.1-5.05,1.01-5.8,3.82-.2.77-.22,1.55.13,2.27.76,1.64,2.13,3.03,2.26,4.93.03.95.17,1.89.24,2.84.02.31.14.36.41.36.67-.02,1.34,0,2.02,0Zm-47.12-5.14c0,1.58,0,3.16,0,4.74,0,.21-.05.41.3.4,1.1-.02,2.21-.01,3.31,0,.19,0,.24-.04.19-.24-.45-1.71-.13-3.52.33-5.18.77-2.59,2.53-4.39,4.83-5.68.35-.19.52-.36.5-.74-.02-.26,0-.52-.03-.77-.27-1.89-1.9-4.21-3.87-4.5-1.8-.25-3.47.89-4.12,2.25-.9,1.88-1.43,3.88-1.43,5.99,0,1.24,0,2.48,0,3.73Zm12.87,5.14c1.87,0,3.75-.01,5.62.01.42,0,.53-.14.51-.51-.07-.96-.06-1.93-.2-2.88-.55-4.06-5.37-7.24-9.1-5.04-2.5,1.48-4.04,5.11-3.12,7.94.12.36.29.49.67.49,1.87-.02,3.75,0,5.62,0Zm45.89,0c1.92,0,3.84,0,5.76,0,.35,0,.45-.1.41-.43-.12-2.97-.92-5.82-3.6-7.48-.82-.52-1.67-.97-2.68-.87-.4.04-.79.11-1.18.17-1.72.24-3.21.95-4.13,2.48-1.08,1.79-1.21,3.76-.82,5.78.06.31.25.34.52.34,1.9,0,3.81,0,5.71,0Zm-23.51-21.49c-.62.18-1.33.34-2.01.59-2.37.88-3.62,3.63-2.89,5.9.53,1.65,1.45,3.19,1.5,4.96,0,.46.16.4.47.27,2.04-.9,4.12-.93,6.21-.2.63.22.55.21.73-.43.3-1.08.72-2.12,1.06-3.19.07-.2.1-.48.02-.66-.91-2.06-1.85-4.1-2.76-6.16-.45-.96-1.38-.83-2.33-1.08Zm-24.12,1.57s.05.02.07.03c.44,2.55.93,5.09,1.38,7.64.05.25.17.28.39.29,1.46.02,2.72.61,3.97,1.31.04-1.12.33-2.15.93-3.08.69-1.15,1.69-2,2.76-2.78.11-.08.24-.28.22-.4-.39-2.02-.54-4.55-2.6-5.58-2-1.2-5.04-.98-6.4,1.12-.29.45-.48.96-.72,1.45Zm24.81,19.92c1.87,0,3.74,0,5.62,0,.27,0,.39-.03.35-.36-.09-.67-.08-1.36-.21-2.02-.17-.83-.32-1.69-.69-2.44-.69-1.41-1.99-2.18-3.38-2.77-1.29-.55-2.61-.68-3.96-.19-2.68.94-5.07,4.54-3.88,7.36.14.33.3.41.63.41,1.84-.02,3.68,0,5.52,0Zm12.93-17.79c-.02.35-.06.84.28,1.05,2.38,1.23,4.73,3.43,4.8,6.3,0,.29.06.33.31.18.52-.31,1.04-.64,1.6-.86.38-.15.51-.31.5-.71-.07-1.77.23-3.45,1.28-4.93.15-.22.32-.48.34-.73.17-1.6-.13-3.07-1.21-4.32-1.36-1.59-3.05-1.92-4.82-1.05-2.06,1.01-2.93,2.85-3.08,5.07Zm19.03,10.64c0-2.26,0-4.52,0-6.77,0-.24-.07-.52-.19-.72-1.08-1.92-3.59-3.59-5.71-2.23-1.32.89-2.21,2.14-2.75,3.61-.18.48-.01,1.12.13,1.65.04.14.56.15.86.23.23.06.46.12.7.18,2.73.66,4.6,2.33,5.72,4.9.69,1.59.96,3.26.99,4.98.04.4,0,.97.17,1.31.14-.14.11-.32.11-.51,0-2.21,0-4.42,0-6.63Z"/></svg>