<?xml version="1.0" encoding="UTF-8"?><svg id="Ebene_1" xmlns="http://www.w3.org/2000/svg" viewBox="0 0 75 66.92"><defs><style>.cls-1{fill:red;}.cls-1,.cls-2,.cls-3,.cls-4{stroke-width:0px;}.cls-2{fill:#fe0808;}.cls-3{fill:#fff;}.cls-4{fill:#fe0707;}</style></defs><rect class="cls-3" y="2.93" width="64.86" height="63.99"/><path class="cls-1" d="m32.67,66.91c-10.61,0-21.23,0-31.84,0q-.5,0-.5-.51c0-20.93,0-41.85,0-62.78,0-.6-.09-.52.53-.52,20.62,0,41.24,0,61.87,0,.66,0,1.33.01,1.99,0,.26,0,.35.08.32.33,0,20.98,0,41.96,0,62.94,0,.62.09.54-.56.54-10.6,0-21.2,0-31.8,0Zm-.1-60.98c-9.61,0-19.21,0-28.82,0-.4,0-.5.09-.5.5.07,14-.1,28.02.07,42.01,2.06-1.9,4.7-2.37,7.15-.89-.2-1.71-.49-3.41-.74-5.11-.02-.1-.13-.28-.14-.28-.26.08-.23-.12-.26-.25-1.15-4.63-2.3-9.26-3.47-13.88-.09-.35.03-.45.31-.55,1.65-.58,3.3-1.17,4.94-1.77.11-.04.26-.22.26-.33-.11-4.96-.27-9.92-.46-14.87-.01-.38.13-.4.42-.34.57.1,1.14.2,1.72.27,6.36.88,12.77,1.42,19.18,1.58,6.79,0,13.56-.81,20.3-1.55,1.28-.14,2.55-.27,3.82-.45.35-.05.44,0,.45.36.16,6.27.32,12.54.5,18.81.04.79-.88-.17-.79.82.22,5.41.45,10.82.67,16.23,0,.21.06.29.28.3,1.52.02,3.02.32,4.33,1.13.13-13.74,0-27.49.04-41.23,0-.58.08-.51-.5-.51-9.59,0-19.18,0-28.77,0Zm22.76,14.47s-.04,0-.06,0c.03-2.71-.06-5.42-.13-8.12,0-.18.02-.29-.26-.25-.89.14-1.78.22-2.67.33-6.07.78-12.2,1.33-18.32,1.42-6.94-.07-13.87-.77-20.78-1.48-.28-.03-.35.04-.34.32.14,4.07.28,8.15.39,12.22,0,.22.06.28.26.18,5.21-1.78,10.43-3.56,15.64-5.35.26-.09.35-.05.43.21,1.03,3.31,2.11,6.61,3.18,9.92.06.2.14.28.37.27,7.38-.41,14.75-.9,22.13-1.3.32-.02.37-.12.36-.41-.08-2.65-.15-5.3-.22-7.96Zm-.51,22.85c-.2-3.95-.44-7.89-.62-11.84-.03-.75-.04-.76-.78-.72-6.69.39-13.39.7-20.07,1.17.1.36.19.72.3,1.07.24.77.25.79-.52.97-.3.07-.33.16-.2.44,1.68,3.64,3.35,7.28,5.03,10.92.69,1.5,1.39,3,2.1,4.49.05.1.05.33.3.18.92-.57,1.94-.84,3.01-.94.27-.03.29-.14.3-.36-.04-2.72,1.55-5.19,4.1-6.17,1.76-.7,3.46-.51,4.96.77.93.74,1.44,1.77,2.05,2.75M7.88,28.82c.88,3.42,1.72,6.79,2.6,10.21.2.78.22.78.98.51,4.5-1.57,9-3.15,13.5-4.72,2.05-.72,4.11-1.44,6.17-2.14.35-.12.54-.24.33-.65-1.09-3.26-2.13-6.55-3.2-9.82-.09-.28-.19-.33-.47-.23-6.62,2.32-13.36,4.4-19.92,6.84Zm25.97,14.83c.41,0,.66.14.39-.39-.65-1.42-1.3-2.83-1.94-4.25-.6-1.32-1.2-2.63-1.79-3.96-.09-.2-.19-.28-.39-.18-5.91,2.1-11.82,4.2-17.73,6.29-.15.05-.32.06-.28.31.13.78.23,1.56.35,2.33.03.2.08.23.24.07,2.03-2.13,4.2-2.36,6.76-1.02,2.24,1.18,3.48,3.03,3.5,5.61,0,.26.05.35.32.28,1.42-.37,2.73.03,3.97.69.39.21.37.03.41-.23.29-3.14,3.09-5.49,6.19-5.57Zm-9.55,20.15c.66,0,1.33,0,1.99,0,.23,0,.31-.02.23-.28-.32-.96-.29-1.92-.01-2.89.31-1.1.8-2.11,1.53-3,.13-.16.21-.41.22-.63.06-1.02-.12-2.01-.39-2.98-.55-2.67-4.04-4.03-6.08-1.78-1.16,1.26-1.6,2.7-1.16,4.38.07.26.4.52.03.81.31.59.68,1.26.88,1.91.39,1.32.45,2.69.43,4.06,0,.3.05.41.38.4.65-.03,1.3,0,1.95,0Zm19.63,0c.58,0,1.16-.02,1.74,0,.3.01.37-.09.34-.37-.03-.4-.03-.8-.01-1.2.03-1.21.24-2.42.82-3.47.46-.84.71-1.65.61-2.58.15-1.8-.92-3.92-2.86-4.55-2.6-.94-4.36.87-5,3.27-.17.66-.19,1.33.11,1.94.65,1.41,1.84,2.6,1.95,4.22.02.81.15,1.62.21,2.43.02.26.12.31.36.31.58-.02,1.16,0,1.74,0ZM3.27,59.39c0,1.35,0,2.71,0,4.06,0,.18-.04.35.26.35.95-.02,1.91,0,2.86,0,.17,0,.21-.03.16-.21-.39-1.46-.11-3.02.29-4.44.66-2.22,2.18-3.76,4.17-4.86.3-.16.45-.31.43-.63-.01-.22,0-.44-.03-.66-.23-1.62-1.64-3.61-3.34-3.85-1.56-.22-2.99.76-3.56,1.93-.78,1.61-1.23,3.32-1.24,5.13,0,1.06,0,2.13,0,3.19Zm11.1,4.4c1.62,0,3.23-.01,4.85,0,.36,0,.46-.12.44-.44-.06-.82-.05-1.65-.17-2.47-.47-3.47-4.63-6.21-7.85-4.32-2.16,1.27-3.48,4.38-2.69,6.8.1.31.25.42.58.42,1.62-.02,3.23,0,4.85,0Zm39.6,0c1.66,0,3.31,0,4.97,0,.3,0,.39-.09.36-.37-.1-2.54-.8-4.99-3.1-6.4-.71-.45-1.44-.83-2.31-.74-.34.03-.68.1-1.02.15-1.49.21-2.77.81-3.57,2.13-.93,1.53-1.05,3.22-.7,4.95.05.26.22.29.45.29,1.64,0,3.29,0,4.93,0Zm-20.29-18.41c-.53.15-1.15.29-1.74.51-2.05.75-3.12,3.11-2.5,5.05.46,1.41,1.26,2.73,1.29,4.25,0,.4.14.34.41.23,1.76-.77,3.55-.79,5.36-.17.54.19.48.18.63-.37.26-.92.62-1.82.91-2.73.06-.17.09-.41.02-.57-.78-1.76-1.6-3.51-2.38-5.27-.39-.82-1.19-.72-2.01-.92Zm-20.81,1.34s.04.02.06.03c.38,2.18.81,4.36,1.19,6.54.04.22.15.24.34.25,1.26.02,2.35.53,3.43,1.12.03-.96.28-1.84.8-2.64.6-.98,1.46-1.71,2.38-2.38.1-.07.2-.24.19-.35-.33-1.73-.47-3.9-2.25-4.78-1.72-1.03-4.35-.84-5.52.96-.25.38-.42.82-.62,1.24Zm21.41,17.07c1.62,0,3.23,0,4.85,0,.24,0,.34-.03.3-.31-.08-.57-.07-1.16-.18-1.73-.14-.71-.28-1.45-.59-2.09-.6-1.21-1.71-1.87-2.92-2.37-1.12-.47-2.25-.58-3.42-.16-2.31.81-4.38,3.89-3.35,6.31.12.28.26.35.54.35,1.59-.01,3.18,0,4.76,0Zm11.15-15.24c-.02.3-.05.72.24.9,2.06,1.06,4.08,2.94,4.14,5.4,0,.25.06.28.27.16.45-.26.9-.55,1.38-.74.33-.13.44-.26.43-.61-.06-1.52.19-2.96,1.1-4.23.13-.19.27-.41.3-.63.14-1.37-.12-2.63-1.04-3.7-1.18-1.36-2.63-1.65-4.16-.9-1.78.87-2.53,2.44-2.66,4.35Zm16.42,9.11c0-1.93,0-3.87,0-5.8,0-.21-.06-.44-.17-.62-.93-1.64-3.1-3.07-4.93-1.91-1.14.76-1.91,1.84-2.37,3.09-.15.41-.01.96.11,1.41.03.12.48.13.74.19.2.05.4.1.6.15,2.35.57,3.97,1.99,4.94,4.2.6,1.36.83,2.79.85,4.27.04.34,0,.83.15,1.13.12-.12.1-.28.09-.43,0-1.89,0-3.78,0-5.68Z"/><rect class="cls-3" x="47.36" width="27.64" height="26.46"/><path class="cls-4" d="m55.88,23.53c-.06-.8-.12-1.59-.18-2.43-.4.11-.75.21-1.17.32.09-.93.17-1.82.26-2.78-1.39.49-2.73.96-4.09,1.45-.14-.2-.28-.39-.44-.62.51-.58,1.01-1.15,1.52-1.72.29-.33.22-.63-.18-.79-.3-.15-.69-.2-.94-.41.92-.69.83-1.35.47-2.27-.79-.88-2.7-1.62-3.75-2.41,2.7-.21,5.29-.41,7.88-.62-.56-.55-1.11-1.09-1.75-1.72,1.46-.26,2.78-.5,4.16-.74-.07-1.18-.14-2.36-.21-3.57h-.7v-.85c.23-.01.44-.02.7-.03-.07-1.37-.15-2.72-.22-4.09.21-.08.41-.16.65-.25.81,1.34,1.62,2.68,2.41,4.02.14.24.28.34.58.34,1.45-.02,2.86,0,4.32,0v.82c-.1.02-.21.04-.36.07.32,1.06.64,2.11.97,3.2.81-.26,1.58-.5,2.42-.77-.12.77-.23,1.49-.35,2.28.87-.28,1.69-.54,2.51-.81.07-.02.13-.15.14-.23.1-1.3.18-2.6.27-3.96-1.65.55-3.27,1.09-4.92,1.65-.13-.25-.25-.49-.39-.78,2.04-.69,4.06-1.37,6.14-2.07-.07,1.72-.15,3.39-.22,5.14,1.08-.32,2.13-.62,3.2-.93.13.21.25.42.4.66-2.03,1.78-4.06,3.55-6.14,5.38.68.25,1.31.47,1.98.72.04-.54.08-1.03.13-1.55.27.03.51.06.81.1-.05.58-.09,1.14-.14,1.73.27.1.52.19.81.3-.03.25-.06.49-.1.75-.26.03-.5.06-.79.09.03.63-.38,1.69.04,2.15.56.57,1.13,1.12,1.69,1.68q.44.43.07,1.01c-.72-.19-1.46-.38-2.24-.59-.13,1.39-.26,2.74-.4,4.12-3.26-.52-6.48-1.03-9.74-1.55-.49,1.14-.97,2.28-1.5,3.51-.47-2.19-.91-4.27-1.38-6.47-.42,1.01-.8,1.9-1.17,2.8q-.31.73-1.07.74h0Zm17.15-14.32c-2.01.59-4.02,1.18-6.1,1.79.13-.76.24-1.48.37-2.24-.69.2-1.32.38-1.98.57-.33-1.02-.66-2.02-1.01-3.09-.53,1.18-1.02,2.28-1.54,3.43-1.58-2.67-3.1-5.27-4.63-7.86-.02,0-.05.01-.07.02.13,2.52.25,5.04.38,7.57-1.15.21-2.23.41-3.36.61.59.64,1.15,1.24,1.76,1.89-2.37.17-4.66.34-7.07.51,1.32.81,2.52,1.54,3.87,2.37-.61.55-1.15,1.04-1.69,1.54.48.21.92.41,1.4.63-.51.63-.99,1.21-1.56,1.9,1.35-.33,2.45-1,3.83-1.16-.09.94-.18,1.8-.27,2.7.34-.09.62-.16.93-.24.08.56.15,1.09.24,1.74.62-1.5,1.19-2.88,1.81-4.37.47,2.19.92,4.28,1.4,6.47.82-1.9,1.59-3.69,2.38-5.52.46.49.88.93,1.37,1.44-.07-.89-.14-1.68-.21-2.51,2.93.81,5.79,1.61,8.77,2.43-1.42-1.43-2.75-2.78-4.1-4.14.87-.09,1.72-.17,2.56-.26,0-.02.01-.05.02-.07-1.01-.39-2.03-.78-3.08-1.18,1.88-1.66,3.78-3.25,5.65-4.92.01-.02.03-.05.04-.07-.03,0-.06.02-.09.02Zm-3.07,14.28c.12-1.15.23-2.26.34-3.36-2.09-.56-4.13-1.11-6.2-1.67.11,1.19.22,2.32.33,3.56-.75-.78-1.41-1.49-2.11-2.22-.34.79-.65,1.52-.98,2.29,2.89.47,5.71.92,8.62,1.39Zm-5.98-18.26h-2.97c.56.95,1.09,1.86,1.65,2.82.45-.96.87-1.87,1.32-2.82Zm6.61,12.1c.04-.46.06-.77.09-1.12-.37.04-.69.08-1.03.12.3.33.58.62.94,1Z"/><path class="cls-2" d="m52.14,10.45c-.31.03-.57.05-.89.08-.09-2.2-.18-4.38-.28-6.61,1.99-.3,3.95-.6,5.93-.9.05.28.1.53.16.83-1.74.27-3.45.53-5.2.79.09,1.94.18,3.85.27,5.8Z"/><path class="cls-2" d="m55.87,23.53c.13.06.25.14.38.18.6.14,1.21.27,1.86.42-.06.27-.1.52-.17.82-.17-.03-.34-.06-.5-.09-1.65-.37-3.3-.75-4.96-1.11-.24-.05-.33-.15-.39-.38-.27-1.07-.56-2.13-.86-3.25.27-.08.54-.16.84-.25.23.93.46,1.83.67,2.73.06.25.17.38.44.44.75.15,1.5.33,2.25.49.14.03.29,0,.43.01,0,0,0,0,0,0Z"/></svg>