<?xml version="1.0" encoding="UTF-8"?><svg id="Ebene_1" xmlns="http://www.w3.org/2000/svg" xmlns:xlink="http://www.w3.org/1999/xlink" viewBox="0 0 78.19 78.19"><defs><style>.cls-1{stroke-width:3.7px;}.cls-1,.cls-2,.cls-3,.cls-4,.cls-5,.cls-6,.cls-7,.cls-8,.cls-9,.cls-10{fill:none;}.cls-1,.cls-2,.cls-4,.cls-5,.cls-6,.cls-7,.cls-8,.cls-9,.cls-10{stroke:red;}.cls-1,.cls-2,.cls-5,.cls-6,.cls-7,.cls-8,.cls-9,.cls-10{stroke-linejoin:round;}.cls-1,.cls-2,.cls-5,.cls-6,.cls-9,.cls-10{stroke-linecap:round;}.cls-11{fill:red;}.cls-11,.cls-3,.cls-12,.cls-13{stroke-width:0px;}.cls-11,.cls-13{fill-rule:evenodd;}.cls-14{clip-path:url(#clippath-2);}.cls-2{stroke-width:3.7px;}.cls-15{clip-path:url(#clippath-1);}.cls-16{clip-path:url(#clippath-4);}.cls-4{stroke-miterlimit:10;stroke-width:3.59px;}.cls-12,.cls-13{fill:#fff;}.cls-5{stroke-width:2.53px;}.cls-6{stroke-width:1.17px;}.cls-7{stroke-width:.39px;}.cls-8{stroke-width:.39px;}.cls-13{opacity:0;}.cls-17{clip-path:url(#clippath);}.cls-18{clip-path:url(#clippath-3);}.cls-9{stroke-width:1.17px;}.cls-10{stroke-width:2.53px;}</style><clipPath id="clippath"><polygon class="cls-4" points="1.79 76.4 76.4 76.4 76.4 1.79 1.79 1.79 1.79 76.4 1.79 76.4"/></clipPath><clipPath id="clippath-1"><polygon class="cls-3" points="7.45 39.53 44.34 39.53 44.34 8.57 7.45 8.57 7.45 39.53 7.45 39.53"/></clipPath><clipPath id="clippath-2"><polygon class="cls-3" points="37.39 39.53 74.27 39.53 74.27 8.57 37.39 8.57 37.39 39.53 37.39 39.53"/></clipPath><clipPath id="clippath-3"><polygon class="cls-3" points="37.39 71.3 74.27 71.3 74.27 40.34 37.39 40.34 37.39 71.3 37.39 71.3"/></clipPath><clipPath id="clippath-4"><polygon class="cls-3" points="7.45 71.33 44.34 71.33 44.34 40.34 7.45 40.34 7.45 71.33 7.45 71.33"/></clipPath></defs><rect class="cls-12" x="1.79" y="1.79" width="75" height="75"/><g class="cls-17"><g class="cls-15"><polygon class="cls-13" points="7.28 9.34 40.84 9.34 40.84 36.61 7.28 36.61 7.28 9.34 7.28 9.34"/><path class="cls-11" d="m30.1,12.56c0-1.13.92-2.05,2.05-2.05h0c1.13,0,2.05.92,2.05,2.05h0c0,1.13-.92,2.05-2.05,2.05h0c-1.13,0-2.05-.92-2.05-2.05h0Z"/><path class="cls-7" d="m30.1,12.56c0-1.13.92-2.05,2.05-2.05h0c1.13,0,2.05.92,2.05,2.05h0c0,1.13-.92,2.05-2.05,2.05h0c-1.13,0-2.05-.92-2.05-2.05h0Z"/><line class="cls-10" x1="29.62" y1="16.65" x2="34.23" y2="21.25"/><line class="cls-10" x1="39.3" y1="16.26" x2="34.69" y2="20.86"/><line class="cls-10" x1="23.35" y1="10.8" x2="19.67" y2="14.49"/><line class="cls-10" x1="23.96" y1="11.39" x2="28.98" y2="15.63"/><line class="cls-2" x1="28.73" y1="15.67" x2="21.81" y2="22.58"/><line class="cls-10" x1="23.18" y1="22.49" x2="28.2" y2="26.73"/><line class="cls-10" x1="28.2" y1="26.97" x2="27.86" y2="35.1"/><line class="cls-10" x1="21.57" y1="24.63" x2="17.52" y2="28.43"/><line class="cls-10" x1="17.57" y1="28.33" x2="12.25" y2="23.85"/><line class="cls-9" x1="16.2" y1="33.2" x2="8.06" y2="33.11"/><line class="cls-9" x1="16.2" y1="31.26" x2="8.06" y2="31.16"/></g><g class="cls-14"><polygon class="cls-13" points="37.21 9.34 70.77 9.34 70.77 36.61 37.21 36.61 37.21 9.34 37.21 9.34"/><path class="cls-11" d="m60.04,12.56c0-1.13.92-2.05,2.05-2.05h0c1.13,0,2.05.92,2.05,2.05h0c0,1.13-.92,2.05-2.05,2.05h0c-1.13,0-2.05-.92-2.05-2.05h0Z"/><path class="cls-7" d="m60.04,12.56c0-1.13.92-2.05,2.05-2.05h0c1.13,0,2.05.92,2.05,2.05h0c0,1.13-.92,2.05-2.05,2.05h0c-1.13,0-2.05-.92-2.05-2.05h0Z"/><line class="cls-10" x1="59.55" y1="16.65" x2="64.16" y2="21.25"/><line class="cls-10" x1="69.24" y1="16.26" x2="64.63" y2="20.86"/><line class="cls-10" x1="53.29" y1="10.8" x2="49.6" y2="14.49"/><line class="cls-10" x1="53.9" y1="11.39" x2="58.92" y2="15.63"/><line class="cls-2" x1="58.66" y1="15.67" x2="51.75" y2="22.58"/><line class="cls-10" x1="53.11" y1="22.49" x2="58.14" y2="26.73"/><line class="cls-10" x1="58.14" y1="26.97" x2="57.8" y2="35.1"/><line class="cls-10" x1="51.5" y1="24.63" x2="47.46" y2="28.43"/><line class="cls-10" x1="47.5" y1="28.33" x2="42.19" y2="23.85"/><line class="cls-9" x1="46.14" y1="33.2" x2="37.99" y2="33.11"/><line class="cls-9" x1="46.14" y1="31.26" x2="37.99" y2="31.16"/></g><g class="cls-18"><polygon class="cls-13" points="37.21 41.12 70.77 41.12 70.77 68.39 37.21 68.39 37.21 41.12 37.21 41.12"/><path class="cls-11" d="m60.04,44.33c0-1.13.92-2.05,2.05-2.05h0c1.13,0,2.05.92,2.05,2.05h0c0,1.13-.92,2.05-2.05,2.05h0c-1.13,0-2.05-.92-2.05-2.05h0Z"/><path class="cls-7" d="m60.04,44.33c0-1.13.92-2.05,2.05-2.05h0c1.13,0,2.05.92,2.05,2.05h0c0,1.13-.92,2.05-2.05,2.05h0c-1.13,0-2.05-.92-2.05-2.05h0Z"/><line class="cls-10" x1="59.55" y1="48.42" x2="64.16" y2="53.02"/><line class="cls-10" x1="69.24" y1="48.03" x2="64.63" y2="52.63"/><line class="cls-10" x1="53.29" y1="42.58" x2="49.6" y2="46.26"/><line class="cls-10" x1="53.9" y1="43.16" x2="58.92" y2="47.4"/><line class="cls-2" x1="58.66" y1="47.45" x2="51.75" y2="54.35"/><line class="cls-10" x1="53.11" y1="54.27" x2="58.14" y2="58.5"/><line class="cls-10" x1="58.14" y1="58.75" x2="57.8" y2="66.88"/><line class="cls-10" x1="51.5" y1="56.41" x2="47.46" y2="60.21"/><line class="cls-10" x1="47.5" y1="60.11" x2="42.19" y2="55.63"/><line class="cls-9" x1="46.14" y1="64.98" x2="37.99" y2="64.88"/><line class="cls-9" x1="46.14" y1="63.03" x2="37.99" y2="62.93"/></g><g class="cls-16"><polygon class="cls-13" points="7.28 41.12 40.84 41.12 40.84 68.41 7.28 68.41 7.28 41.12 7.28 41.12"/><path class="cls-11" d="m30.1,44.33c0-1.13.92-2.05,2.05-2.05h0c1.13,0,2.05.92,2.05,2.05h0c0,1.13-.92,2.05-2.05,2.05h0c-1.13,0-2.05-.92-2.05-2.05h0Z"/><path class="cls-8" d="m30.1,44.33c0-1.13.92-2.05,2.05-2.05h0c1.13,0,2.05.92,2.05,2.05h0c0,1.13-.92,2.05-2.05,2.05h0c-1.13,0-2.05-.92-2.05-2.05h0Z"/><line class="cls-5" x1="29.62" y1="48.43" x2="34.23" y2="53.03"/><line class="cls-5" x1="39.3" y1="48.04" x2="34.69" y2="52.64"/><line class="cls-5" x1="23.35" y1="42.58" x2="19.67" y2="46.26"/><line class="cls-5" x1="23.96" y1="43.16" x2="28.98" y2="47.4"/><line class="cls-1" x1="28.73" y1="47.45" x2="21.81" y2="54.36"/><line class="cls-5" x1="23.18" y1="54.28" x2="28.2" y2="58.52"/><line class="cls-5" x1="28.2" y1="58.76" x2="27.86" y2="66.9"/><line class="cls-5" x1="21.57" y1="56.42" x2="17.52" y2="60.22"/><line class="cls-5" x1="17.57" y1="60.12" x2="12.25" y2="55.64"/><line class="cls-6" x1="16.2" y1="65" x2="8.06" y2="64.9"/><line class="cls-6" x1="16.2" y1="63.05" x2="8.06" y2="62.95"/></g></g><polygon class="cls-4" points="1.79 76.4 76.4 76.4 76.4 1.79 1.79 1.79 1.79 76.4 1.79 76.4"/></svg>