<?xml version="1.0" encoding="UTF-8"?><svg id="Ebene_1" xmlns="http://www.w3.org/2000/svg" viewBox="0 0 75 74.31"><defs><style>.cls-1{fill:red;}.cls-1,.cls-2,.cls-3{stroke-width:0px;}.cls-2{fill:#fff;}.cls-3{fill:#fe0101;}</style></defs><rect class="cls-2" y="5.58" width="68.83" height="68.73"/><path class="cls-1" d="m0,74.31V5.58h68.83v68.73H0Zm52.06-38.36c4.71-2.72,7.21-8.68,7.62-13.92,9.38,9.7,7.38,26.41,1.03,37.18-.01-.02-.02-.04-.03-.06-4.51,7.14-12.8,10.86-20.9,12.34,0,.02,0,.03,0,.05h26.38V8.04H2.67v56.58c9.72-27.4,31.51-22.97,31.44-39.39,2.52,3.54,2.16,8.35,1.58,12.44-.87,2.74,1.47,1.62,3.04.93,4.86-3.22,6.49-10.14,6.23-15.66-.33-.7-.09-.89.65-.75,4.39,2.75,4.92,9.16,6.46,13.75ZM2.66,71.57c11.6,0,23.2,0,34.8,0,7.66-1.83,11.68-10,13.09-17.14,1.72-6.14-.53-3.63-2.33.05-3.5,4-9.23,7.24-14.67,6.62,2.23-3.99,4.71-7.65,7.56-11.2-.01,0-.02-.02-.03-.03-13.88,4.5-12.79,1.66-23.15,14.22,1.16-3.88,3-7.95,4.82-11.63.37-.69,1.33-1.97,1.22-2.53-2.15,1.17-4.02,2.64-6.13,3.8-6.39,4.85-17.29,7.97-15.18,17.83Z"/><rect class="cls-2" x="45.63" width="29.37" height="28.43"/><path class="cls-3" d="m55.46,5.08c-.18-.69.33-.41.61-.46.05,0,.12-.08.12-.11-.06-1.34-.14-2.67-.2-4.01,0-.1.14-.27.25-.29.16-.04.45-.05.51.04.87,1.42,1.72,2.87,2.57,4.3.03.04.1.08.15.08,1.28,0,2.57,0,3.85,0,.14,0,.28-.01.42,0,.47,0,.71.41.54.87,0,.02-.05.05-.07.04-.41-.08-.3.15-.23.38.29.95.57,1.91.86,2.86.02.06.17.14.23.12.76-.24,1.51-.49,2.26-.74.02,0,.08.05.08.07-.12.73-.24,1.45-.36,2.18,0,.03.07.1.1.09.86-.27,1.72-.54,2.57-.85.08-.03.1-.28.11-.43.09-1.29.17-2.58.25-3.87,0-.02-.07-.07-.09-.07-1.65.56-3.3,1.12-4.96,1.66-.04.01-.16-.2-.24-.31-.26-.34-.2-.5.25-.64,1.93-.62,3.84-1.3,5.76-1.94.03-.01.14.07.14.11-.07,1.71-.15,3.42-.22,5.13,0,.03.08.1.1.09,1.06-.31,2.11-.64,3.18-.93.06-.02.25.26.31.43.04.11.02.33-.06.4-2.04,1.81-4.08,3.62-6.12,5.42-.02.01,0,.1.02.11.62.23,1.25.46,1.88.68.03,0,.12-.05.12-.09.04-.45.06-.9.1-1.34,0-.06.12-.14.2-.15.93-.09.61.56.59,1.02,0,.1,0,.19-.03.29-.13.47.02.74.52.83.1.02.23.21.25.34.08.51-.19.66-.66.62-.07,0-.23.13-.24.21-.07.59-.11,1.18-.15,1.77,0,.07.05.16.1.21.73.73,1.48,1.45,2.18,2.21.08.09-.09.43-.16.64-.01.04-.14.06-.2.04-.69-.18-1.38-.38-2.07-.56-.04-.01-.14.06-.15.1-.13,1.38-.26,2.75-.39,4.13,0,.02-.07.06-.1.06-3.03-.48-6.05-.97-9.07-1.46-.23-.04-.47-.11-.7-.11-.13,0-.33.1-.38.21-.48,1.09-.93,2.2-1.39,3.3-.02.04-.05.07-.07.11-.02-.03-.04-.05-.04-.08-.35-1.67-.69-3.35-1.04-5.03-.11-.52-.22-1.04-.33-1.57,0-.03-.03-.06-.04-.08-.02.03-.04.05-.05.08-.48,1.19-.96,2.37-1.46,3.55-.03.07-.23.11-.34.08-.16-.03-.44-.11-.45-.2-.1-.73-.14-1.47-.21-2.2,0-.05-.13-.13-.18-.12-.33.08-.65.19-.98.28-.02,0-.07-.04-.07-.06.09-.91.18-1.81.27-2.72,0-.03-.09-.11-.12-.1-1.36.49-2.71.99-4.08,1.44-.09.03-.31-.34-.45-.53-.02-.03-.02-.12,0-.15.55-.63,1.11-1.24,1.63-1.9.08-.1-.02-.51-.16-.6-.33-.21-.73-.31-1.09-.45-.02,0-.04-.09-.02-.11.24-.25.6-.46.7-.76.1-.31-.06-.7-.08-1.06-.07-1.1-1.11-1.19-1.77-1.66-.7-.5-1.47-.9-2.22-1.34-.02-.01-.04-.04-.06-.05.02,0,.04-.02.07-.02,1.86-.15,3.72-.29,5.58-.44.82-.06,1.65-.13,2.47-.19.06,0,.11-.03.17-.04-.04-.04-.07-.07-.11-.11-.55-.54-1.09-1.09-1.64-1.63-.01-.01-.02-.04-.03-.05.02,0,.04-.02.07-.03,1.35-.24,2.69-.48,4.04-.72.04,0,.11-.09.1-.13-.07-1.18-.14-2.35-.23-3.53,0-.05-.18-.12-.27-.11-.36.03-.61,0-.46-.46Zm-7.02,8.02s-.12.02-.22.03c.02.02.04.04.06.06,1.22.76,2.45,1.51,3.67,2.27.04.02.05.17.01.21-.48.5-.97.99-1.46,1.48-.02.02,0,.12.03.13.43.19.86.38,1.29.57.03.01.05.11.03.13-.5.61-1,1.22-1.51,1.83-.03.03-.04.08-.05.12.04,0,.08-.01.12-.03,1.1-.39,2.19-.79,3.3-1.16.15-.05.54.11.54.16-.02.57-.09,1.14-.17,1.7-.12.91-.12.91.75.69.04-.01.15.04.15.07.08.53.14,1.06.21,1.59,0,.04.03.08.05.12.02-.02.04-.03.05-.06.59-1.46,1.18-2.92,1.77-4.39.01-.04.04-.07.06-.1.01.04.02.07.03.11.46,2.18.92,4.37,1.38,6.55,0,.03.03.06.04.08.02-.02.04-.04.05-.06.8-1.87,1.59-3.74,2.39-5.61,0-.02.11-.04.12-.02.42.44.83.89,1.25,1.33.02.03.06.04.09.06,0-.03.02-.07.01-.1-.07-.75-.14-1.51-.19-2.26,0-.05.16-.18.21-.16,2.95.82,5.89,1.64,8.83,2.47.03,0,.06,0,.1.01-.03-.04-.05-.08-.08-.11-1.39-1.38-2.79-2.75-4.18-4.13-.03-.03-.06-.08-.09-.12.02,0,.03-.02.05-.02.9-.08,1.81-.16,2.71-.25.03,0,.06-.01.09-.02-.02-.02-.05-.04-.07-.05-1.05-.41-2.09-.81-3.14-1.22-.03-.01-.07-.1-.06-.11,1.97-1.72,3.95-3.43,5.93-5.15.03-.03.06-.07.09-.1-.05,0-.1,0-.14.02-2.13.64-4.25,1.29-6.38,1.93-.02,0-.07-.04-.07-.05.12-.73.25-1.46.37-2.19,0-.02-.06-.09-.08-.08-.6.18-1.21.36-1.81.53-.06.02-.2-.05-.22-.11-.33-1-.64-2-.96-3,0-.03-.03-.05-.05-.08-.01.02-.03.03-.03.05-.5,1.16-1.01,2.32-1.51,3.48-.01.03-.04.05-.05.08-.02-.02-.04-.05-.06-.07-1.49-2.57-2.98-5.15-4.47-7.72-.12-.2-.24-.4-.36-.6,0,.23,0,.47.01.7.12,2.44.24,4.88.36,7.32,0,.03-.06.09-.1.1-1.09.2-2.17.39-3.26.59-.03,0-.07.13-.05.15.46.51.93,1.02,1.4,1.53.1.11.21.23.31.34-.14.02-.29.04-.43.05-2.19.16-4.38.32-6.65.48Zm15.02,10.05s0,.03-.02.07c-.03-.02-.06-.05-.09-.07-.67-.73-1.34-1.45-2.01-2.17-.01-.02-.1,0-.11.02-.32.75-.63,1.49-.94,2.24,0,.02.02.1.04.1,2.94.48,5.89.97,8.83,1.44.02,0,.08-.04.08-.07.11-1.12.22-2.24.32-3.37,0-.04-.04-.11-.08-.12-2.05-.56-4.1-1.12-6.15-1.67-.05-.01-.2.12-.2.18.09,1.12.21,2.24.32,3.42Zm-1.99-17.63s0,0,0,0c-.49,0-.97,0-1.46,0-.02,0-.08.08-.07.1.54.95,1.09,1.89,1.64,2.84,0,0,.08,0,.09-.01.44-.94.88-1.89,1.31-2.83,0-.02-.04-.09-.06-.09-.48,0-.96,0-1.45,0Zm8.47,11.61c-.37.03-.69.06-1,.09-.03,0-.06.03-.08.04.02.02.03.05.05.07.26.25.53.5.79.75.06.05.12.1.19.15,0-.08.02-.15.02-.23.03-.26.06-.52.08-.77,0-.04-.03-.08-.04-.1Zm-19.22-1.57c-.02.08-.04.12-.04.15,0,.04.04.07.06.1.02-.03.06-.06.06-.09,0-.04-.04-.08-.08-.16Z"/><path class="cls-3" d="m49.72,10.54c-.08-1.96-.17-4.03-.25-6.1,0-.1.11-.29.2-.3,1.94-.31,3.89-.61,5.83-.9.04,0,.13.04.14.07.18.81.18.79-.8.93-1.45.2-2.9.44-4.35.67-.04,0-.1.1-.1.15.08,1.95.18,3.9.24,5.85,0,.05-.26.14-.41.17-.5.08-.5.07-.5-.53Z"/><path class="cls-3" d="m56.88,25.49c-.05.29-.09.55-.16.8,0,.02-.17.01-.26,0-1.89-.43-3.77-.87-5.66-1.31-.07-.02-.12-.17-.14-.27-.29-1.11-.59-2.22-.86-3.33-.01-.06.16-.19.27-.25.42-.22.6-.1.69.39.16.87.4,1.73.64,2.58.03.11.31.18.49.22,1.63.37,3.26.74,4.88,1.11.04,0,.08.05.1.06Z"/></svg>