<?xml version="1.0" encoding="UTF-8"?><svg id="Ebene_1" xmlns="http://www.w3.org/2000/svg" viewBox="0 0 75 75"><defs><style>.cls-1{fill:red;}.cls-1,.cls-2{stroke-width:0px;}.cls-2{fill:#fff;}</style></defs><rect class="cls-2" width="74.68" height="74.76"/><path class="cls-1" d="m75,.03v74.92c-.16.02-.32.05-.48.05-24.64,0-49.28,0-73.92,0-.17,0-.34-.02-.51-.02V.03h.65c22.39,0,44.78,0,67.17,0,2.36,0,4.73,0,7.09,0Zm-21.34,12.06c-1.72-1.55-3.32-3.08-5.01-4.51-1.09-.92-2.24-1.8-3.46-2.53-3.27-1.94-6.85-2.45-10.59-2.07-2.19.22-4.35.64-6.45,1.27-3.11.94-6.06,2.25-8.82,3.98-3.3,2.07-5.82,4.91-7.85,8.18-1.76,2.82-3.09,5.83-3.54,9.18-.25,1.84-.29,3.67.01,5.5.31,1.89.91,3.69,1.77,5.4.98,1.95,2.12,3.78,3.65,5.34,2.83,2.87,6.28,4.31,10.3,4.31,2.28,0,4.48-.59,6.69-1.02,1.74-.34,3.47-.75,5.21-1.06,1.43-.26,2.88-.43,4.36-.65-.79-1.51-1.58-3.01-2.38-4.55,2.65-.92,5.24-1.81,7.95-2.75-1.91-.55-3.68-1.06-5.52-1.58.81-1.21,1.58-2.37,2.38-3.58-.2.02-.32.02-.45.05-1.02.21-2.03.47-3.05.64-2.86.46-5.71.95-8.59,1.3-2.25.27-4.51.18-6.74-.37-1.89-.46-3.72-2.44-4-4.36-.19-1.32.03-2.56.54-3.76.7-1.67,1.79-3.09,2.98-4.43,1.39-1.57,3.03-2.8,4.95-3.65,1.5-.66,3.08-1.03,4.69-1.28,1.45-.22,2.84-.11,4.19.5,1.46.66,2.73,1.58,3.9,2.65.22.2.39.25.67.1,1.91-.99,3.82-1.96,5.74-2.93,2.13-1.09,4.25-2.17,6.47-3.31Zm-8.64,33.72c.17.06.28.1.38.14,2.07.65,4.22.78,6.35,1,1.49.15,2.99.16,4.4.77,1.28.55,2.3,1.4,2.77,2.72.64,1.77.04,3.32-1.09,4.71-.87,1.06-1.97,1.83-3.14,2.52-3.39,2-7.03,2.93-10.98,2.53-2.56-.26-4.97-1-7.16-2.35-1.74-1.07-3.07-2.54-3.82-4.49-.27-.7-.3-.69-1.05-.6-3.72.42-7.44.84-11.16,1.27-.67.08-1.35.16-2.03.24.01.11.02.15.03.2.65,2.58,1.5,5.07,2.84,7.4,1.31,2.28,2.95,4.25,5.06,5.81,2.74,2.03,5.83,3.28,9.12,4.05,2.24.52,4.52.8,6.81.91,3.12.15,6.23.16,9.3-.44,1.89-.37,3.79-.83,5.6-1.46,2.59-.9,4.89-2.35,6.92-4.21,1.91-1.75,3.55-3.73,4.8-6.01,1.35-2.48,2.11-5.13,2.22-7.97.13-3.36-.44-6.55-2.03-9.53-.89-1.66-1.96-3.19-3.43-4.39-1.4-1.14-2.92-2.08-4.74-2.37-2.91-.46-5.82-.9-8.73-1.36-.67-.1-1.33-.23-2.05-.36.27,1.36.53,2.63.8,3.95-1.6.48-3.19.95-4.85,1.45,1.82,1.19,3.57,2.32,5.37,3.5-2.22.81-4.34,1.58-6.51,2.38Z"/></svg>