<?xml version="1.0" encoding="UTF-8"?><svg id="Ebene_1" xmlns="http://www.w3.org/2000/svg" viewBox="0 0 77.98 77.98"><defs><style>.cls-1,.cls-2,.cls-3{stroke:red;stroke-miterlimit:10;}.cls-1,.cls-3{stroke-width:.4px;}.cls-4{fill:red;}.cls-4,.cls-5{stroke-width:0px;}.cls-5{fill:#fff;}.cls-2{stroke-width:2.98px;}.cls-2,.cls-3{fill:none;}</style></defs><rect class="cls-5" x="1.49" y="1.96" width="75" height="74.06"/><path class="cls-4" d="m24.44,28.47c1.04,0,2.08,0,3.12,0,1.19,0,1.91.72,1.92,1.89,0,1.08.01,2.15,0,3.23,0,.3.09.43.37.55,4.57,1.94,7.53,5.28,8.6,10.09,1.69,7.64-3.28,15.06-10.96,16.65-6.55,1.35-12.67-1.53-15.82-7.29-2.76-5.05-1.88-11.57,2.16-15.91,1.45-1.56,3.18-2.74,5.16-3.53.31-.12.39-.27.39-.58-.02-1.06,0-2.12,0-3.18,0-1.19.73-1.91,1.95-1.92,1.04,0,2.08,0,3.12,0Z"/><path class="cls-4" d="m51.5,32.99c-1.57-.16-3.17-.11-4.72-.38-2.13-.37-3.51-1.57-4.61-2.4-6.7-5.03-8.1-8.95-11.09-8.64-.92.09-2.39.73-3.18,1.85-.7.99-1.04,2.09-1.1,3.28-.01.25-.07.32-.32.32-1.28-.01-2.56,0-3.85-.02-.09,0-.27-.15-.27-.23.01-3.96,2.52-8.38,7.1-9.41,2.43-.54,4.71-.06,6.65,1.48,1.55,1.22,2.96,2.61,4.42,3.93,1.55,1.4,3.08,2.82,4.64,4.19,1.19,1.04,2.57,1.61,4.2,1.57,1.57-.04,3.14,0,4.71,0,.31,0,.41.07.41.39-.02,1.23-.01,2.47,0,3.7,0,.14-.02.23-.07.28-.09.09-.23.07-.28.07-.28-.02-1.26,0-2.65.02Z"/><line class="cls-1" x1="52.3" y1="34.41" x2="48.41" y2="45.03"/><line class="cls-3" x1="55.23" y1="34.72" x2="60.59" y2="45.09"/><line class="cls-3" x1="57.03" y1="33.12" x2="67.27" y2="39.05"/><line class="cls-3" x1="57.46" y1="30.14" x2="68.7" y2="30.2"/><line class="cls-3" x1="56.98" y1="27.49" x2="67.08" y2="21.75"/><line class="cls-3" x1="55.2" y1="26.33" x2="60.18" y2="16.24"/><line class="cls-3" x1="52.05" y1="26.4" x2="48.56" y2="15.54"/><rect class="cls-2" x="1.49" y="1.49" width="75" height="75"/></svg>