<?xml version="1.0" encoding="UTF-8"?><svg id="Ebene_1" xmlns="http://www.w3.org/2000/svg" viewBox="0 0 84.26 106.05"><defs><style>.cls-1{fill:#fff;stroke-width:9.26px;}.cls-1,.cls-2,.cls-3{stroke:blue;stroke-miterlimit:10;}.cls-2{stroke-width:3.72px;}.cls-2,.cls-3{fill:blue;}.cls-3{font-family:ArialMT, Arial;font-size:52.8px;letter-spacing:-.02em;stroke-width:1.85px;}</style></defs><path class="cls-2" d="m32.94,11.05c0,5.08-4.11,9.19-9.19,9.19-12.19-.48-12.19-17.9,0-18.38,5.08,0,9.19,4.11,9.19,9.19Z"/><path class="cls-2" d="m66.91,11.05c0,5.08-4.11,9.19-9.19,9.19-12.19-.48-12.19-17.9,0-18.38,5.08,0,9.19,4.11,9.19,9.19Z"/><path class="cls-1" d="m4.63,64.09c0-20.61,16.79-37.32,37.5-37.32h0c20.71,0,37.5,16.71,37.5,37.32h0c0,20.61-16.79,37.32-37.5,37.32,0,0,0,0,0,0h0c-20.71,0-37.5-16.71-37.5-37.32h0Z"/><text class="cls-3" transform="translate(25 83)"><tspan x="0" y="0">P</tspan></text></svg>