<?xml version="1.0" encoding="UTF-8"?><svg id="Ebene_1" xmlns="http://www.w3.org/2000/svg" viewBox="0 0 84.43 109.91"><defs><style>.cls-1{fill:#fff;stroke-width:9.43px;}.cls-1,.cls-2,.cls-3{stroke:blue;stroke-miterlimit:10;}.cls-2{stroke-width:3.79px;}.cls-2,.cls-3{fill:blue;}.cls-3{font-family:ArialMT, Arial;font-size:53.74px;letter-spacing:-.02em;stroke-width:1.89px;}</style></defs><path class="cls-1" d="m4.71,67.88c0-20.61,16.79-37.32,37.5-37.32h0c20.71,0,37.5,16.71,37.5,37.32h0c0,20.61-16.79,37.32-37.5,37.32h0c-20.71,0-37.5-16.71-37.5-37.32h0Z"/><path class="cls-2" d="m79.71,11c.18,12.14-18.89,12.14-18.71,0-.18-12.13,18.89-12.13,18.71,0Z"/><path class="cls-2" d="m24.52,11c.18,12.14-18.89,12.14-18.71,0-.18-12.13,18.89-12.13,18.71,0Z"/><path class="cls-2" d="m51.57,11c.18,12.14-18.89,12.14-18.71,0-.18-12.13,18.89-12.13,18.71,0Z"/><text class="cls-3" transform="translate(24.78 87.11)"><tspan x="0" y="0">P</tspan></text></svg>