<?xml version="1.0" encoding="UTF-8"?><svg id="Ebene_1" xmlns="http://www.w3.org/2000/svg" xmlns:xlink="http://www.w3.org/1999/xlink" viewBox="0 0 286.11 75"><defs><style>.cls-1{fill:#1214ff;fill-rule:evenodd;}.cls-1,.cls-2,.cls-3{stroke-width:0px;}.cls-2,.cls-4{fill:none;}.cls-5{clip-path:url(#clippath-1);}.cls-6{clip-path:url(#clippath);}.cls-4{stroke:#fff;stroke-miterlimit:10;stroke-width:.09px;}.cls-3{fill:#fff;opacity:0;}</style><clipPath id="clippath"><rect class="cls-2" x=".92" y=".93" width="284.26" height="73.15"/></clipPath><clipPath id="clippath-1"><rect class="cls-2" x="2.58" y="3.1" width="278.76" height="68.69"/></clipPath></defs><rect class="cls-3" x="0" width="286.11" height="75"/><g class="cls-6"><rect class="cls-3" x="2.03" y="2.55" width="279.86" height="69.8"/><g class="cls-5"><path class="cls-1" d="m25.16,25.39c.11-2.33-7.08-13.31-1.12-12.97,6.84-1.83,14.62-1.7,20.9,1.97-7.96,20.24-3.82,5.54-19.79,11h0Zm34.38,38.27c10.51-13.2,3.27-11.54,14.68-5.27,2.46,1.17,5.15,1.32,7.9,1.22,2.28-1.98,2.26,10.54,2.88,11-1.69.18-3.64.72-5.3.94-.23-.06-.18.12-.19.28h.93c-7.63,0-15.44-2.76-20.9-8.18Zm33.07-8.84c.34-.1,6.27,12.06,6.88,10.81,1.46-1.36,2.69-2.97,4.09-4.33,5.4-6.82,5.3-15.52,7.34-23.7.24-1.61.77-3.24,1.39-4.61-1.66-.27-8.65-13.25-9.47-6.39-5.39,8.64-4.01,20.14-10.22,28.21Zm22.58-40.43c5.99,19.01,2.17,7.02,16.17,9.59,1.89.73,3.79,1.57,5.48,2.63-.31-.48,5.9-12.98,3.81-12.69-7.94-4-17.65-3.74-25.46.47Zm28.62,19.37c3.1-1.64,8.78-13.82,11.15-4.98,1.43,2.32,2.47,5.16,2.6,7.9.56,3.49.4,7.38,1.21,10.72.35-.16-10.59,9.6-9.29,6.49-1.31-6.86-3.48-13.52-5.67-20.12Zm21.37,22.76c-5.63,11.88-8.13,12.75,6.97,15.05,14.43-.19,13.75-.6,8.83-12.41-5.32,1.46-11.37,1-15.79-2.63Zm24.53-6.96c14.52,14.28,7.43,9.5,17.93-6.02,0,0,1.86-2.82,1.86-2.82-.4.12-12.1-8.8-12.17-7.24-2.51,5.15-5.4,10.72-7.62,16.08Zm55-28.77V3.1l36.7,24.17-36.7,23.98c-1.27-5.04,4.14-21.01-6.13-17.49-5.38,0-11.13-.07-16.45.75-2.54,0-5.14.5-7.43,1.41.18-.64-8.72-13.31-4.28-12.22,10.94-3.14,22.88-2.74,34.28-2.92ZM46.62,30.66c.82.23,10-11.04,10.22-6.96,3,6.04,4.35,12.88,6.23,19.37,2.89,2.92-8.99,8.39-10.04,9.87.12-2.37-1.11-4.68-1.39-6.96-1.47-5.11-3.03-10.39-5.02-15.33ZM2.58,41.19c18.29-.65,9.2,3.53,15.24-9.31.61-.91,1.17-1.9,1.95-2.63.87-.19-8-9.4-7.9-9.59-6.05,5.4-9.39,13.4-9.29,21.53Z"/><path class="cls-4" d="m25.16,25.39c.11-2.33-7.08-13.31-1.12-12.97,6.84-1.83,14.62-1.7,20.9,1.97-7.96,20.24-3.82,5.54-19.79,11h0Zm34.38,38.27c10.51-13.2,3.27-11.54,14.68-5.27,2.46,1.17,5.15,1.32,7.9,1.22,2.28-1.98,2.26,10.54,2.88,11-1.69.18-3.64.72-5.3.94-.23-.06-.18.12-.19.28h.93c-7.63,0-15.44-2.76-20.9-8.18Zm33.07-8.84c.34-.1,6.27,12.06,6.88,10.81,1.46-1.36,2.69-2.97,4.09-4.33,5.4-6.82,5.3-15.52,7.34-23.7.24-1.61.77-3.24,1.39-4.61-1.66-.27-8.65-13.25-9.47-6.39-5.39,8.64-4.01,20.14-10.22,28.21Zm22.58-40.43c5.99,19.01,2.17,7.02,16.17,9.59,1.89.73,3.79,1.57,5.48,2.63-.31-.48,5.9-12.98,3.81-12.69-7.94-4-17.65-3.74-25.46.47Zm28.62,19.37c3.1-1.64,8.78-13.82,11.15-4.98,1.43,2.32,2.47,5.16,2.6,7.9.56,3.49.4,7.38,1.21,10.72.35-.16-10.59,9.6-9.29,6.49-1.31-6.86-3.48-13.52-5.67-20.12Zm21.37,22.76c-5.63,11.88-8.13,12.75,6.97,15.05,14.43-.19,13.75-.6,8.83-12.41-5.32,1.46-11.37,1-15.79-2.63Zm24.53-6.96c14.52,14.28,7.43,9.5,17.93-6.02,0,0,1.86-2.82,1.86-2.82-.4.12-12.1-8.8-12.17-7.24-2.51,5.15-5.4,10.72-7.62,16.08Zm55-28.77V3.1l36.7,24.17-36.7,23.98c-1.27-5.04,4.14-21.01-6.13-17.49-5.38,0-11.13-.07-16.45.75-2.54,0-5.14.5-7.43,1.41.18-.64-8.72-13.31-4.28-12.22,10.94-3.14,22.88-2.74,34.28-2.92ZM46.62,30.66c.82.23,10-11.04,10.22-6.96,3,6.04,4.35,12.88,6.23,19.37,2.89,2.92-8.99,8.39-10.04,9.87.12-2.37-1.11-4.68-1.39-6.96-1.47-5.11-3.03-10.39-5.02-15.33ZM2.58,41.19c18.29-.65,9.2,3.53,15.24-9.31.61-.91,1.17-1.9,1.95-2.63.87-.19-8-9.4-7.9-9.59-6.05,5.4-9.39,13.4-9.29,21.53Z"/></g></g></svg>