<?xml version="1.0" encoding="UTF-8"?><svg id="Ebene_1" xmlns="http://www.w3.org/2000/svg" xmlns:xlink="http://www.w3.org/1999/xlink" viewBox="0 0 289.69 75"><defs><style>.cls-1{fill:#1214ff;}.cls-1,.cls-2,.cls-3{stroke-width:0px;}.cls-1,.cls-3{fill-rule:evenodd;}.cls-2,.cls-4{fill:none;}.cls-5{clip-path:url(#clippath-1);}.cls-3{fill:#fff;opacity:0;}.cls-6{clip-path:url(#clippath);}.cls-4{stroke:#fff;stroke-miterlimit:10;stroke-width:.09px;}</style><clipPath id="clippath"><polygon class="cls-2" points=".94 74.06 288.75 74.06 288.75 .94 .94 .94 .94 74.06 .94 74.06"/></clipPath><clipPath id="clippath-1"><rect class="cls-2" x="3.23" y="3.11" width="282.67" height="68.73"/></clipPath></defs><polygon class="cls-3" points="0 0 289.69 0 289.69 75 0 75 0 0 0 0"/><g class="cls-6"><polygon class="cls-3" points="2.67 2.55 286.46 2.55 286.46 72.4 2.67 72.4 2.67 2.55 2.67 2.55"/><g class="cls-5"><path class="cls-1" d="m285.96,27.1s-37.21,24.27-37.21,24.27c0,0,0-17.69,0-17.69-24.02,1-31.18-6.28-42.96,18.91-5.02,10.86-11.95,18.57-24.5,19.29-13.56,1.1-27.33-7.54-31.56-20.51-2.24-5.26-.84-11.13-2.92-16.28-9.53-18.57-34.41-13.25-34.77,7.81-.17,14.19-12.12,27.06-26.1,28.79-16.43,2.29-32.8-10.59-34.29-27.1.72-10.14-4.28-18.1-14.13-20.51-11.62-2.21-21.43,3.48-21.39,16.18,1.35,1.5-14.91,2.01-12.91-.38.3-6.36,2.57-12.7,6.88-17.5C26.13,1.82,59.27,12,64.09,36.61c.29,6.36.6,13.26,5.65,17.59,8.63,9.59,25.05,5.4,29.02-6.49,2.05-5.32.25-12.09,3.39-17.31,5.81-15.81,25.65-23.85,40.7-16.18,8.24,4.09,15.49,11.79,17.43,20.89,1.41,4.23.05,9.06,2.07,12.98,2.94,8.34,12.2,12.96,20.82,11.1,15.62-4.09,8.68-25.15,27.61-34.9,5.2-2.99,11.39-2.9,17.24-3.29,6.8-.11,13.91-.26,20.73-.19,0,0,0-17.69,0-17.69,0,0,37.21,23.99,37.21,23.99Z"/><path class="cls-4" d="m285.96,27.1s-37.21,24.27-37.21,24.27c0,0,0-17.69,0-17.69-24.02,1-31.18-6.28-42.96,18.91-5.02,10.86-11.95,18.57-24.5,19.29-13.56,1.1-27.33-7.54-31.56-20.51-2.24-5.26-.84-11.13-2.92-16.28-9.53-18.57-34.41-13.25-34.77,7.81-.17,14.19-12.12,27.06-26.1,28.79-16.43,2.29-32.8-10.59-34.29-27.1.72-10.14-4.28-18.1-14.13-20.51-11.62-2.21-21.43,3.48-21.39,16.18,1.35,1.5-14.91,2.01-12.91-.38.3-6.36,2.57-12.7,6.88-17.5C26.13,1.82,59.27,12,64.09,36.61c.29,6.36.6,13.26,5.65,17.59,8.63,9.59,25.05,5.4,29.02-6.49,2.05-5.32.25-12.09,3.39-17.31,5.81-15.81,25.65-23.85,40.7-16.18,8.24,4.09,15.49,11.79,17.43,20.89,1.41,4.23.05,9.06,2.07,12.98,2.94,8.34,12.2,12.96,20.82,11.1,15.62-4.09,8.68-25.15,27.61-34.9,5.2-2.99,11.39-2.9,17.24-3.29,6.8-.11,13.91-.26,20.73-.19,0,0,0-17.69,0-17.69,0,0,37.21,23.99,37.21,23.99Z"/></g></g></svg>