<?xml version="1.0" encoding="UTF-8"?><svg id="Ebene_1" xmlns="http://www.w3.org/2000/svg" viewBox="0 0 150.02 80.23"><defs><style>.cls-1{fill:none;stroke-width:5.14px;}.cls-1,.cls-2,.cls-3{stroke:blue;stroke-miterlimit:10;}.cls-2{stroke-width:9.43px;}.cls-2,.cls-3{fill:#fff;}.cls-3{stroke-width:5.23px;}.cls-4{font-family:Arial-BoldMT, Arial;font-size:28.09px;font-weight:700;}.cls-4,.cls-5{fill:blue;}.cls-5{stroke-width:0px;}</style></defs><polygon class="cls-3" points="147.4 2.62 147.4 77.62 2.62 77.62 2.62 2.62 147.4 2.62 147.4 2.62"/><polygon class="cls-1" points="100.67 10.2 139.67 40 100.67 69.81 100.67 10.2 100.67 10.2"/><text class="cls-4" transform="translate(19.08 48.46)"><tspan x="0" y="0">W</tspan></text><line class="cls-2" x1="64.13" y1="39.35" x2="96.82" y2="39.35"/><polygon class="cls-5" points="92.04 25 111.19 39.35 92.04 53.7 92.04 25 92.04 25"/><path class="cls-5" d="m49.84,39.43c0-3.49,2.85-6.31,6.36-6.31h0c3.51,0,6.36,2.83,6.36,6.31h0c0,3.49-2.85,6.31-6.36,6.31h0c-3.51,0-6.36-2.83-6.36-6.31h0Z"/></svg>