<?xml version="1.0" encoding="UTF-8"?><svg id="Calque_1" xmlns="http://www.w3.org/2000/svg" viewBox="0 0 123.07 75"><defs><style>.cls-1{fill:#fff;}.cls-1,.cls-2{stroke-width:0px;}.cls-2{fill:blue;}</style></defs><rect class="cls-1" x=".03" y=".27" width="123.04" height="74.73"/><path class="cls-2" d="m123.07.18v74.82H.15C-.17,50.08.13,25.2.03.27,41.02-.19,82.08.04,123.07.18ZM4.09,70.96h78.88v-16.01H4.09v16.01Zm-.02-51.69h78.9V4.1H4.07v15.17Zm83.27-9.29v54.73c9.81-9.28,19.35-18.3,28.99-27.41-9.73-9.17-19.28-18.17-28.99-27.32Zm31.67,61.07v-30.61c-10.84,10.25-21.44,20.28-32.36,30.61h32.36Zm.04-36.79V4.11h-31.86c10.8,10.22,21.21,20.07,31.86,30.15ZM19.66,50.71h12.94v-27.2h-12.94v27.2Zm30.86.04v-27.2h-13.05v27.2h13.05Zm17.05,0v-27.22h-12.31v27.22h12.31ZM4.14,23.45v27.3h11.32v-27.3H4.14Zm67.68.04v27.21h11.21v-27.21h-11.21Z"/></svg>