<?xml version="1.0" encoding="UTF-8"?><svg id="Ebene_1" xmlns="http://www.w3.org/2000/svg" viewBox="0 0 75 56.08"><defs><style>.cls-1{stroke-width:0px;}.cls-2{fill:#fff;stroke:red;stroke-miterlimit:10;stroke-width:3.76px;}</style></defs><path class="cls-1" d="m31.93,54.62H12.76c.62-2.6,1.22-5.13,1.84-7.66,1.57-6.42,3.15-12.84,4.72-19.26,1.9-7.76,3.78-15.53,5.67-23.3.21-.87.4-1.75.65-2.62.05-.16.3-.37.47-.38.66-.04,1.32-.02,1.98-.02,6.73,0,13.46,0,20.19,0,.99,0,.98,0,1.2.92,1.57,6.42,3.14,12.84,4.71,19.26,1.67,6.82,3.35,13.64,5.02,20.47,1,4.07,1.99,8.15,2.98,12.22.02.1.03.21.05.36h-19.16c-.1-1.52-.18-2.96-.29-4.41-.07-.94-.19-1.88-.24-2.82-.02-.45-.21-.53-.62-.53-2.46.02-4.93.02-7.39.03-.26,0-.53,0-.79-.01q-1.31-.04-1.4,1.31c-.14,2.12-.29,4.25-.44,6.43Zm1.62-22.8c-.19,2.56-.36,5.02-.54,7.52h9.04c-.2-2.54-.39-5.02-.58-7.52h-7.91Zm1.06-14.92c-.16,2.52-.32,4.94-.48,7.41h6.77c-.17-2.46-.33-4.88-.51-7.41h-5.79Zm5.08-7.45c.14,0,.09-.22.09-.32-.13-2.24-.26-4.48-.44-6.71-.02-.19-.37-.47-.59-.5-.54-.07-1.1,0-1.65,0q-1.33,0-1.44,1.29s-.01.09-.01.13c-.12,1.89-.25,3.77-.34,5.66,0,.46,0,.43.35.44,1.38.03,2.69.06,4.04.02Z"/><path class="cls-1" d="m52.88,1.38c1.36,0,2.58-.03,3.81.03.21.01.48.41.57.68.78,2.28,1.52,4.58,2.29,6.87,2.45,7.21,4.92,14.41,7.36,21.62,1.96,5.8,3.9,11.61,5.85,17.41.73,2.18,1.47,4.36,2.23,6.62-.27.03-.5.08-.73.08-2.53,0-5.06,0-7.59.02-.49,0-.69-.18-.8-.65-1.52-6.25-3.06-12.49-4.6-18.74-1.28-5.18-2.57-10.35-3.84-15.54-1.42-5.8-2.82-11.6-4.23-17.4-.07-.29-.19-.57-.33-1Z"/><path class="cls-1" d="m0,54.64c1.11-3.27,2.19-6.42,3.26-9.57,2.46-7.25,4.92-14.51,7.37-21.76,1.81-5.36,3.63-10.73,5.43-16.09.59-1.75,1.16-3.5,1.76-5.24.07-.22.3-.53.46-.54,1.24-.05,2.49-.02,3.81-.02-.39,1.55-.77,3.03-1.13,4.51-2.05,8.36-4.09,16.72-6.14,25.08-1.84,7.48-3.67,14.97-5.53,22.44-.38,1.54-.21,1.23-1.59,1.24-2.29.02-4.57.01-6.86.01-.26,0-.51-.03-.84-.05Z"/><line class="cls-2" x1="11.67" y1="1.32" x2="64.11" y2="54.76"/><line class="cls-2" x1="63.89" y1="1.84" x2="10.89" y2="54.72"/></svg>