<?xml version="1.0" encoding="UTF-8"?><svg id="Ebene_1" xmlns="http://www.w3.org/2000/svg" viewBox="0 0 78.59 78.71"><defs><style>.cls-1{fill:#fff;stroke:red;stroke-miterlimit:10;stroke-width:5.29px;}.cls-2{stroke-width:0px;}</style></defs><path class="cls-2" d="m43.06,35.63h.55c4.34,0,8.68,0,13.03,0,.21,0,.42-.01.62.03.64.13.85.02,1.05.95.22,1.02.65,2,.98,3,.4,1.23.78,2.47,1.19,3.69,1.71,5.06,3.43,10.12,5.13,15.19.94,2.8,1.85,5.62,2.78,8.43,1.05,3.2,2.1,6.39,3.14,9.59.03.08.04.16.08.29h-28.54v-41.16Z"/><path class="cls-2" d="m35.49,76.81H6.92c.36-1.1.71-2.16,1.06-3.22,2.57-7.71,5.14-15.41,7.71-23.12.97-2.92,1.94-5.84,2.91-8.77.54-1.64,1.07-3.27,1.61-4.91,0-.02.01-.03.02-.05q.37-1.11,1.58-1.11c4.34,0,8.69,0,13.03,0h.65v41.18Z"/><path class="cls-2" d="m9.37,31.84H1.79v-3.51h75c0,1.09.01,2.18-.02,3.26,0,.09-.3.23-.46.23-1.53,0-3.06-.03-4.58-.05-.64,0-1.29.01-1.93,0-.41,0-.6.15-.59.58.02,1.06,0,2.11,0,3.22h-7.15c-.08-1.2-.17-2.42-.25-3.63-.86-.21-44.33-.25-45.08-.03v3.68h-7.35v-3.76Z"/><path class="cls-2" d="m35.5,1.91v22.44h-11.16c.42-1.19.84-2.34,1.22-3.5,1.07-3.23,2.12-6.48,3.19-9.71.94-2.85,1.9-5.7,2.83-8.56.16-.5.39-.72.96-.69.97.05,1.94.01,2.96.01Z"/><path class="cls-2" d="m54.2,24.37h-11.13V1.94c1.1,0,2.22-.03,3.34.03.19,0,.44.33.52.56.46,1.3.89,2.62,1.32,3.93,1.26,3.86,2.52,7.72,3.79,11.57.69,2.1,1.42,4.18,2.16,6.35Z"/><line class="cls-1" x1="2.96" y1="1.85" x2="76.71" y2="76.85"/><line class="cls-1" x1="76.39" y1="2.58" x2="1.87" y2="76.8"/></svg>