<?xml version="1.0" encoding="UTF-8"?><svg id="Ebene_1" xmlns="http://www.w3.org/2000/svg" viewBox="0 0 79.21 78.98"><defs><style>.cls-1{stroke-width:0px;}.cls-2{stroke-width:5.33px;}.cls-2,.cls-3{fill:#fff;stroke:red;stroke-miterlimit:10;}.cls-3{stroke-width:5.33px;}</style></defs><path class="cls-1" d="m5.23,76.99l2.47-8.88H2.11l3.12-10.86h5.48l2.19-7.89h-5.33s2.34-8.88,2.34-8.88h5.46l2.47-8.88h-4.02l3.12-6.91h2.81l1.92-6.91h-3.95l3.12-4.93h2.19l3.02-10.86h7.29l-2.26,10.86h17.02l-2.26-10.86h7.29l3.02,10.86h2.19l3.12,4.93h-3.95l1.92,6.91h2.81l3.12,6.91h-4.02l2.47,8.88h4.67l2.34,8.88h-4.55l2.19,7.89h5.48l3.13,10.86h-5.59l2.47,8.88h-12.5l-1.85-8.88H19.58l-1.85,8.88H5.23ZM28.63,24.69h21.96l-1.44-6.91h-19.08l-1.44,6.91Zm-3.29,15.79h28.54l-1.85-8.88h-24.84l-1.85,8.88Zm-3.49,16.78h35.53l-1.64-7.89H23.49s-1.64,7.89-1.64,7.89Z"/><line class="cls-3" x1="2.33" y1="1.89" x2="77.33" y2="76.89"/><line class="cls-2" x1="76.89" y1="2.1" x2="1.89" y2="77.1"/></svg>