<?xml version="1.0" encoding="UTF-8"?><svg id="Ebene_1" xmlns="http://www.w3.org/2000/svg" viewBox="0 0 84 84"><defs><style>.cls-1{fill:#020202;stroke-width:0px;}.cls-2{fill:#fff;stroke:red;stroke-miterlimit:10;stroke-width:9px;}</style></defs><circle class="cls-2" cx="42" cy="42" r="37.5"/><path class="cls-1" d="m21.1,64.08c.08-1.36.15-2.72.22-3.79,4.33-.82,8.53-1.62,13.68-2.6,4.59,2.78,10.28,2.69,14.91-.02,5.12.98,9.35,1.78,13.93,2.66.06.92.16,2.34.26,3.75h-7.17c-4.38-2.72-8.76-1.49-13.14,0h-3.58c-4.18-2.38-8.36-1.94-12.54,0h-6.57Z"/><path class="cls-1" d="m59.01,25.06v12.74c2.02,1.04,3.49,1.8,4.78,2.46-1.47,5.29-2.81,10.09-4.14,14.85-3.71.84-6.09-1.37-8.81-3.58-3.06,3.6-7.17,4.3-12.08,3.49-1.34-.94-3.04-2.13-4.89-3.42-2.32,2.05-4.63,4.35-8.4,3.5-1.33-4.59-2.69-9.26-4.14-14.24.34-.5.8-1.19,1.31-1.96.93-.11,1.88-.23,3.17-.38,0-3.3-.04-6.51.01-9.72.04-3.07,1.17-4.17,4.25-4.26.99-.03,1.99,0,2.98,0,.88,0,1.77,0,2.97,0v-6.26h13v6c3.37.27,6.44.52,9.98.8Zm-3.96,3.4h-25.18v8.77c8.5-4.96,16.83-4.59,25.18-.21v-8.56Z"/></svg>