<?xml version="1.0" encoding="UTF-8"?><svg id="Ebene_1" xmlns="http://www.w3.org/2000/svg" viewBox="0 0 84 84"><defs><style>.cls-1{fill:#050505;stroke-width:0px;}.cls-2{fill:#fff;stroke:red;stroke-miterlimit:10;stroke-width:9px;}</style></defs><circle class="cls-2" cx="42" cy="42" r="37.5"/><path class="cls-1" d="m31.19,71.06c1.61-4.15,3.23-8.3,4.84-12.45,1.66-4.04,3.32-8.07,5.07-12.32-2.22,0-4.11.07-6-.02-2.92-.14-5.84-.31-8.75-.61-.41-.04-1.33-.14-2.28.31-1.1.53-1.64,1.52-1.91,2.02-.99,1.83-2.43,4.31-4.21,7.44-.71.05-1.39.09-2.13.15.46-4.06,3.61-7.38,2.52-11.59-.64-.25-1.13-.45-1.74-.69.57-.32,1.06-.59,1.68-.93,1.02-4.12-2.35-7.09-2.97-11.09.64-.11,1.32-.22,2-.34,1.75,2.71,3.23,5.34,5.08,7.67.71.9,2.31,1.61,3.46,1.55,4.34-.25,8.66-.84,12.99-1.33.6-.07,1.2-.23,2.13-.41-.89-1.62-1.62-2.94-2.35-4.25-.58-1.28-1.17-2.55-1.75-3.83,0,0,0,0-.01,0-.61-1.29-1.21-2.58-1.82-3.86-.85-1.98-1.72-3.99-2.63-6.01-.9-2.03-1.81-4.02-2.72-5.98,2.9-.95,5.55.02,7.14,2.51,2.66,4.19,5.37,8.36,8.09,12.59h6.24c.06,1.03.11,1.93.17,3.05-1.28.29-2.38.53-3.85.86,1.14,1.78,2.12,3.3,2.95,4.59,4.74,0,9.22.02,13.7-.01,2.07-.02,4.05.06,5.7,1.62,1.34,1.28,1.43,2.7,0,3.62-1.49.95-3.29,1.73-5.02,1.91-3.68.38-7.42.48-11.12.39-2.3-.05-3.58.9-4.4,2.88-.31.76-.72,1.47-1.22,2.47,1.34.19,2.46.34,3.69.51v3.08c-1.99.18-4.01.37-6.21.57-1.75,3.05-3.54,6.15-5.32,9.25-.73,1.28-.96,2.67-2.18,3.92-1.98,2.04-4.74,2.61-6.86,2.75Z"/></svg>