<?xml version="1.0" encoding="UTF-8"?><svg id="Ebene_1" xmlns="http://www.w3.org/2000/svg" viewBox="0 0 82.05 75"><defs><style>.cls-1{fill:#0085c8;}.cls-1,.cls-2,.cls-3{stroke-width:0px;}.cls-2{fill:#f6861f;}.cls-3{fill:#fff;}</style></defs><path id="_Pfad_" class="cls-3" d="m37.5,0C16.79,0,0,16.79,0,37.5s16.79,37.5,37.5,37.5,37.5-16.79,37.5-37.5S58.21,0,37.5,0Z"/><path id="_Pfad_-2" class="cls-2" d="m37.5,0C16.79,0,0,16.79,0,37.5s16.79,37.5,37.5,37.5,37.5-16.79,37.5-37.5S58.21,0,37.5,0Zm0,67.5c-16.57,0-30-13.43-30-30S20.93,7.5,37.5,7.5s30,13.43,30,30-13.43,30-30,30Z"/><polygon class="cls-1" points="59.57 37.19 82.05 52.09 82.05 22.3 59.57 37.19 59.57 37.19"/><path class="cls-2" d="m25.16,22.47c1.97,0,3.57,1.6,3.57,3.57s-1.6,3.57-3.57,3.57-3.57-1.6-3.57-3.57,1.6-3.57,3.57-3.57h0Z"/><path class="cls-2" d="m49.84,22.47c1.97,0,3.57,1.6,3.57,3.57s-1.6,3.57-3.57,3.57-3.57-1.6-3.57-3.57,1.6-3.57,3.57-3.57h0Z"/><path class="cls-2" d="m51.78,31.19h-3.88c-2.32,0-3.36,2.09-3.36,3.73v6.98c0,1.15.73,2.05,1.65,2.12v11.25c0,.89.72,1.61,1.61,1.61s1.61-.72,1.61-1.61c0,0,0,0,0,0v-7.65h.85v7.65c0,.89.72,1.61,1.61,1.61s1.61-.72,1.61-1.61c0,0,0,0,0,0v-11.25h0c.92-.07,1.65-.97,1.65-2.12v-6.98c0-1.64-1.04-3.73-3.36-3.73Z"/><path class="cls-2" d="m28.75,39.33v-7.7c-.46-.27-1-.44-1.66-.44h-3.88c-2.32,0-3.36,2.09-3.36,3.73v6.98c0,1.15.73,2.05,1.65,2.12v11.25c0,.89.72,1.61,1.61,1.61s1.61-.72,1.61-1.61c0,0,0,0,0,0v-7.65h.85v7.65c0,.89.72,1.61,1.61,1.61s1.61-.72,1.61-1.61c0,0,0,0,0,0v-11.25h0c.86-.07,1.55-.87,1.63-1.92-.98-.36-1.69-1.44-1.69-2.77Z"/><path class="cls-2" d="m38.29,26.04h-4.65c-2.79,0-4.03,2.51-4.03,4.48v8.37c0,1.42.92,2.52,2.06,2.56v13.5c0,1.07.87,1.93,1.93,1.93s1.93-.87,1.93-1.93v-9.18h.85v9.18c0,1.07.87,1.93,1.93,1.93s1.93-.87,1.93-1.93v-13.5c1.15-.04,2.06-1.14,2.06-2.56v-8.37c0-1.97-1.25-4.48-4.03-4.48Z"/><path class="cls-2" d="m35.97,24.2c2.3,0,4.17-1.87,4.17-4.17s-1.87-4.17-4.17-4.17-4.17,1.87-4.17,4.17,1.87,4.17,4.17,4.17h0Z"/></svg>